<svg version="1.2" xmlns="http://www.w3.org/2000/svg" viewBox="0 0 20 20" width="20" height="20">
	<title>china-svg</title>
	<style>
		.s0 { fill: #ff4b55 } 
		.s1 { fill: #ffe15a } 
	</style>
	<path id="Layer" class="s0" d="m0 0h20v20h-20z"/>
	<g id="Layer">
		<path id="Layer" class="s1" d="m4.5 3.4l0.5 1.5h1.5c0.2 0 0.3 0.3 0.1 0.4l-1.2 0.9 0.5 1.5c0 0.2-0.2 0.4-0.4 0.3l-1.2-1-1.3 1c-0.2 0.1-0.4-0.1-0.3-0.3l0.4-1.5-1.2-0.9c-0.2-0.1-0.1-0.4 0.1-0.4h1.6l0.5-1.5c0-0.2 0.3-0.2 0.4 0z"/>
		<path id="Layer" class="s1" d="m10.2 3.8l0.3 0.5 0.6-0.2c0.1 0 0.1 0 0.1 0.1l-0.4 0.5 0.4 0.5c0 0 0 0.1-0.1 0.1l-0.6-0.2-0.3 0.5c-0.1 0.1-0.2 0-0.2 0v-0.6l-0.6-0.2c0-0.1 0-0.2 0-0.2l0.6-0.2v-0.6c0-0.1 0.1-0.1 0.2 0z"/>
		<path id="Layer" class="s1" d="m8 2.3l0.6 0.1 0.2-0.6c0.1 0 0.2 0 0.2 0.1l0.1 0.6h0.6c0.1 0 0.1 0.1 0 0.2l-0.5 0.3 0.1 0.6c0.1 0 0 0.1-0.1 0l-0.4-0.4-0.6 0.3c0 0.1-0.1 0-0.1-0.1l0.3-0.5-0.5-0.4c0-0.1 0-0.2 0.1-0.2z"/>
		<path id="Layer" class="s1" d="m8.9 8.2l-0.3 0.4-0.6-0.1c-0.1-0.1-0.1 0-0.1 0.1l0.4 0.5-0.4 0.5c0 0 0 0.1 0.1 0.1l0.6-0.2 0.3 0.5c0.1 0.1 0.2 0 0.2 0v-0.7l0.6-0.1c0-0.1 0-0.2 0-0.2l-0.6-0.2v-0.6c0-0.1-0.1-0.1-0.2 0z"/>
		<path id="Layer" class="s1" d="m11.1 6.8l-0.6 0.1-0.2-0.6c-0.1 0-0.2 0-0.2 0l-0.1 0.6-0.6 0.1c-0.1 0-0.1 0.1-0.1 0.2l0.6 0.3-0.1 0.5c-0.1 0.1 0 0.2 0.1 0.1l0.4-0.4 0.6 0.3c0 0 0.1 0 0.1-0.1l-0.3-0.5 0.5-0.5c0 0 0-0.1-0.1-0.1z"/>
	</g>
	<g id="Layer">
	</g>
	<g id="Layer">
	</g>
	<g id="Layer">
	</g>
	<g id="Layer">
	</g>
	<g id="Layer">
	</g>
	<g id="Layer">
	</g>
	<g id="Layer">
	</g>
	<g id="Layer">
	</g>
	<g id="Layer">
	</g>
	<g id="Layer">
	</g>
	<g id="Layer">
	</g>
	<g id="Layer">
	</g>
	<g id="Layer">
	</g>
	<g id="Layer">
	</g>
	<g id="Layer">
	</g>
</svg>