<svg version="1.2" xmlns="http://www.w3.org/2000/svg" viewBox="0 0 20 20" width="20" height="20">
	<title>es-svg</title>
	<style>
		.s0 { fill: #aa151b } 
		.s1 { fill: #f1bf00 } 
		.s2 { fill: #ad1519 } 
		.s3 { fill: none;stroke: #000000;stroke-linejoin: round;stroke-width: 0 } 
		.s4 { fill: #c8b100 } 
		.s5 { fill: none;stroke: #000000;stroke-width: 0 } 
		.s6 { fill: #ffffff } 
		.s7 { fill: #058e6e } 
		.s8 { fill: #005bbf } 
		.s9 { fill: #cccccc } 
		.s10 { fill: none;stroke: #000000;stroke-linecap: round;stroke-width: 0 } 
		.s11 { fill: #ad1519;stroke: #000000;stroke-width: 0 } 
		.s12 { fill: #c8b100;stroke: #000000;stroke-width: 0 } 
		.s13 { fill: #ffffff;stroke: #000000;stroke-width: 0 } 
		.s14 { fill: #058e6e;stroke: #000000;stroke-width: 0 } 
		.s15 { fill: #005bbf;stroke: #000000;stroke-width: 0 } 
		.s16 { fill: #c8b100;stroke: #000000;stroke-linejoin: round;stroke-width: 0 } 
		.s17 { fill: #c7b500;stroke: #000000;stroke-width: 0 } 
		.s18 { fill: none;stroke: #c8b100;stroke-width: 0 } 
		.s19 { fill: #db4446 } 
		.s20 { fill: #ed72aa;stroke: #000000;stroke-width: 0 } 
		.s21 { fill: #000000 } 
		.s22 { fill: #ffd691;stroke: #000000;stroke-width: 0 } 
		.s23 { fill: #0039f0 } 
		.s24 { fill: none } 
	</style>
	<path id="Layer" class="s0" d="m0 0h20v20h-20z"/>
	<path id="Layer" class="s1" d="m0 5h20v10h-20z"/>
	<path id="Layer" class="s2" d="m6.7 8.9q0 0 0 0 0 0 0 0 0 0 0 0-0.1 0-0.1 0 0-0.1 0-0.1c0 0 0-0.1 0-0.1q0 0 0-0.1c0 0 0.1 0 0.1 0h0.1 0.1 0.2q0.1 0 0.1 0 0 0 0 0 0 0 0.1 0 0 0 0 0 0 0 0.1 0 0 0.1 0 0.1 0 0 0 0v0.1 0.1q0 0-0.1 0c0 0-0.2 0-0.3 0-0.1 0-0.3 0-0.3 0z"/>
	<path id="Layer" fill-rule="evenodd" class="s3" d="m6.7 8.9q0 0 0 0 0 0 0 0 0 0 0 0-0.1 0-0.1 0 0-0.1 0-0.1c0 0 0-0.1 0-0.1q0 0 0-0.1c0 0 0.1 0 0.1 0h0.1 0.1 0.2q0.1 0 0.1 0 0 0 0 0 0 0 0.1 0 0 0 0 0 0 0 0.1 0 0 0.1 0 0.1 0 0 0 0v0.1 0.1q0 0-0.1 0c0 0-0.2 0-0.3 0-0.1 0-0.3 0-0.3 0z"/>
	<path id="Layer" class="s4" d="m7 8.7q0 0 0-0.1 0-0.1 0-0.1 0.1 0 0.1 0.1 0 0.1-0.1 0.1z"/>
	<path id="Layer" fill-rule="evenodd" class="s5" d="m7 8.7q0 0 0-0.1 0-0.1 0-0.1 0.1 0 0.1 0.1 0 0.1-0.1 0.1z"/>
	<path id="Layer" class="s4" d="m7 8.7q0 0 0-0.1 0-0.1 0-0.1 0 0 0 0.1 0 0.1 0 0.1z"/>
	<path id="Layer" fill-rule="evenodd" class="s5" d="m7 8.7q0 0 0-0.1 0-0.1 0-0.1 0 0 0 0.1 0 0.1 0 0.1z"/>
	<path id="Layer" class="s4" d="m7 8.5q0 0 0 0 0 0 0.1 0-0.1 0.1-0.1 0.1 0 0 0 0 0 0 0-0.1 0 0 0 0 0 0 0 0"/>
	<path id="Layer" class="s4" d="m7 8.5v-0.1h0.1v0.1h-0.1z"/>
	<path id="Layer" fill-rule="evenodd" class="s5" d="m7 8.5v-0.1h0.1v0.1h-0.1z"/>
	<path id="Layer" class="s4" d="m7.1 8.5h-0.1v-0.1h0.1v0.1h-0.1 0.1"/>
	<path id="Layer" fill-rule="evenodd" class="s5" d="m7.1 8.5h-0.1v-0.1h0.1v0.1h-0.1 0.1"/>
	<path id="Layer" fill-rule="evenodd" class="s5" d="m7 8.5q0 0 0 0 0 0 0 0 0 0 0 0 0.1 0 0.1 0-0.1 0.1-0.1 0.1 0 0 0-0.1 0 0 0 0"/>
	<path id="Layer" class="s4" d="m7 8.9h-0.2v-0.1-0.1q-0.1-0.1-0.1-0.1 0 0 0 0c0 0 0.1 0 0.2 0.1v0.1h0.2v-0.1c0.1-0.1 0.2-0.1 0.2-0.1q0 0 0.1 0-0.1 0-0.2 0.1v0.1 0.1z"/>
	<path id="Layer" fill-rule="evenodd" class="s5" d="m7 8.9h-0.2v-0.1-0.1q-0.1-0.1-0.1-0.1 0 0 0 0c0 0 0.1 0 0.2 0.1v0.1h0.2v-0.1c0.1-0.1 0.2-0.1 0.2-0.1q0 0 0.1 0-0.1 0-0.2 0.1v0.1 0.1z"/>
	<path id="Layer" fill-rule="evenodd" class="s5" d="m6.9 8.8c-0.1-0.1-0.2-0.2-0.2-0.2m0.6 0c0 0-0.1 0.1-0.1 0.2z"/>
	<path id="Layer" class="s4" d="m6.7 9q0 0 0 0 0 0 0-0.1 0 0 0 0 0 0 0 0 0.1 0 0.3 0 0.2 0 0.3 0v0.1q-0.1 0-0.3 0-0.2 0-0.3 0z"/>
	<path id="Layer" fill-rule="evenodd" class="s5" d="m6.7 9q0 0 0 0 0 0 0-0.1 0 0 0 0 0 0 0 0 0.1 0 0.3 0 0.2 0 0.3 0v0.1q-0.1 0-0.3 0-0.2 0-0.3 0z"/>
	<path id="Layer" class="s4" d="m7 9.1q0 0 0.1 0 0 0 0 0 0.1 0 0.1 0 0-0.1 0.1-0.1 0 0 0 0 0 0 0 0 0 0-0.1 0 0 0-0.1 0 0 0 0 0-0.1 0-0.1 0-0.2 0-0.3 0 0 0 0 0 0 0 0.1 0c0 0.1 0.1 0.1 0.2 0.1z"/>
	<path id="Layer" fill-rule="evenodd" class="s5" d="m7 9.1q0 0 0.1 0 0 0 0 0 0.1 0 0.1 0 0-0.1 0.1-0.1 0 0 0 0 0 0 0 0 0 0-0.1 0 0 0-0.1 0 0 0 0 0-0.1 0-0.1 0-0.2 0-0.3 0 0 0 0 0 0 0 0.1 0c0 0.1 0.1 0.1 0.2 0.1z"/>
	<path id="Layer" class="s4" d="m7.3 8.9q0 0 0 0c-0.1 0-0.1-0.1-0.1-0.1 0 0 0 0.1 0 0.1q-0.1-0.1-0.1-0.1 0 0 0 0.1c-0.1 0-0.1-0.1-0.1-0.1 0 0 0 0.1 0 0.1q-0.1-0.1-0.1-0.1 0 0 0 0.1-0.1 0-0.1-0.1 0 0 0 0.1-0.1 0-0.1 0 0.1 0 0.2 0 0 0 0.1 0 0.1 0 0.2 0 0 0 0.1 0z"/>
	<path id="Layer" fill-rule="evenodd" class="s5" d="m7.3 8.9q0 0 0 0c-0.1 0-0.1-0.1-0.1-0.1 0 0 0 0.1 0 0.1q-0.1-0.1-0.1-0.1 0 0 0 0.1c-0.1 0-0.1-0.1-0.1-0.1 0 0 0 0.1 0 0.1q-0.1-0.1-0.1-0.1 0 0 0 0.1-0.1 0-0.1-0.1 0 0 0 0.1-0.1 0-0.1 0 0.1 0 0.2 0 0 0 0.1 0 0.1 0 0.2 0 0 0 0.1 0z"/>
	<path id="Layer" class="s4" d="m7 8.8q0 0 0 0 0 0 0 0 0 0 0 0 0.1 0 0.1 0 0 0 0 0 0 0 0.1 0 0 0 0 0 0 0 0 0 0 0 0 0 0 0 0 0 0 0 0 0 0 0 0 0 0 0 0 0 0 0 0 0 0 0.1 0.1 0.1 0 0 0-0.1 0 0.1 0 0.1 0 0 0.1 0v-0.1q0 0.1 0 0.1h-0.1q0 0 0 0 0 0 0 0 0 0 0 0 0 0 0 0 0 0 0 0-0.1 0-0.1-0.1 0 0.1 0 0.1 0 0 0 0 0 0 0 0 0 0 0 0 0 0-0.1 0 0 0 0 0 0 0 0 0 0 0 0-0.1 0 0.1 0 0.1 0 0 0 0 0 0 0 0 0 0 0 0-0.1 0-0.1-0.1 0 0.1 0 0.1 0 0 0 0-0.1 0-0.1 0 0 0 0 0 0 0 0-0.1 0 0.1 0 0.1 0 0 0 0-0.1 0-0.1 0 0 0 0 0 0 0 0 0 0 0 0 0-0.1 0-0.1 0 0 0 0 0 0 0 0 0 0 0 0 0 0 0 0 0 0 0 0 0 0 0 0 0 0 0-0.1 0 0 0 0 0 0 0 0-0.1l0.1 0.1q0 0 0 0 0 0 0-0.1 0 0.1 0.1 0.1 0 0 0-0.1 0 0 0 0 0 0 0 0 0 0 0 0 0 0 0 0 0 0 0.1 0 0 0 0 0 0 0 0.1 0 0 0 0 0 0 0 0 0 0 0 0 0 0 0 0 0 0 0 0 0z"/>
	<path id="Layer" fill-rule="evenodd" class="s5" d="m7 8.8q0 0 0 0 0 0 0 0 0 0 0 0 0.1 0 0.1 0 0 0 0 0 0 0 0.1 0 0 0 0 0 0 0 0 0 0 0 0 0 0 0 0 0 0 0 0 0 0 0 0 0 0 0 0 0 0 0 0 0 0 0.1 0.1 0.1 0 0 0-0.1 0 0.1 0 0.1 0 0 0.1 0v-0.1q0 0.1 0 0.1h-0.1q0 0 0 0 0 0 0 0 0 0 0 0 0 0 0 0 0 0 0 0-0.1 0-0.1-0.1 0 0.1 0 0.1 0 0 0 0 0 0 0 0 0 0 0 0 0 0-0.1 0 0 0 0 0 0 0 0 0 0 0 0-0.1 0 0.1 0 0.1 0 0 0 0 0 0 0 0 0 0 0 0-0.1 0-0.1-0.1 0 0.1 0 0.1 0 0 0 0-0.1 0-0.1 0 0 0 0 0 0 0 0-0.1 0 0.1 0 0.1 0 0 0 0-0.1 0-0.1 0 0 0 0 0 0 0 0 0 0 0 0 0-0.1 0-0.1 0 0 0 0 0 0 0 0 0 0 0 0 0 0 0 0 0 0 0 0 0 0 0 0 0 0 0-0.1 0 0 0 0 0 0 0 0-0.1l0.1 0.1q0 0 0 0 0 0 0-0.1 0 0.1 0.1 0.1 0 0 0-0.1 0 0 0 0 0 0 0 0 0 0 0 0 0 0 0 0 0 0 0.1 0 0 0 0 0 0 0 0.1 0 0 0 0 0 0 0 0 0 0 0 0 0 0 0 0 0 0 0 0 0z"/>
	<path id="Layer" class="s4" d="m7 8.9q-0.2 0-0.3 0 0 0 0 0 0.1 0 0.3 0 0.2 0 0.3 0 0 0 0 0-0.1 0-0.3 0"/>
	<path id="Layer" fill-rule="evenodd" class="s3" d="m7 8.9q-0.2 0-0.3 0 0 0 0 0 0.1 0 0.3 0 0.2 0 0.3 0 0 0 0 0-0.1 0-0.3 0z"/>
	<path id="Layer" class="s6" d="m6.9 8.9q0 0 0 0 0 0 0 0 0 0 0 0 0 0 0 0z"/>
	<path id="Layer" fill-rule="evenodd" class="s5" d="m6.9 8.9q0 0 0 0 0 0 0 0 0 0 0 0 0 0 0 0z"/>
	<path id="Layer" class="s2" d="m7 8.9q0 0 0 0 0 0 0 0 0 0 0 0 0 0 0 0 0 0 0 0h0.1q0 0 0 0 0 0 0 0 0 0 0 0 0 0 0 0 0 0 0 0 0 0 0 0 0 0 0 0 0 0 0 0z"/>
	<path id="Layer" fill-rule="evenodd" class="s5" d="m7 8.9q0 0 0 0 0 0 0 0 0 0 0 0 0 0 0 0 0 0 0 0h0.1q0 0 0 0 0 0 0 0 0 0 0 0 0 0 0 0 0 0 0 0 0 0 0 0 0 0 0 0 0 0 0 0z"/>
	<path id="Layer" class="s7" d="m6.8 9q0 0 0-0.1 0 0 0 0 0 0 0 0 0 0 0 0 0 0 0 0 0.1 0 0.1 0 0 0 0 0h-0.1"/>
	<path id="Layer" fill-rule="evenodd" class="s5" d="m6.8 9q0 0 0-0.1 0 0 0 0 0 0 0 0 0 0 0 0 0 0 0 0 0.1 0 0.1 0 0 0 0 0h-0.1"/>
	<path id="Layer" class="s2" d="m6.7 9z"/>
	<path id="Layer" fill-rule="evenodd" class="s5" d="m6.7 9z"/>
	<path id="Layer" class="s6" d="m7.1 8.9q0 0 0 0 0 0 0 0 0 0 0 0 0 0 0 0z"/>
	<path id="Layer" fill-rule="evenodd" class="s5" d="m7.1 8.9q0 0 0 0 0 0 0 0 0 0 0 0 0 0 0 0z"/>
	<path id="Layer" class="s7" d="m7.2 9q0 0 0.1-0.1 0 0-0.1 0 0 0 0 0 0 0 0 0 0 0 0 0 0 0 0 0 0 0 0 0"/>
	<path id="Layer" fill-rule="evenodd" class="s5" d="m7.2 9q0 0 0.1-0.1 0 0-0.1 0 0 0 0 0 0 0 0 0 0 0 0 0 0 0 0 0 0 0 0 0"/>
	<path id="Layer" class="s2" d="m7.3 9"/>
	<path id="Layer" fill-rule="evenodd" class="s5" d="m7.3 9"/>
	<path id="Layer" class="s2" d="m7 9q-0.1 0-0.2 0 0 0 0 0 0.1 0 0.1 0 0 0 0.1 0 0 0 0 0 0.2 0 0.3 0-0.1 0-0.3 0z"/>
	<path id="Layer" fill-rule="evenodd" class="s3" d="m7 9q-0.1 0-0.2 0 0 0 0 0 0.1 0 0.1 0 0 0 0.1 0 0 0 0 0 0.2 0 0.3 0-0.1 0-0.3 0z"/>
	<path id="Layer" class="s4" d="m7.3 8.8q0 0 0 0 0 0 0 0 0 0 0 0 0 0 0 0z"/>
	<path id="Layer" fill-rule="evenodd" class="s5" d="m7.3 8.8q0 0 0 0 0 0 0 0 0 0 0 0 0 0 0 0z"/>
	<path id="Layer" class="s4" d="m7.1 8.8q0 0 0 0 0 0 0 0 0 0 0 0 0 0 0 0z"/>
	<path id="Layer" fill-rule="evenodd" class="s5" d="m7.1 8.8q0 0 0 0 0 0 0 0 0 0 0 0 0 0 0 0z"/>
	<path id="Layer" class="s4" d="m6.9 8.8q0 0 0 0 0 0 0 0 0 0 0 0z"/>
	<path id="Layer" fill-rule="evenodd" class="s5" d="m6.9 8.8q0 0 0 0 0 0 0 0 0 0 0 0z"/>
	<path id="Layer" class="s4" d="m6.7 8.8q0 0 0 0 0 0 0 0 0 0 0 0 0 0 0 0z"/>
	<path id="Layer" fill-rule="evenodd" class="s5" d="m6.7 8.8q0 0 0 0 0 0 0 0 0 0 0 0 0 0 0 0z"/>
	<path id="Layer" class="s4" d="m7 8.7v0.1l0.1-0.1h-0.1"/>
	<path id="Layer" fill-rule="evenodd" class="s5" d="m7 8.7v0.1l0.1-0.1h-0.1"/>
	<path id="Layer" class="s4" d="m6.9 8.8h0.1v-0.1z"/>
	<path id="Layer" fill-rule="evenodd" class="s5" d="m6.9 8.8h0.1v-0.1z"/>
	<path id="Layer" class="s4" d="m7.1 8.8h-0.1l0.1-0.1z"/>
	<path id="Layer" fill-rule="evenodd" class="s5" d="m7.1 8.8h-0.1l0.1-0.1z"/>
	<path id="Layer" class="s4" d="m6.8 8.7v0.1-0.1"/>
	<path id="Layer" fill-rule="evenodd" class="s5" d="m6.8 8.7v0.1-0.1"/>
	<path id="Layer" class="s4" d="m6.7 8.8h0.1-0.1z"/>
	<path id="Layer" fill-rule="evenodd" class="s5" d="m6.7 8.8h0.1-0.1z"/>
	<path id="Layer" class="s4" d="m6.9 8.8h-0.1 0.1z"/>
	<path id="Layer" fill-rule="evenodd" class="s5" d="m6.9 8.8h-0.1 0.1z"/>
	<path id="Layer" class="s4" d="m6.7 8.8h-0.1 0.1z"/>
	<path id="Layer" fill-rule="evenodd" class="s5" d="m6.7 8.8h-0.1 0.1z"/>
	<path id="Layer" class="s4" d="m6.8 8.8q0 0 0 0 0 0 0 0 0 0 0 0 0 0 0 0 0 0 0 0 0 0 0 0 0 0 0 0 0 0 0 0 0 0 0 0 0 0 0 0"/>
	<path id="Layer" fill-rule="evenodd" class="s5" d="m6.8 8.8q0 0 0 0 0 0 0 0 0 0 0 0 0 0 0 0 0 0 0 0 0 0 0 0 0 0 0 0 0 0 0 0 0 0 0 0 0 0 0 0z"/>
	<path id="Layer" class="s4" d="m7.2 8.7h0.1l-0.1 0.1v-0.1"/>
	<path id="Layer" fill-rule="evenodd" class="s5" d="m7.2 8.7h0.1l-0.1 0.1v-0.1"/>
	<path id="Layer" class="s4" d="m7.3 8.8h-0.1 0.1z"/>
	<path id="Layer" fill-rule="evenodd" class="s5" d="m7.3 8.8h-0.1 0.1z"/>
	<path id="Layer" class="s4" d="m7.1 8.8h0.1z"/>
	<path id="Layer" fill-rule="evenodd" class="s5" d="m7.1 8.8h0.1z"/>
	<path id="Layer" class="s4" d="m7.3 8.8h0.1z"/>
	<path id="Layer" fill-rule="evenodd" class="s5" d="m7.3 8.8h0.1z"/>
	<path id="Layer" class="s4" d="m7 8.8q0 0 0 0 0 0 0 0 0 0 0 0 0-0.1 0-0.1 0 0.1 0 0.1 0 0 0 0 0 0 0 0 0 0 0 0 0 0 0 0 0 0 0 0 0 0 0 0 0 0 0 0 0 0 0 0"/>
	<path id="Layer" fill-rule="evenodd" class="s5" d="m7 8.8q0 0 0 0 0 0 0 0 0 0 0 0 0-0.1 0-0.1 0 0.1 0 0.1 0 0 0 0 0 0 0 0 0 0 0 0 0 0 0 0 0 0 0 0 0 0 0 0 0 0 0 0 0 0 0 0z"/>
	<path id="Layer" class="s4" d="m7.2 8.8q0 0 0 0 0 0 0 0 0 0 0 0 0 0 0 0 0 0 0 0 0 0 0 0 0 0 0 0 0 0 0 0 0 0 0 0 0 0 0 0 0 0 0 0 0 0 0 0 0 0 0 0 0 0 0 0 0 0 0 0 0 0 0 0"/>
	<path id="Layer" fill-rule="evenodd" class="s5" d="m7.2 8.8q0 0 0 0 0 0 0 0 0 0 0 0 0 0 0 0 0 0 0 0 0 0 0 0 0 0 0 0 0 0 0 0 0 0 0 0 0 0 0 0 0 0 0 0 0 0 0 0 0 0 0 0 0 0 0 0 0 0 0 0 0 0 0 0z"/>
	<path id="Layer" class="s4" d="m6.6 8.8q0 0 0 0 0 0 0 0"/>
	<path id="Layer" fill-rule="evenodd" class="s5" d="m6.6 8.8q0 0 0 0 0 0 0 0z"/>
	<path id="Layer" class="s4" d="m6.6 8.8q0 0 0 0.1 0 0 0 0 0-0.1 0-0.1"/>
	<path id="Layer" fill-rule="evenodd" class="s5" d="m6.6 8.8q0 0 0 0.1 0 0 0 0 0-0.1 0-0.1z"/>
	<path id="Layer" class="s4" d="m7.4 8.8h0.1q0 0-0.1 0 0 0 0 0 0 0 0 0 0 0 0 0 0 0 0 0 0 0 0 0z"/>
	<path id="Layer" fill-rule="evenodd" class="s5" d="m7.4 8.8h0.1q0 0-0.1 0 0 0 0 0 0 0 0 0 0 0 0 0 0 0 0 0 0 0 0 0z"/>
	<path id="Layer" class="s4" d="m7.4 8.8q0 0 0 0.1 0-0.1 0-0.1"/>
	<path id="Layer" fill-rule="evenodd" class="s5" d="m7.4 8.8q0 0 0 0.1 0-0.1 0-0.1z"/>
	<path id="Layer" class="s4" d="m6.6 9.1h0.9v0.2h-0.9z"/>
	<path id="Layer" fill-rule="evenodd" class="s5" d="m6.6 9.1h0.9v0.2h-0.9z"/>
	<path id="Layer" class="s4" d="m6.7 9.5v-0.1h0.7q-0.1 0-0.1 0 0 0 0.1-0.1 0 0 0 0 0 0 0 0 0 0 0 0 0 0-0.1 0h-0.6q0 0 0 0 0 0 0 0 0 0 0 0 0 0 0 0 0 0.1 0 0.1 0 0 0 0"/>
	<path id="Layer" fill-rule="evenodd" class="s3" d="m6.7 9.5v-0.1h0.7q-0.1 0-0.1 0 0 0 0.1-0.1 0 0 0 0 0 0 0 0 0 0 0 0 0 0-0.1 0h-0.6q0 0 0 0 0 0 0 0 0 0 0 0 0 0 0 0 0 0.1 0 0.1 0 0 0 0z"/>
	<path id="Layer" class="s4" d="m6.7 9.4h0.7q0 0.1 0 0.1 0 0 0 0h-0.7q-0.1 0-0.1 0 0 0 0.1-0.1"/>
	<path id="Layer" fill-rule="evenodd" class="s5" d="m6.7 9.4h0.7q0 0.1 0 0.1 0 0 0 0h-0.7q-0.1 0-0.1 0 0 0 0.1-0.1z"/>
	<path id="Layer" class="s4" d="m6.7 9.3h0.7q0 0 0 0 0 0 0 0h-0.7q-0.1 0-0.1 0 0 0 0.1 0"/>
	<path id="Layer" fill-rule="evenodd" class="s5" d="m6.7 9.3h0.7q0 0 0 0 0 0 0 0h-0.7q-0.1 0-0.1 0 0 0 0.1 0z"/>
	<path id="Layer" class="s8" d="m7.6 13.2q0 0 0 0 0 0 0 0-0.1 0-0.1 0 0 0 0 0 0 0-0.1 0 0 0 0 0 0 0 0 0-0.1 0-0.1 0-0.1 0-0.1 0 0 0-0.1 0 0 0 0 0 0 0 0 0-0.1 0-0.1 0 0 0 0 0 0 0-0.1 0 0 0 0 0 0 0 0 0-0.1 0-0.1 0 0 0 0 0 0 0-0.1 0 0 0 0 0 0 0 0 0-0.1 0-0.1 0 0 0 0 0 0 0 0 0-0.1 0-0.2 0v0.1q0 0 0 0 0.1 0 0.1 0 0 0 0 0 0 0 0.1 0 0 0 0 0 0 0 0 0 0 0 0.1 0 0 0 0 0 0 0 0 0 0.1 0 0.1 0 0 0 0 0 0 0 0.1 0 0 0 0 0 0 0 0 0 0.1 0 0.1 0 0 0 0 0 0 0 0.1 0 0 0 0 0 0 0 0 0 0.1 0 0.1 0 0 0 0 0 0 0 0 0 0.1 0 0.1 0 0 0 0 0 0.1 0 0.2 0 0 0 0 0 0 0 0.1 0 0 0 0 0 0 0 0 0z"/>
	<path id="Layer" fill-rule="evenodd" class="s5" d="m7.6 13.2q0 0 0 0 0 0 0 0-0.1 0-0.1 0 0 0 0 0 0 0-0.1 0 0 0 0 0 0 0 0 0-0.1 0-0.1 0-0.1 0-0.1 0 0 0-0.1 0 0 0 0 0 0 0 0 0-0.1 0-0.1 0 0 0 0 0 0 0-0.1 0 0 0 0 0 0 0 0 0-0.1 0-0.1 0 0 0 0 0 0 0-0.1 0 0 0 0 0 0 0 0 0-0.1 0-0.1 0 0 0 0 0 0 0 0 0-0.1 0-0.2 0v0.1q0 0 0 0 0.1 0 0.1 0 0 0 0 0 0 0 0.1 0 0 0 0 0 0 0 0 0 0 0 0.1 0 0 0 0 0 0 0 0 0 0.1 0 0.1 0 0 0 0 0 0 0 0.1 0 0 0 0 0 0 0 0 0 0.1 0 0.1 0 0 0 0 0 0 0 0.1 0 0 0 0 0 0 0 0 0 0.1 0 0.1 0 0 0 0 0 0 0 0 0 0.1 0 0.1 0 0 0 0 0 0.1 0 0.2 0 0 0 0 0 0 0 0.1 0 0 0 0 0 0 0 0 0z"/>
	<path id="Layer" class="s9" d="m7.6 13.3q0 0 0 0 0 0 0 0-0.1 0-0.1 0 0 0 0 0 0 0-0.1 0 0 0 0 0 0 0 0 0-0.1 0-0.1 0-0.1 0-0.1 0 0 0-0.1 0 0 0 0 0 0 0 0 0-0.1 0-0.1 0 0 0 0 0 0 0-0.1 0 0 0 0 0 0 0 0 0-0.1 0-0.1 0 0 0 0 0 0 0-0.1 0 0 0 0 0-0.1 0-0.1 0-0.1 0-0.1 0 0 0 0 0 0 0-0.1 0 0 0 0 0v0.1q0 0 0 0 0.1 0 0.1 0 0 0 0 0 0 0 0.1 0 0 0 0 0 0 0 0 0 0 0 0.1 0 0 0 0 0 0 0 0 0 0.1 0 0.1 0 0 0 0 0 0 0 0.1 0 0 0 0 0 0 0 0 0 0.1 0 0.1 0 0 0 0 0 0 0 0.1 0 0 0 0 0 0 0 0 0 0.1 0 0.1 0 0 0 0 0 0 0 0 0 0.1 0 0.1 0 0 0 0 0 0 0 0.1 0 0 0 0 0 0 0 0 0 0.1 0 0.1 0 0 0 0 0 0 0 0.1 0 0 0 0 0 0 0 0 0z"/>
	<path id="Layer" fill-rule="evenodd" class="s5" d="m7.6 13.3q0 0 0 0 0 0 0 0-0.1 0-0.1 0 0 0 0 0 0 0-0.1 0 0 0 0 0 0 0 0 0-0.1 0-0.1 0-0.1 0-0.1 0 0 0-0.1 0 0 0 0 0 0 0 0 0-0.1 0-0.1 0 0 0 0 0 0 0-0.1 0 0 0 0 0 0 0 0 0-0.1 0-0.1 0 0 0 0 0 0 0-0.1 0 0 0 0 0-0.1 0-0.1 0-0.1 0-0.1 0 0 0 0 0 0 0-0.1 0 0 0 0 0v0.1q0 0 0 0 0.1 0 0.1 0 0 0 0 0 0 0 0.1 0 0 0 0 0 0 0 0 0 0 0 0.1 0 0 0 0 0 0 0 0 0 0.1 0 0.1 0 0 0 0 0 0 0 0.1 0 0 0 0 0 0 0 0 0 0.1 0 0.1 0 0 0 0 0 0 0 0.1 0 0 0 0 0 0 0 0 0 0.1 0 0.1 0 0 0 0 0 0 0 0 0 0.1 0 0.1 0 0 0 0 0 0 0 0.1 0 0 0 0 0 0 0 0 0 0.1 0 0.1 0 0 0 0 0 0 0 0.1 0 0 0 0 0 0 0 0 0z"/>
	<path id="Layer" class="s8" d="m7.6 13.4q0 0 0 0 0 0 0 0-0.1 0-0.1 0 0 0 0 0 0 0-0.1 0 0 0 0 0 0 0 0 0-0.1 0-0.1 0 0 0 0 0 0 0-0.1 0 0 0 0 0 0 0 0 0 0 0-0.1 0 0 0 0 0 0 0 0 0-0.1 0-0.1 0 0 0 0 0 0 0-0.1 0 0 0 0 0 0 0 0 0-0.1 0-0.1 0 0 0 0 0 0 0-0.1 0 0 0 0 0 0 0 0 0-0.1 0-0.1 0 0 0 0 0 0 0 0 0-0.1 0-0.1 0 0 0 0 0 0 0-0.1 0 0 0 0 0v0.1q0.1 0 0.2 0 0 0 0 0 0 0 0 0 0 0 0.1 0 0-0.1 0-0.1 0 0 0 0.1 0.1 0 0.1 0 0 0 0 0 0 0 0.1 0 0 0 0 0 0.1 0 0.1 0 0.1 0 0.1 0 0 0 0.1 0 0 0 0 0 0 0 0 0 0.1 0 0.1 0 0-0.1 0-0.1 0.1 0.1 0.2 0.1 0 0 0.1 0v-0.1"/>
	<path id="Layer" fill-rule="evenodd" class="s5" d="m7.6 13.4q0 0 0 0 0 0 0 0-0.1 0-0.1 0 0 0 0 0 0 0-0.1 0 0 0 0 0 0 0 0 0-0.1 0-0.1 0 0 0 0 0 0 0-0.1 0 0 0 0 0 0 0 0 0 0 0-0.1 0 0 0 0 0 0 0 0 0-0.1 0-0.1 0 0 0 0 0 0 0-0.1 0 0 0 0 0 0 0 0 0-0.1 0-0.1 0 0 0 0 0 0 0-0.1 0 0 0 0 0 0 0 0 0-0.1 0-0.1 0 0 0 0 0 0 0 0 0-0.1 0-0.1 0 0 0 0 0 0 0-0.1 0 0 0 0 0v0.1q0.1 0 0.2 0 0 0 0 0 0 0 0 0 0 0 0.1 0 0-0.1 0-0.1 0 0 0 0.1 0.1 0 0.1 0 0 0 0 0 0 0 0.1 0 0 0 0 0 0.1 0 0.1 0 0.1 0 0.1 0 0 0 0.1 0 0 0 0 0 0 0 0 0 0.1 0 0.1 0 0-0.1 0-0.1 0.1 0.1 0.2 0.1 0 0 0.1 0v-0.1"/>
	<path id="Layer" class="s9" d="m7.6 13.6q0 0 0 0 0 0 0 0-0.1 0-0.1 0 0 0 0 0 0 0-0.1 0 0 0 0 0 0-0.1 0-0.1-0.1 0-0.1 0 0 0 0 0 0 0-0.1 0.1 0 0 0 0 0 0 0 0 0 0-0.1 0 0 0 0 0 0 0 0 0-0.1 0-0.1 0 0 0 0 0 0 0-0.1 0 0 0 0 0 0 0 0 0-0.1 0-0.1 0 0 0 0 0 0-0.1-0.1-0.1 0 0 0 0 0 0 0 0-0.1 0.1-0.1 0.1 0 0 0 0 0 0 0 0-0.1 0-0.1 0 0 0 0 0 0 0-0.1 0 0 0 0 0v-0.1q0 0 0 0 0.1 0 0.1 0 0 0 0 0 0 0 0.1 0 0 0 0 0 0 0 0 0 0 0 0.1 0 0-0.1 0-0.1 0 0 0 0.1 0.1 0 0.1 0 0 0 0 0 0 0 0.1 0 0 0 0.1 0 0 0 0.1 0 0 0 0 0 0 0 0 0 0.1 0 0.1 0 0 0 0 0 0 0 0 0 0.1 0 0.1 0 0-0.1 0-0.1 0 0 0.1 0.1 0 0 0 0 0 0 0 0 0.1 0 0.1 0 0 0 0.1 0z"/>
	<path id="Layer" fill-rule="evenodd" class="s5" d="m7.6 13.6q0 0 0 0 0 0 0 0-0.1 0-0.1 0 0 0 0 0 0 0-0.1 0 0 0 0 0 0-0.1 0-0.1-0.1 0-0.1 0 0 0 0 0 0 0-0.1 0.1 0 0 0 0 0 0 0 0 0 0-0.1 0 0 0 0 0 0 0 0 0-0.1 0-0.1 0 0 0 0 0 0 0-0.1 0 0 0 0 0 0 0 0 0-0.1 0-0.1 0 0 0 0 0 0-0.1-0.1-0.1 0 0 0 0 0 0 0 0-0.1 0.1-0.1 0.1 0 0 0 0 0 0 0 0-0.1 0-0.1 0 0 0 0 0 0 0-0.1 0 0 0 0 0v-0.1q0 0 0 0 0.1 0 0.1 0 0 0 0 0 0 0 0.1 0 0 0 0 0 0 0 0 0 0 0 0.1 0 0-0.1 0-0.1 0 0 0 0.1 0.1 0 0.1 0 0 0 0 0 0 0 0.1 0 0 0 0.1 0 0 0 0.1 0 0 0 0 0 0 0 0 0 0.1 0 0.1 0 0 0 0 0 0 0 0 0 0.1 0 0.1 0 0-0.1 0-0.1 0 0 0.1 0.1 0 0 0 0 0 0 0 0 0.1 0 0.1 0 0 0 0.1 0z"/>
	<path id="Layer" class="s8" d="m7.6 13.7q0 0 0 0 0 0 0 0-0.1 0-0.1 0 0 0 0 0 0 0-0.1 0 0 0 0-0.1 0 0 0 0-0.1 0-0.1 0 0 0 0 0 0 0-0.1 0 0 0.1 0 0.1 0 0 0 0 0 0-0.1 0 0 0 0 0 0 0 0 0-0.1 0-0.1 0 0 0 0 0 0 0-0.1 0 0 0 0 0 0 0 0 0-0.1 0-0.1 0 0 0 0-0.1 0 0-0.1 0 0 0 0 0 0 0 0 0-0.1 0-0.1 0 0 0.1 0 0.1 0 0 0 0-0.1 0-0.2 0v-0.1q0.1 0 0.2 0 0 0 0 0 0 0 0 0 0-0.1 0.1-0.1 0 0 0 0 0 0 0 0 0.1 0.1 0.1 0.1 0 0 0 0 0 0 0.1 0 0 0 0 0 0 0 0 0 0.1 0 0.1 0 0 0 0 0 0 0 0.1 0 0 0 0 0 0 0 0 0 0.1 0 0.1 0 0 0 0 0 0 0 0 0 0.1-0.1 0.1-0.1 0 0 0 0 0 0 0.1 0 0 0 0 0.1 0 0 0 0 0.1 0 0.1 0 0 0 0 0 0 0 0.1 0 0 0 0 0 0 0 0 0z"/>
	<path id="Layer" fill-rule="evenodd" class="s5" d="m7.6 13.7q0 0 0 0 0 0 0 0-0.1 0-0.1 0 0 0 0 0 0 0-0.1 0 0 0 0-0.1 0 0 0 0-0.1 0-0.1 0 0 0 0 0 0 0-0.1 0 0 0.1 0 0.1 0 0 0 0 0 0-0.1 0 0 0 0 0 0 0 0 0-0.1 0-0.1 0 0 0 0 0 0 0-0.1 0 0 0 0 0 0 0 0 0-0.1 0-0.1 0 0 0 0-0.1 0 0-0.1 0 0 0 0 0 0 0 0 0-0.1 0-0.1 0 0 0.1 0 0.1 0 0 0 0-0.1 0-0.2 0v-0.1q0.1 0 0.2 0 0 0 0 0 0 0 0 0 0-0.1 0.1-0.1 0 0 0 0 0 0 0 0 0.1 0.1 0.1 0.1 0 0 0 0 0 0 0.1 0 0 0 0 0 0 0 0 0 0.1 0 0.1 0 0 0 0 0 0 0 0.1 0 0 0 0 0 0 0 0 0 0.1 0 0.1 0 0 0 0 0 0 0 0 0 0.1-0.1 0.1-0.1 0 0 0 0 0 0 0.1 0 0 0 0 0.1 0 0 0 0 0.1 0 0.1 0 0 0 0 0 0 0 0.1 0 0 0 0 0 0 0 0 0z"/>
	<path id="Layer" class="s4" d="m6.7 12.8v0.1q0 0.1-0.1 0.1h0.9q-0.1 0-0.1-0.1v-0.1q0 0 0 0 0 0 0 0 0 0 0 0 0 0-0.1 0z"/>
	<path id="Layer" fill-rule="evenodd" class="s3" d="m6.7 12.8v0.1q0 0.1-0.1 0.1h0.9q-0.1 0-0.1-0.1v-0.1q0 0 0 0 0 0 0 0 0 0 0 0 0 0-0.1 0z"/>
	<path id="Layer" class="s4" d="m6.7 12.8h0.7q0 0 0 0 0 0 0 0h-0.7q-0.1 0-0.1 0 0 0 0.1 0"/>
	<path id="Layer" fill-rule="evenodd" class="s5" d="m6.7 12.8h0.7q0 0 0 0 0 0 0 0h-0.7q-0.1 0-0.1 0 0 0 0.1 0z"/>
	<path id="Layer" class="s4" d="m6.6 13h0.9v0.2h-0.9z"/>
	<path id="Layer" fill-rule="evenodd" class="s5" d="m6.6 13h0.9v0.2h-0.9z"/>
	<path id="Layer" class="s2" d="m6.5 11.9q-0.2 0.1-0.2 0.2 0.1 0 0.1 0c0.1 0.1 0.1 0.2 0.1 0.2q0 0 0.1-0.1 0 0 0-0.1 0 0 0-0.1-0.1 0-0.1-0.1"/>
	<path id="Layer" fill-rule="evenodd" class="s5" d="m6.5 11.9q-0.2 0.1-0.2 0.2 0.1 0 0.1 0c0.1 0.1 0.1 0.2 0.1 0.2q0 0 0.1-0.1 0 0 0-0.1 0 0 0-0.1-0.1 0-0.1-0.1z"/>
	<path id="Layer" class="s9" d="m6.7 9.5h0.6v3.2h-0.6z"/>
	<path id="Layer" fill-rule="evenodd" class="s5" d="m6.7 9.6h0.6v3.1h-0.6zm0.5 0v3.2m0-3.2v3.2"/>
	<path id="Layer" class="s2" d="m8 10.7q-0.1 0-0.2 0 0 0-0.1 0-0.1-0.1-0.2-0.1-0.1 0-0.2 0 0 0 0 0-0.1 0-0.1 0-0.1 0-0.1 0 0 0-0.1 0.1c-0.4 0-0.7 0.2-0.6 0.3l-0.2-0.3c0-0.2 0.3-0.3 0.8-0.4q0 0 0.1 0 0 0 0.1 0 0 0 0 0 0.1 0 0.1 0c0.3 0 0.6 0 0.7 0v0.4"/>
	<path id="Layer" fill-rule="evenodd" class="s3" d="m8 10.7q-0.1 0-0.2 0 0 0-0.1 0-0.1-0.1-0.2-0.1-0.1 0-0.2 0 0 0 0 0-0.1 0-0.1 0-0.1 0-0.1 0 0 0-0.1 0.1c-0.4 0-0.7 0.2-0.6 0.3l-0.2-0.3c0-0.2 0.3-0.3 0.8-0.4q0 0 0.1 0 0 0 0.1 0 0 0 0 0 0.1 0 0.1 0c0.3 0 0.6 0 0.7 0v0.4"/>
	<path id="Layer" class="s2" d="m6.7 11.1q-0.3 0-0.3-0.1 0-0.1 0.1-0.2 0.1 0 0.2 0v0.3"/>
	<path id="Layer" fill-rule="evenodd" class="s5" d="m6.7 11.1q-0.3 0-0.3-0.1 0-0.1 0.1-0.2 0.1 0 0.2 0v0.3"/>
	<path id="Layer" class="s2" d="m7.3 10.9q0.2 0 0.3 0.1c0 0-0.1 0.1-0.3 0.2v-0.3"/>
	<path id="Layer" fill-rule="evenodd" class="s5" d="m7.3 10.9q0.2 0 0.3 0.1c0 0-0.1 0.1-0.3 0.2v-0.3"/>
	<path id="Layer" class="s2" d="m6.3 11.8c0-0.1 0.1-0.2 0.4-0.3q0.2 0 0.3-0.1c0.4-0.2 0.6-0.4 0.6-0.4 0 0 0 0.3 0 0.3 0.1 0.1-0.2 0.2-0.5 0.4-0.1 0-0.3 0.1-0.4 0.2-0.2 0-0.4 0.1-0.4 0.2z"/>
	<path id="Layer" fill-rule="evenodd" class="s3" d="m6.3 11.8c0-0.1 0.1-0.2 0.4-0.3q0.2 0 0.3-0.1c0.4-0.2 0.6-0.4 0.6-0.4 0 0 0 0.3 0 0.3 0.1 0.1-0.2 0.2-0.5 0.4-0.1 0-0.3 0.1-0.4 0.2-0.2 0-0.4 0.1-0.4 0.2z"/>
	<path id="Layer" fill-rule="evenodd" class="s4" d="m6.6 10.6l0.1 0.1h-0.1l-0.1-0.2 0.1-0.1q0.1 0 0.1 0.1 0.1 0-0.1 0.1zm0 0q0 0 0 0 0 0 0 0 0.1 0 0.1 0 0 0 0 0 0-0.1 0-0.1 0-0.1-0.1 0zm0.3 0h0.1-0.2v-0.2h0.1zm0.2 0l-0.1-0.3h0.1q0 0.1 0 0.2 0.1 0 0.1-0.1 0 0 0 0 0 0 0-0.1 0 0 0 0 0 0 0 0 0 0 0 0 0.1 0 0.1 0 0 0 0 0l-0.1 0.3zm0.3-0.2q0-0.1 0-0.1-0.1 0-0.1 0.1c0 0 0.2 0 0.2 0.1q-0.1 0.1-0.2 0.1 0 0 0 0 0-0.1 0-0.1 0 0 0 0 0 0 0 0 0 0 0 0 0 0 0 0.1 0.1 0 0.1-0.1c0 0-0.1 0-0.1-0.1q0-0.1 0.1-0.1 0 0 0 0 0 0 0 0 0 0 0 0 0.1 0 0.1 0l-0.1 0.1z"/>
	<path id="Layer" class="s2" d="m13 8.8c0 0 0 0-0.1 0.1q0-0.1 0-0.1 0 0-0.1 0.1c0 0 0-0.1 0-0.1q0 0-0.1 0.1 0 0 0 0 0 0 0 0h-0.1v-0.1q0-0.1 0.1-0.1 0 0 0 0 0 0 0.1 0 0 0 0 0 0 0 0 0 0 0 0.1 0 0 0 0 0 0 0 0 0 0 0 0.1 0 0 0 0 0 0 0 0 0 0 0 0 0 0.1 0 0.1 0 0 0 0 0 0.1 0 0.1 0 0 0 0.1 0 0 0 0 0 0 0 0 0 0 0 0 0 0.1 0 0.1 0.1l-0.1 0.1q0 0 0 0 0 0 0 0 0 0-0.1 0 0-0.1 0-0.1c0 0-0.1 0.1-0.1 0.1q0-0.1 0-0.1 0 0-0.1 0.1c0 0 0-0.1 0-0.1"/>
	<path id="Layer" fill-rule="evenodd" class="s5" d="m13 8.8c0 0 0 0-0.1 0.1q0-0.1 0-0.1 0 0-0.1 0.1c0 0 0-0.1 0-0.1q0 0-0.1 0.1 0 0 0 0 0 0 0 0h-0.1v-0.1q0-0.1 0.1-0.1 0 0 0 0 0 0 0.1 0 0 0 0 0 0 0 0 0 0 0 0.1 0 0 0 0 0 0 0 0 0 0 0 0.1 0 0 0 0 0 0 0 0 0 0 0 0 0 0.1 0 0.1 0 0 0 0 0 0.1 0 0.1 0 0 0 0.1 0 0 0 0 0 0 0 0 0 0 0 0 0 0.1 0 0.1 0.1l-0.1 0.1q0 0 0 0 0 0 0 0 0 0-0.1 0 0-0.1 0-0.1c0 0-0.1 0.1-0.1 0.1q0-0.1 0-0.1 0 0-0.1 0.1c0 0 0-0.1 0-0.1z"/>
	<path id="Layer" class="s4" d="m12.9 8.6q0 0 0.1 0 0 0 0 0 0 0.1 0 0.1-0.1 0-0.1-0.1"/>
	<path id="Layer" fill-rule="evenodd" class="s5" d="m12.9 8.6q0 0 0.1 0 0 0 0 0 0 0.1 0 0.1-0.1 0-0.1-0.1z"/>
	<path id="Layer" class="s4" d="m13 8.7q0 0 0-0.1 0 0 0 0 0 0 0 0 0 0.1 0 0.1z"/>
	<path id="Layer" fill-rule="evenodd" class="s5" d="m13 8.7q0 0 0-0.1 0 0 0 0 0 0 0 0 0 0.1 0 0.1z"/>
	<path id="Layer" class="s4" d="m12.7 9q0 0 0 0 0 0 0-0.1 0 0 0 0 0 0 0 0 0.1 0 0.3 0 0.2 0 0.3 0v0.1q-0.2 0-0.3 0-0.2 0-0.3 0"/>
	<path id="Layer" fill-rule="evenodd" class="s5" d="m12.7 9q0 0 0 0 0 0 0-0.1 0 0 0 0 0 0 0 0 0.1 0 0.3 0 0.2 0 0.3 0v0.1q-0.2 0-0.3 0-0.2 0-0.3 0"/>
	<path id="Layer" class="s4" d="m13 9.1c0.1 0 0.2 0 0.2-0.1q0.1 0 0.1 0 0 0 0 0-0.1 0-0.1 0 0 0-0.1 0 0 0-0.1 0 0 0 0 0-0.1 0-0.1 0 0 0-0.1 0 0 0 0 0-0.1 0-0.1 0 0 0 0 0 0 0 0 0c0.1 0.1 0.2 0.1 0.3 0.1z"/>
	<path id="Layer" fill-rule="evenodd" class="s5" d="m13 9.1c0.1 0 0.2 0 0.2-0.1q0.1 0 0.1 0 0 0 0 0-0.1 0-0.1 0 0 0-0.1 0 0 0-0.1 0 0 0 0 0-0.1 0-0.1 0 0 0-0.1 0 0 0 0 0-0.1 0-0.1 0 0 0 0 0 0 0 0 0c0.1 0.1 0.2 0.1 0.3 0.1z"/>
	<path id="Layer" class="s6" d="m13.2 8.7q0 0 0 0 0 0 0 0 0 0 0 0 0 0 0 0 0.1 0 0.1 0 0 0-0.1 0 0 0 0 0 0 0 0 0 0 0 0 0 0 0 0 0z"/>
	<path id="Layer" fill-rule="evenodd" class="s5" d="m13.2 8.7q0 0 0 0 0 0 0 0 0 0 0 0 0.1 0 0.1 0 0 0-0.1 0 0 0 0 0 0 0 0 0 0 0 0 0 0 0 0 0 0 0 0 0zm0-0.1q0 0 0 0 0 0 0 0 0 0 0 0 0 0 0 0 0 0 0 0 0 0 0 0 0 0 0 0 0 0 0 0 0 0 0 0 0 0 0 0zm0 0q0 0 0 0 0 0 0 0 0 0 0 0 0 0 0 0 0 0 0 0 0 0 0 0 0 0 0 0 0 0 0 0 0 0 0 0 0 0 0 0zm-0.1 0q0 0 0 0 0 0 0 0 0 0 0 0 0 0 0 0 0 0 0 0 0 0 0-0.1 0 0 0 0 0 0 0 0 0 0 0 0.1 0 0 0 0zm-0.1 0q0 0 0 0 0.1 0 0.1 0 0 0 0 0 0 0 0 0 0 0 0 0 0-0.1 0-0.1 0 0 0 0 0 0 0 0 0 0-0.1 0.1 0 0 0 0z"/>
	<path id="Layer" fill-rule="evenodd" class="s10" d="m13.4 8.8q0 0 0 0 0 0 0 0 0 0 0 0 0 0 0 0 0-0.1 0-0.1 0 0 0 0 0 0-0.1-0.1 0 0 0 0 0 0 0 0 0 0 0 0 0 0 0 0.1-0.1 0-0.1 0"/>
	<path id="Layer" fill-rule="evenodd" class="s5" d="m13.2 8.7q0-0.1-0.1-0.1 0 0-0.1 0"/>
	<path id="Layer" fill-rule="evenodd" class="s5" d="m13.4 8.7q0 0 0 0 0 0 0 0.1zm0-0.1q0 0 0 0.1 0 0 0 0 0 0 0 0 0-0.1 0-0.1zm0 0q0 0 0 0 0 0 0 0 0 0 0 0 0 0 0 0zm0-0.1q0 0 0 0 0 0 0 0 0 0 0 0 0 0 0 0 0 0 0 0 0 0.1 0 0.1 0 0 0 0 0 0 0 0 0-0.1 0-0.1 0 0 0 0zm-0.1 0q0 0 0 0 0 0 0 0 0 0 0 0 0 0 0 0 0 0 0 0 0 0 0 0 0 0 0 0 0 0 0 0 0 0 0 0 0 0 0 0zm0 0q0 0 0 0 0 0 0 0 0 0 0 0 0 0 0 0z"/>
	<path id="Layer" class="s4" d="m13.3 8.9q0 0-0.1 0c0 0 0-0.1 0-0.1 0 0 0 0.1-0.1 0.1q0-0.1 0-0.1 0 0-0.1 0.1c0 0 0-0.1 0-0.1 0 0 0 0.1-0.1 0.1q0-0.1 0-0.1 0 0-0.1 0.1 0 0 0-0.1 0 0-0.1 0.1 0 0 0 0 0.1 0 0.1 0 0.1 0 0.2 0 0.1 0 0.1 0 0.1 0 0.2 0z"/>
	<path id="Layer" fill-rule="evenodd" class="s5" d="m13.3 8.9q0 0-0.1 0c0 0 0-0.1 0-0.1 0 0 0 0.1-0.1 0.1q0-0.1 0-0.1 0 0-0.1 0.1c0 0 0-0.1 0-0.1 0 0 0 0.1-0.1 0.1q0-0.1 0-0.1 0 0-0.1 0.1 0 0 0-0.1 0 0-0.1 0.1 0 0 0 0 0.1 0 0.1 0 0.1 0 0.2 0 0.1 0 0.1 0 0.1 0 0.2 0z"/>
	<path id="Layer" class="s6" d="m12.7 8.7q0 0 0 0 0 0 0 0 0 0 0 0 0 0 0 0 0 0 0 0 0 0 0 0 0 0 0 0 0 0 0 0 0 0 0 0 0 0 0 0 0 0 0 0 0 0 0 0 0 0 0 0z"/>
	<path id="Layer" fill-rule="evenodd" class="s5" d="m12.7 8.7q0 0 0 0 0 0 0 0 0 0 0 0 0 0 0 0 0 0 0 0 0 0 0 0 0 0 0 0 0 0 0 0 0 0 0 0 0 0 0 0 0 0 0 0 0 0 0 0 0 0 0 0zm0-0.1q0 0 0 0 0 0 0 0 0 0 0 0 0 0 0 0 0 0 0 0 0 0 0 0 0 0 0.1 0 0 0 0 0 0 0 0 0 0 0-0.1 0 0 0 0 0 0 0 0 0 0 0 0 0 0 0 0 0 0 0 0 0 0 0 0 0zm0.1 0q0 0 0 0 0 0 0 0 0 0 0 0 0 0 0 0 0 0 0 0 0 0 0 0 0 0 0 0zm0 0q0 0 0 0 0.1 0 0.1 0 0 0-0.1 0 0 0 0 0zm0.1 0q0 0 0 0 0 0 0 0 0 0 0 0 0 0 0 0 0 0 0 0 0 0 0 0 0 0 0 0 0 0 0 0 0 0 0 0 0 0 0 0 0 0 0 0 0 0 0 0 0 0 0 0z"/>
	<path id="Layer" fill-rule="evenodd" class="s10" d="m12.6 8.8q0 0 0 0 0 0 0 0 0 0 0 0 0 0 0 0 0-0.1 0-0.1 0 0 0 0 0 0 0-0.1 0 0 0.1 0 0 0 0 0.1"/>
	<path id="Layer" fill-rule="evenodd" class="s5" d="m12.8 8.7q0-0.1 0.1-0.1 0 0 0 0"/>
	<path id="Layer" fill-rule="evenodd" class="s5" d="m12.5 8.7q0 0 0 0 0 0 0 0.1zm0-0.1q0 0 0.1 0.1 0 0-0.1 0 0 0 0 0 0 0 0 0 0 0 0 0 0 0 0 0 0-0.1 0-0.1zm0 0q0 0 0 0 0.1 0 0.1 0 0 0-0.1 0 0 0 0 0 0 0 0 0 0 0 0 0 0 0 0 0zm0.1-0.1q0 0 0 0 0 0 0 0 0 0 0 0 0 0 0 0 0 0 0 0 0 0 0 0 0 0 0 0.1 0 0 0 0 0 0 0 0 0 0 0 0 0 0 0 0 0-0.1 0-0.1 0 0 0 0zm0 0q0 0 0 0 0 0 0 0 0 0 0 0 0 0 0 0 0.1 0 0.1 0 0 0 0 0 0 0 0 0-0.1 0-0.1 0 0 0 0 0 0 0 0 0 0 0 0 0 0 0 0 0 0 0 0 0zm0.1 0q0 0 0 0 0 0 0 0 0 0 0 0 0 0 0 0 0 0 0 0 0 0 0 0 0 0 0 0z"/>
	<path id="Layer" class="s4" d="m13 8.8q0 0 0 0 0.1 0 0.1 0 0 0 0 0 0 0 0 0 0.1 0 0.1 0 0 0 0 0 0 0 0 0 0 0 0 0 0 0 0 0 0 0 0 0 0 0 0 0 0 0 0 0 0 0 0 0 0 0 0 0 0 0 0 0 0 0.1 0 0.1 0 0 0 0 0.1 0 0.1 0 0 0 0 0 0-0.1 0-0.1 0 0.1 0 0.1 0 0 0 0l0.1-0.1q0 0.1-0.1 0.1 0 0 0 0 0 0 0 0 0 0 0 0 0 0 0 0-0.1 0-0.1 0 0 0 0 0 0 0 0-0.1 0 0.1 0 0.1 0 0 0 0-0.1 0-0.1 0 0 0 0 0 0 0 0 0 0 0 0 0 0 0 0 0 0 0 0-0.1 0 0.1-0.1 0.1 0 0 0 0 0 0 0 0 0 0 0-0.1 0 0 0 0 0 0 0 0.1-0.1 0-0.1 0 0 0 0 0 0 0 0-0.1 0 0.1 0 0.1 0 0 0 0 0 0 0 0-0.1 0-0.1 0 0 0 0 0 0 0-0.1 0 0 0 0 0 0 0 0 0 0 0 0 0 0 0 0 0-0.1 0-0.1 0 0 0 0 0v-0.1 0.1q0.1 0 0.1 0 0 0 0-0.1 0 0.1 0 0.1 0.1 0 0.1-0.1 0 0 0 0 0 0 0 0 0 0 0 0 0 0 0 0 0 0 0 0 0.1 0 0.1 0 0 0 0 0 0 0 0 0 0.1 0 0.1 0 0 0 0 0 0 0 0 0"/>
	<path id="Layer" fill-rule="evenodd" class="s5" d="m13 8.8q0 0 0 0 0.1 0 0.1 0 0 0 0 0 0 0 0 0 0.1 0 0.1 0 0 0 0 0 0 0 0 0 0 0 0 0 0 0 0 0 0 0 0 0 0 0 0 0 0 0 0 0 0 0 0 0 0 0 0 0 0 0 0 0 0 0.1 0 0.1 0 0 0 0 0.1 0 0.1 0 0 0 0 0 0-0.1 0-0.1 0 0.1 0 0.1 0 0 0 0l0.1-0.1q0 0.1-0.1 0.1 0 0 0 0 0 0 0 0 0 0 0 0 0 0 0 0-0.1 0-0.1 0 0 0 0 0 0 0 0-0.1 0 0.1 0 0.1 0 0 0 0-0.1 0-0.1 0 0 0 0 0 0 0 0 0 0 0 0 0 0 0 0 0 0 0 0-0.1 0 0.1-0.1 0.1 0 0 0 0 0 0 0 0 0 0 0-0.1 0 0 0 0 0 0 0 0.1-0.1 0-0.1 0 0 0 0 0 0 0 0-0.1 0 0.1 0 0.1 0 0 0 0 0 0 0 0-0.1 0-0.1 0 0 0 0 0 0 0-0.1 0 0 0 0 0 0 0 0 0 0 0 0 0 0 0 0 0-0.1 0-0.1 0 0 0 0 0v-0.1 0.1q0.1 0 0.1 0 0 0 0-0.1 0 0.1 0 0.1 0.1 0 0.1-0.1 0 0 0 0 0 0 0 0 0 0 0 0 0 0 0 0 0 0 0 0 0.1 0 0.1 0 0 0 0 0 0 0 0 0 0.1 0 0.1 0 0 0 0 0 0 0 0 0z"/>
	<path id="Layer" class="s4" d="m13 8.9q-0.2 0-0.3 0 0.1 0 0.3 0 0.2 0 0.3 0 0 0 0 0 0 0 0 0-0.1 0-0.3 0"/>
	<path id="Layer" fill-rule="evenodd" class="s5" d="m13 8.9q-0.2 0-0.3 0 0.1 0 0.3 0 0.2 0 0.3 0 0 0 0 0 0 0 0 0-0.1 0-0.3 0z"/>
	<path id="Layer" class="s6" d="m12.9 8.9q0 0 0 0 0 0 0 0 0 0 0 0 0 0 0 0"/>
	<path id="Layer" fill-rule="evenodd" class="s5" d="m12.9 8.9q0 0 0 0 0 0 0 0 0 0 0 0 0 0 0 0z"/>
	<path id="Layer" class="s2" d="m13 8.9h-0.1q0 0 0 0 0 0 0 0h0.1q0 0 0 0 0 0 0 0 0 0 0 0 0 0 0 0 0 0 0 0z"/>
	<path id="Layer" fill-rule="evenodd" class="s5" d="m13 8.9h-0.1q0 0 0 0 0 0 0 0h0.1q0 0 0 0 0 0 0 0 0 0 0 0 0 0 0 0 0 0 0 0z"/>
	<path id="Layer" class="s7" d="m12.8 9q0 0 0 0 0 0 0 0-0.1 0-0.1-0.1 0 0 0 0 0 0 0 0 0 0 0 0 0.1 0 0.1 0 0 0 0 0 0 0 0 0 0 0 0 0"/>
	<path id="Layer" fill-rule="evenodd" class="s5" d="m12.8 9q0 0 0 0 0 0 0 0-0.1 0-0.1-0.1 0 0 0 0 0 0 0 0 0 0 0 0 0.1 0 0.1 0 0 0 0 0 0 0 0 0 0 0 0 0"/>
	<path id="Layer" class="s2" d="m12.7 9z"/>
	<path id="Layer" fill-rule="evenodd" class="s5" d="m12.7 9z"/>
	<path id="Layer" class="s6" d="m13.1 8.9q0 0 0 0 0 0 0 0 0 0 0 0 0 0 0 0z"/>
	<path id="Layer" fill-rule="evenodd" class="s5" d="m13.1 8.9q0 0 0 0 0 0 0 0 0 0 0 0 0 0 0 0z"/>
	<path id="Layer" class="s7" d="m13.2 9q0 0 0-0.1 0 0 0 0 0 0 0 0 0 0 0 0 0 0 0 0-0.1 0-0.1 0 0 0 0 0h0.1"/>
	<path id="Layer" fill-rule="evenodd" class="s5" d="m13.2 9q0 0 0-0.1 0 0 0 0 0 0 0 0 0 0 0 0 0 0 0 0-0.1 0-0.1 0 0 0 0 0h0.1"/>
	<path id="Layer" class="s2" d="m13.3 9h-0.1 0.1"/>
	<path id="Layer" fill-rule="evenodd" class="s5" d="m13.3 9h-0.1 0.1"/>
	<path id="Layer" class="s2" d="m13 9q-0.1 0-0.1 0 0 0 0 0-0.1 0-0.1 0 0 0-0.1 0 0.1 0 0.2 0 0 0 0.1 0 0 0 0.1 0 0.1 0 0.1 0 0 0 0 0-0.1 0-0.1 0 0 0-0.1 0 0 0 0 0z"/>
	<path id="Layer" fill-rule="evenodd" class="s3" d="m13 9q-0.1 0-0.1 0 0 0 0 0-0.1 0-0.1 0 0 0-0.1 0 0.1 0 0.2 0 0 0 0.1 0 0 0 0.1 0 0.1 0 0.1 0 0 0 0 0-0.1 0-0.1 0 0 0-0.1 0 0 0 0 0z"/>
	<path id="Layer" class="s4" d="m13.3 8.8q0 0 0 0 0 0 0 0z"/>
	<path id="Layer" fill-rule="evenodd" class="s5" d="m13.3 8.8q0 0 0 0 0 0 0 0z"/>
	<path id="Layer" class="s4" d="m13.1 8.8q0 0 0 0 0 0 0 0 0 0 0 0 0 0 0 0z"/>
	<path id="Layer" fill-rule="evenodd" class="s5" d="m13.1 8.8q0 0 0 0 0 0 0 0 0 0 0 0 0 0 0 0z"/>
	<path id="Layer" class="s4" d="m12.9 8.8q0 0 0 0 0 0 0 0 0 0 0 0 0 0 0 0z"/>
	<path id="Layer" fill-rule="evenodd" class="s5" d="m12.9 8.8q0 0 0 0 0 0 0 0 0 0 0 0 0 0 0 0z"/>
	<path id="Layer" class="s4" d="m12.7 8.8q0 0 0 0 0 0 0 0z"/>
	<path id="Layer" fill-rule="evenodd" class="s5" d="m12.7 8.8q0 0 0 0 0 0 0 0z"/>
	<path id="Layer" class="s4" d="m13 8.7h-0.1l0.1 0.1v-0.1z"/>
	<path id="Layer" fill-rule="evenodd" class="s5" d="m13 8.7h-0.1l0.1 0.1v-0.1z"/>
	<path id="Layer" class="s4" d="m12.9 8.8h0.1l-0.1-0.1z"/>
	<path id="Layer" fill-rule="evenodd" class="s5" d="m12.9 8.8h0.1l-0.1-0.1z"/>
	<path id="Layer" class="s4" d="m13.1 8.8h-0.1v-0.1z"/>
	<path id="Layer" fill-rule="evenodd" class="s5" d="m13.1 8.8h-0.1v-0.1z"/>
	<path id="Layer" class="s4" d="m12.8 8.7h-0.1l0.1 0.1v-0.1z"/>
	<path id="Layer" fill-rule="evenodd" class="s5" d="m12.8 8.7h-0.1l0.1 0.1v-0.1z"/>
	<path id="Layer" class="s4" d="m12.7 8.8h0.1-0.1z"/>
	<path id="Layer" fill-rule="evenodd" class="s5" d="m12.7 8.8h0.1-0.1z"/>
	<path id="Layer" class="s4" d="m12.9 8.8h-0.1z"/>
	<path id="Layer" fill-rule="evenodd" class="s5" d="m12.9 8.8h-0.1z"/>
	<path id="Layer" class="s4" d="m12.6 8.8z"/>
	<path id="Layer" fill-rule="evenodd" class="s5" d="m12.6 8.8z"/>
	<path id="Layer" class="s4" d="m12.8 8.8q0 0 0 0 0 0 0 0 0 0 0 0 0 0 0 0 0 0 0 0 0 0 0 0 0 0 0 0 0 0 0 0 0 0 0 0 0 0 0 0 0 0 0 0 0 0 0 0 0 0 0 0 0 0 0 0 0 0 0 0 0 0 0 0"/>
	<path id="Layer" fill-rule="evenodd" class="s5" d="m12.8 8.8q0 0 0 0 0 0 0 0 0 0 0 0 0 0 0 0 0 0 0 0 0 0 0 0 0 0 0 0 0 0 0 0 0 0 0 0 0 0 0 0 0 0 0 0 0 0 0 0 0 0 0 0 0 0 0 0 0 0 0 0 0 0 0 0z"/>
	<path id="Layer" class="s4" d="m13.2 8.7v0.1-0.1"/>
	<path id="Layer" fill-rule="evenodd" class="s5" d="m13.2 8.7v0.1-0.1"/>
	<path id="Layer" class="s4" d="m13.3 8.8h-0.1 0.1z"/>
	<path id="Layer" fill-rule="evenodd" class="s5" d="m13.3 8.8h-0.1 0.1z"/>
	<path id="Layer" class="s4" d="m13.1 8.8h0.1-0.1z"/>
	<path id="Layer" fill-rule="evenodd" class="s5" d="m13.1 8.8h0.1-0.1z"/>
	<path id="Layer" class="s4" d="m13.3 8.8h0.1-0.1z"/>
	<path id="Layer" fill-rule="evenodd" class="s5" d="m13.3 8.8h0.1-0.1z"/>
	<path id="Layer" class="s4" d="m13 8.8q0 0 0-0.1 0 0.1 0 0.1 0 0 0 0 0 0 0 0 0 0 0 0 0 0 0 0 0 0 0 0z"/>
	<path id="Layer" fill-rule="evenodd" class="s5" d="m13 8.8q0 0 0-0.1 0 0.1 0 0.1 0 0 0 0 0 0 0 0 0 0 0 0 0 0 0 0 0 0 0 0z"/>
	<path id="Layer" class="s4" d="m13.2 8.8q0 0 0 0 0 0 0 0 0 0 0 0 0 0 0 0 0 0 0 0 0 0 0 0 0 0 0 0 0 0 0 0 0 0 0 0 0 0 0 0"/>
	<path id="Layer" fill-rule="evenodd" class="s5" d="m13.2 8.8q0 0 0 0 0 0 0 0 0 0 0 0 0 0 0 0 0 0 0 0 0 0 0 0 0 0 0 0 0 0 0 0 0 0 0 0 0 0 0 0z"/>
	<path id="Layer" class="s4" d="m12.9 8.6q0-0.1 0.1-0.1 0 0 0 0.1 0 0 0 0 0 0 0 0 0 0 0 0 0 0-0.1 0 0 0 0 0z"/>
	<path id="Layer" class="s4" d="m13 8.5v0.1h-0.1v-0.1h0.1-0.1 0.1v-0.1 0.1z"/>
	<path id="Layer" fill-rule="evenodd" class="s5" d="m13 8.5v0.1h-0.1v-0.1h0.1-0.1 0.1v-0.1 0.1z"/>
	<path id="Layer" class="s4" d="m13 8.5v0.1h-0.1v-0.1h0.1-0.1 0.1v-0.1 0.1"/>
	<path id="Layer" fill-rule="evenodd" class="s5" d="m13 8.5q0 0 0 0 0 0 0 0 0 0 0 0 0 0.1 0 0.1 0 0 0 0 0 0 0 0 0 0 0 0 0 0-0.1 0 0 0 0 0 0-0.1 0.1-0.1"/>
	<path id="Layer" class="s4" d="m12.6 8.8h-0.1q0 0 0 0h0.1q0 0 0 0 0 0 0 0z"/>
	<path id="Layer" fill-rule="evenodd" class="s5" d="m12.6 8.8h-0.1q0 0 0 0h0.1q0 0 0 0 0 0 0 0z"/>
	<path id="Layer" class="s4" d="m12.6 8.8q0 0 0 0.1 0-0.1 0-0.1"/>
	<path id="Layer" fill-rule="evenodd" class="s5" d="m12.6 8.8q0 0 0 0.1 0-0.1 0-0.1z"/>
	<path id="Layer" class="s4" d="m13.4 8.8q0 0 0 0 0 0 0 0 0 0 0 0 0 0 0 0 0 0 0 0 0 0 0 0z"/>
	<path id="Layer" fill-rule="evenodd" class="s5" d="m13.4 8.8q0 0 0 0 0 0 0 0 0 0 0 0 0 0 0 0 0 0 0 0 0 0 0 0z"/>
	<path id="Layer" class="s4" d="m13.4 8.8q0 0 0 0.1 0 0 0 0 0-0.1 0-0.1"/>
	<path id="Layer" fill-rule="evenodd" class="s5" d="m13.4 8.8q0 0 0 0.1 0 0 0 0 0-0.1 0-0.1z"/>
	<path id="Layer" class="s4" d="m12.5 9.3h0.9v-0.2h-0.9v0.2z"/>
	<path id="Layer" fill-rule="evenodd" class="s5" d="m12.5 9.3h0.9v-0.2h-0.9v0.2z"/>
	<path id="Layer" class="s4" d="m13.3 9.5q0 0 0 0 0 0 0 0 0-0.1 0-0.1 0 0 0 0h-0.7q0.1 0 0.1 0 0 0-0.1-0.1h0.7q0 0.1 0 0.1 0 0 0 0"/>
	<path id="Layer" fill-rule="evenodd" class="s3" d="m13.3 9.5q0 0 0 0 0 0 0 0 0-0.1 0-0.1 0 0 0 0h-0.7q0.1 0 0.1 0 0 0-0.1-0.1h0.7q0 0.1 0 0.1 0 0 0 0z"/>
	<path id="Layer" class="s4" d="m12.7 9.4h0.6q0.1 0.1 0.1 0.1 0 0-0.1 0h-0.6q-0.1 0-0.1 0 0 0 0.1-0.1z"/>
	<path id="Layer" fill-rule="evenodd" class="s5" d="m12.7 9.4h0.6q0.1 0.1 0.1 0.1 0 0-0.1 0h-0.6q-0.1 0-0.1 0 0 0 0.1-0.1z"/>
	<path id="Layer" class="s4" d="m12.7 9.3h0.6q0.1 0 0.1 0 0 0-0.1 0h-0.6q-0.1 0-0.1 0 0 0 0 0"/>
	<path id="Layer" fill-rule="evenodd" class="s5" d="m12.7 9.3h0.6q0.1 0 0.1 0 0 0-0.1 0h-0.6q-0.1 0-0.1 0 0 0 0 0z"/>
	<path id="Layer" class="s8" d="m12.4 13.2q0.1 0 0.1 0 0 0 0.1 0 0 0 0 0 0 0 0 0 0.1 0 0.1 0 0.1 0 0.1 0 0.1 0 0.2 0 0 0 0 0 0 0 0.1 0 0 0 0 0 0 0 0 0 0.1 0 0.1 0 0 0 0 0 0 0 0.1 0 0 0 0 0 0.1 0 0.1 0 0.1 0 0.2 0v0.1q0 0 0 0-0.1 0-0.1 0 0 0 0 0 0 0-0.1 0 0 0 0 0 0 0 0 0 0 0-0.1 0 0 0 0 0-0.1 0-0.2 0 0 0 0 0 0 0 0 0-0.1 0-0.1 0 0 0 0 0 0 0-0.1 0 0 0 0 0 0 0 0 0-0.1 0-0.1 0 0 0 0 0 0 0 0 0-0.1 0-0.1 0 0 0 0 0-0.1 0-0.2 0 0 0 0 0 0 0-0.1 0 0 0 0 0 0 0 0 0z"/>
	<path id="Layer" fill-rule="evenodd" class="s5" d="m12.4 13.2q0.1 0 0.1 0 0 0 0.1 0 0 0 0 0 0 0 0 0 0.1 0 0.1 0 0.1 0 0.1 0 0.1 0 0.2 0 0 0 0 0 0 0 0.1 0 0 0 0 0 0 0 0 0 0.1 0 0.1 0 0 0 0 0 0 0 0.1 0 0 0 0 0 0.1 0 0.1 0 0.1 0 0.2 0v0.1q0 0 0 0-0.1 0-0.1 0 0 0 0 0 0 0-0.1 0 0 0 0 0 0 0 0 0 0 0-0.1 0 0 0 0 0-0.1 0-0.2 0 0 0 0 0 0 0 0 0-0.1 0-0.1 0 0 0 0 0 0 0-0.1 0 0 0 0 0 0 0 0 0-0.1 0-0.1 0 0 0 0 0 0 0 0 0-0.1 0-0.1 0 0 0 0 0-0.1 0-0.2 0 0 0 0 0 0 0-0.1 0 0 0 0 0 0 0 0 0z"/>
	<path id="Layer" class="s9" d="m12.4 13.3q0 0 0 0 0 0 0 0 0.1 0 0.1 0 0 0 0 0 0 0 0.1 0 0 0 0 0 0 0 0 0 0.1 0 0.1 0 0.1 0 0.1 0 0 0 0.1 0 0 0 0 0 0 0 0 0 0.1 0 0.1 0 0.1 0 0.1 0 0.1 0 0.1 0 0 0 0 0 0 0 0.1 0 0 0 0 0 0 0 0 0 0.1 0 0.1 0 0 0 0 0 0 0 0 0 0.1 0 0.1 0 0 0 0 0 0 0 0.1 0 0 0 0 0v0.1q0 0 0 0-0.1 0-0.1 0 0 0 0 0 0 0-0.1 0 0 0 0 0 0 0 0 0 0 0-0.1 0 0 0 0 0-0.1 0-0.2 0 0 0 0 0 0 0 0 0-0.1 0-0.1 0 0 0 0 0 0 0-0.1 0 0 0 0 0 0 0 0 0-0.1 0-0.1 0 0 0 0 0 0 0 0 0-0.1 0-0.1 0 0 0 0 0 0 0-0.1 0 0 0 0 0 0 0 0 0-0.1 0-0.1 0 0 0 0 0 0 0-0.1 0 0 0 0 0 0 0 0 0z"/>
	<path id="Layer" fill-rule="evenodd" class="s5" d="m12.4 13.3q0 0 0 0 0 0 0 0 0.1 0 0.1 0 0 0 0 0 0 0 0.1 0 0 0 0 0 0 0 0 0 0.1 0 0.1 0 0.1 0 0.1 0 0 0 0.1 0 0 0 0 0 0 0 0 0 0.1 0 0.1 0 0.1 0 0.1 0 0.1 0 0.1 0 0 0 0 0 0 0 0.1 0 0 0 0 0 0 0 0 0 0.1 0 0.1 0 0 0 0 0 0 0 0 0 0.1 0 0.1 0 0 0 0 0 0 0 0.1 0 0 0 0 0v0.1q0 0 0 0-0.1 0-0.1 0 0 0 0 0 0 0-0.1 0 0 0 0 0 0 0 0 0 0 0-0.1 0 0 0 0 0-0.1 0-0.2 0 0 0 0 0 0 0 0 0-0.1 0-0.1 0 0 0 0 0 0 0-0.1 0 0 0 0 0 0 0 0 0-0.1 0-0.1 0 0 0 0 0 0 0 0 0-0.1 0-0.1 0 0 0 0 0 0 0-0.1 0 0 0 0 0 0 0 0 0-0.1 0-0.1 0 0 0 0 0 0 0-0.1 0 0 0 0 0 0 0 0 0z"/>
	<path id="Layer" class="s8" d="m12.4 13.4q0.1 0 0.1 0 0 0 0.1 0 0 0 0 0 0 0 0 0 0.1 0 0.1 0 0 0 0 0 0 0 0.1 0 0 0 0 0 0 0 0 0 0.1 0 0.2 0 0.1 0 0.1 0 0.1 0 0.1 0 0 0 0 0 0 0 0.1 0 0 0 0 0 0.1 0 0.1 0 0.1 0 0.2 0v0.1q0 0 0 0-0.1 0-0.1 0 0 0 0 0 0 0-0.1 0 0 0 0 0 0 0 0 0 0 0-0.1 0 0-0.1 0-0.1 0 0 0 0.1-0.1 0-0.1 0 0 0 0 0 0 0-0.1 0 0 0 0 0 0 0 0 0-0.1 0-0.1 0 0 0 0 0 0 0-0.1 0 0 0 0 0 0 0 0 0-0.1 0-0.1 0 0 0 0 0 0 0 0 0-0.1 0-0.1 0 0-0.1 0-0.1-0.1 0.1-0.2 0.1 0 0 0 0 0 0-0.1 0 0 0 0 0 0 0 0 0v-0.1"/>
	<path id="Layer" fill-rule="evenodd" class="s5" d="m12.4 13.4q0.1 0 0.1 0 0 0 0.1 0 0 0 0 0 0 0 0 0 0.1 0 0.1 0 0 0 0 0 0 0 0.1 0 0 0 0 0 0 0 0 0 0.1 0 0.2 0 0.1 0 0.1 0 0.1 0 0.1 0 0 0 0 0 0 0 0.1 0 0 0 0 0 0.1 0 0.1 0 0.1 0 0.2 0v0.1q0 0 0 0-0.1 0-0.1 0 0 0 0 0 0 0-0.1 0 0 0 0 0 0 0 0 0 0 0-0.1 0 0-0.1 0-0.1 0 0 0 0.1-0.1 0-0.1 0 0 0 0 0 0 0-0.1 0 0 0 0 0 0 0 0 0-0.1 0-0.1 0 0 0 0 0 0 0-0.1 0 0 0 0 0 0 0 0 0-0.1 0-0.1 0 0 0 0 0 0 0 0 0-0.1 0-0.1 0 0-0.1 0-0.1-0.1 0.1-0.2 0.1 0 0 0 0 0 0-0.1 0 0 0 0 0 0 0 0 0v-0.1"/>
	<path id="Layer" class="s9" d="m12.4 13.6q0 0 0 0 0 0 0 0 0.1 0 0.1 0 0 0 0 0 0 0 0.1 0 0 0 0 0 0-0.1 0-0.1 0.1 0 0.1 0 0 0 0 0 0 0 0.1 0.1 0 0 0 0 0 0 0 0 0.1 0 0.2 0 0.1 0 0.1 0 0.1 0 0.1 0 0 0 0 0 0-0.1 0.1-0.1 0 0 0 0 0.1 0 0.1 0.1 0.1 0 0.2 0v-0.1q0 0 0 0-0.1 0-0.1 0 0 0 0 0 0 0-0.1 0 0 0 0 0 0 0 0 0 0 0-0.1 0 0-0.1 0-0.1 0 0 0 0.1-0.1 0-0.1 0 0 0 0 0 0 0-0.1 0 0 0 0 0 0 0 0 0-0.1 0-0.1 0 0 0 0 0 0 0-0.1 0 0 0 0 0 0 0 0 0-0.1 0-0.1 0 0 0 0 0 0 0 0 0-0.1 0-0.1 0 0-0.1 0-0.1 0 0-0.1 0.1 0 0 0 0 0 0 0 0-0.1 0-0.1 0 0 0 0 0 0 0-0.1 0 0 0 0 0 0 0 0 0z"/>
	<path id="Layer" fill-rule="evenodd" class="s5" d="m12.4 13.6q0 0 0 0 0 0 0 0 0.1 0 0.1 0 0 0 0 0 0 0 0.1 0 0 0 0 0 0-0.1 0-0.1 0.1 0 0.1 0 0 0 0 0 0 0 0.1 0.1 0 0 0 0 0 0 0 0 0.1 0 0.2 0 0.1 0 0.1 0 0.1 0 0.1 0 0 0 0 0 0-0.1 0.1-0.1 0 0 0 0 0.1 0 0.1 0.1 0.1 0 0.2 0v-0.1q0 0 0 0-0.1 0-0.1 0 0 0 0 0 0 0-0.1 0 0 0 0 0 0 0 0 0 0 0-0.1 0 0-0.1 0-0.1 0 0 0 0.1-0.1 0-0.1 0 0 0 0 0 0 0-0.1 0 0 0 0 0 0 0 0 0-0.1 0-0.1 0 0 0 0 0 0 0-0.1 0 0 0 0 0 0 0 0 0-0.1 0-0.1 0 0 0 0 0 0 0 0 0-0.1 0-0.1 0 0-0.1 0-0.1 0 0-0.1 0.1 0 0 0 0 0 0 0 0-0.1 0-0.1 0 0 0 0 0 0 0-0.1 0 0 0 0 0 0 0 0 0z"/>
	<path id="Layer" class="s8" d="m12.4 13.7q0.1 0 0.1 0 0 0 0.1 0 0 0 0-0.1 0 0 0 0 0.1 0 0.1 0 0 0 0 0 0 0 0.1 0 0 0.1 0 0.1 0 0 0 0 0.1 0 0.2 0 0.1 0 0.1 0 0.1 0 0.1 0 0 0 0-0.1 0 0 0.1 0 0 0 0 0 0.1 0 0.1 0.1 0.1 0 0.2 0v-0.1q0 0 0 0-0.1 0-0.1 0 0 0 0 0 0 0-0.1 0 0 0 0 0 0 0 0 0 0-0.1-0.1-0.1 0 0 0 0-0.1 0-0.2 0.1 0 0 0 0 0 0 0 0-0.1 0-0.1 0 0 0 0 0 0 0-0.1 0 0 0 0 0 0 0 0 0-0.1 0-0.1 0 0 0 0 0 0 0 0 0-0.1-0.1-0.1-0.1 0 0 0 0 0 0-0.1 0 0 0 0 0.1 0 0 0 0-0.1 0-0.1 0 0 0 0 0 0 0-0.1 0 0 0 0 0 0 0 0 0z"/>
	<path id="Layer" fill-rule="evenodd" class="s5" d="m12.4 13.7q0.1 0 0.1 0 0 0 0.1 0 0 0 0-0.1 0 0 0 0 0.1 0 0.1 0 0 0 0 0 0 0 0.1 0 0 0.1 0 0.1 0 0 0 0 0.1 0 0.2 0 0.1 0 0.1 0 0.1 0 0.1 0 0 0 0-0.1 0 0 0.1 0 0 0 0 0 0.1 0 0.1 0.1 0.1 0 0.2 0v-0.1q0 0 0 0-0.1 0-0.1 0 0 0 0 0 0 0-0.1 0 0 0 0 0 0 0 0 0 0-0.1-0.1-0.1 0 0 0 0-0.1 0-0.2 0.1 0 0 0 0 0 0 0 0-0.1 0-0.1 0 0 0 0 0 0 0-0.1 0 0 0 0 0 0 0 0 0-0.1 0-0.1 0 0 0 0 0 0 0 0 0-0.1-0.1-0.1-0.1 0 0 0 0 0 0-0.1 0 0 0 0 0.1 0 0 0 0-0.1 0-0.1 0 0 0 0 0 0 0-0.1 0 0 0 0 0 0 0 0 0z"/>
	<path id="Layer" class="s4" d="m13.3 12.8v0.1q0 0.1 0.1 0.1h-0.9q0.1 0 0.1-0.1 0 0 0-0.1 0 0 0 0 0 0 0 0 0 0 0 0z"/>
	<path id="Layer" fill-rule="evenodd" class="s3" d="m13.3 12.8v0.1q0 0.1 0.1 0.1h-0.9q0.1 0 0.1-0.1 0 0 0-0.1 0 0 0 0 0 0 0 0 0 0 0 0z"/>
	<path id="Layer" class="s4" d="m12.7 12.8h0.6q0.1 0 0.1 0 0 0-0.1 0h-0.6q-0.1 0-0.1 0 0 0 0.1 0"/>
	<path id="Layer" fill-rule="evenodd" class="s5" d="m12.7 12.8h0.6q0.1 0 0.1 0 0 0-0.1 0h-0.6q-0.1 0-0.1 0 0 0 0.1 0z"/>
	<path id="Layer" class="s4" d="m12.5 13.2h0.9v-0.2h-0.9v0.2z"/>
	<path id="Layer" fill-rule="evenodd" class="s5" d="m12.5 13.2h0.9v-0.2h-0.9v0.2z"/>
	<path id="Layer" class="s2" d="m13.5 11.9q0.2 0.1 0.2 0.2-0.1 0-0.1 0c-0.1 0.1-0.1 0.2-0.1 0.2q0 0-0.1-0.1 0 0 0-0.1 0 0 0-0.1 0.1 0 0.1-0.1"/>
	<path id="Layer" fill-rule="evenodd" class="s5" d="m13.5 11.9q0.2 0.1 0.2 0.2-0.1 0-0.1 0c-0.1 0.1-0.1 0.2-0.1 0.2q0 0-0.1-0.1 0 0 0-0.1 0 0 0-0.1 0.1 0 0.1-0.1z"/>
	<path id="Layer" class="s9" d="m12.7 12.7h0.6v-3.2h-0.6v3.2z"/>
	<path id="Layer" fill-rule="evenodd" class="s5" d="m12.7 12.7h0.6v-3.2h-0.6v3.2zm0.5-3.2v3.2m-0.1-3.2v3.2"/>
	<path id="Layer" class="s2" d="m12 10.7q0.1 0 0.2 0 0.2 0 0.3-0.1 0.1 0 0.2 0 0.1 0 0.3 0.1c0.4 0 0.7 0.2 0.6 0.3 0 0 0.2-0.3 0.2-0.3 0-0.2-0.3-0.3-0.8-0.4q0 0-0.1 0 0 0-0.1 0 0 0 0 0-0.1 0-0.1 0c-0.3 0-0.6 0-0.7 0v0.4"/>
	<path id="Layer" fill-rule="evenodd" class="s3" d="m12 10.7q0.1 0 0.2 0 0.2 0 0.3-0.1 0.1 0 0.2 0 0.1 0 0.3 0.1c0.4 0 0.7 0.2 0.6 0.3 0 0 0.2-0.3 0.2-0.3 0-0.2-0.3-0.3-0.8-0.4q0 0-0.1 0 0 0-0.1 0 0 0 0 0-0.1 0-0.1 0c-0.3 0-0.6 0-0.7 0v0.4"/>
	<path id="Layer" class="s2" d="m13.3 11.1q0.3 0 0.3-0.1 0-0.1-0.1-0.2-0.1 0-0.2 0v0.3"/>
	<path id="Layer" fill-rule="evenodd" class="s5" d="m13.3 11.1q0.3 0 0.3-0.1 0-0.1-0.1-0.2-0.1 0-0.2 0v0.3"/>
	<path id="Layer" class="s2" d="m12.7 10.9q-0.2 0-0.3 0.1c0 0 0.1 0.1 0.3 0.2v-0.3"/>
	<path id="Layer" fill-rule="evenodd" class="s5" d="m12.7 10.9q-0.2 0-0.3 0.1c0 0 0.1 0.1 0.3 0.2v-0.3"/>
	<path id="Layer" class="s2" d="m13.7 11.8c0-0.1-0.1-0.2-0.4-0.3q-0.2 0-0.3-0.1c-0.4-0.2-0.6-0.4-0.6-0.4 0 0 0 0.3 0 0.3-0.1 0.1 0.2 0.2 0.5 0.4 0.1 0 0.3 0.1 0.4 0.2 0.2 0 0.4 0.1 0.4 0.2z"/>
	<path id="Layer" fill-rule="evenodd" class="s3" d="m13.7 11.8c0-0.1-0.1-0.2-0.4-0.3q-0.2 0-0.3-0.1c-0.4-0.2-0.6-0.4-0.6-0.4 0 0 0 0.3 0 0.3-0.1 0.1 0.2 0.2 0.5 0.4 0.1 0 0.3 0.1 0.4 0.2 0.2 0 0.4 0.1 0.4 0.2z"/>
	<path id="Layer" fill-rule="evenodd" class="s4" d="m12.4 10.6q-0.1 0-0.1-0.1 0 0 0 0 0 0-0.1-0.1 0 0 0 0h0.1l0.1 0.1q0-0.1 0-0.2 0 0 0.1 0 0 0 0 0 0 0 0 0 0 0 0 0 0 0 0 0 0 0 0 0 0 0 0 0 0 0 0 0-0.1 0.2-0.1 0.3m0.2-0.3zm0 0v0.3q0.1 0 0.1 0 0 0 0-0.1 0 0 0 0 0 0 0 0v0.1h-0.1v-0.3zm0.2 0.3v-0.2h-0.1v-0.1h0.2v0.1zm0.1-0.3l0.1 0.1q0.1 0 0.1 0 0 0 0 0 0 0 0 0 0 0 0 0 0 0 0 0 0 0.1 0 0.1v0.1q0 0-0.1 0v-0.1 0.1h-0.1q0 0 0 0zm0 0.1q0.1 0 0.1 0 0 0 0 0 0 0 0 0 0 0 0 0 0 0 0 0 0-0.1-0.1-0.1zm0.3 0.2h-0.1l0.3-0.2q0 0 0 0 0 0 0 0 0 0 0 0 0 0 0 0v0.3h-0.1v-0.1zm0.1 0v-0.1l-0.1 0.1z"/>
	<path id="Layer" fill-rule="evenodd" class="s5" d="m9 8q0-0.1 0.1-0.1 0.1 0 0.1 0.1 0 0.1-0.1 0.1 0 0 0 0-0.1 0-0.1 0 0 0 0 0 0-0.1 0-0.1z"/>
	<path id="Layer" class="s11" d="m10 7.3c0.2 0 0.5 0 0.6 0.1q0.1 0 0.1 0 0.1 0.1 0.1 0.1 0 0 0.1 0 0 0 0.1 0 0.1 0 0.2 0 0.2 0 0.5 0.1 0 0 0.1 0 0 0.1 0 0.1 0.1 0 0.1 0 0 0.1 0.1 0.1l-0.1 0.1v0.1l-0.2 0.2-0.1 0.1-0.2 0.1-0.1 0.1-1.3-0.1-1.3 0.1h-0.1l-0.1-0.1-0.2-0.1-0.1-0.1-0.1-0.2-0.1-0.1v-0.1q0 0 0.1-0.1 0 0 0 0 0.1 0 0.1-0.1 0.1 0 0.1 0 0.2-0.1 0.4-0.1 0.1 0 0.3 0 0 0 0.1 0 0 0 0.1 0 0 0 0.1-0.1 0 0 0 0 0.3-0.1 0.7-0.1z"/>
	<path id="Layer" class="s12" d="m10 9c-0.5 0-0.9 0-1.3-0.1q0 0 0-0.1 0 0 0 0 0 0 0 0 0 0 0 0 0 0 0.1 0 0.1 0 0.3-0.1 0.1 0 0.3 0 0.1 0 0.3-0.1 0.1 0 0.3 0c0.5 0 0.9 0.1 1.2 0.2q0.1 0 0.1 0 0 0.1-0.1 0.1-0.1 0-0.3 0.1-0.1 0-0.3 0-0.1 0-0.3 0-0.1 0.1-0.3 0.1"/>
	<path id="Layer" class="s2" d="m10 9q-0.2 0-0.3 0-0.1 0-0.3 0-0.1-0.1-0.3-0.1-0.1 0-0.3 0 0.5-0.2 1.2-0.2 0.1 0 0.3 0 0.1 0 0.3 0.1 0.1 0 0.3 0 0.1 0 0.2 0.1-0.4 0.1-1.1 0.1z"/>
	<path id="Layer" fill-rule="evenodd" class="s5" d="m10 9v-0.3m0 0.3v-0.3"/>
	<path id="Layer" fill-rule="evenodd" class="s5" d="m9.9 9v-0.3m-0.1 0.3v-0.3"/>
	<path id="Layer" fill-rule="evenodd" class="s5" d="m9.8 9v-0.3m-0.2 0.3v-0.3m0.1 0.3v-0.3"/>
	<path id="Layer" fill-rule="evenodd" class="s5" d="m9.5 9v-0.3m0.1 0.3v-0.3m-0.2 0.2v-0.1m0 0.1v-0.2m0.1 0.3v-0.3"/>
	<path id="Layer" fill-rule="evenodd" class="s5" d="m9.4 8.9v-0.1m-0.1 0.1v-0.1"/>
	<path id="Layer" fill-rule="evenodd" class="s5" d="m9.3 8.9v-0.1m-0.1 0.1v-0.1m0 0.1v-0.1"/>
	<path id="Layer" fill-rule="evenodd" class="s5" d="m9.1 8.9v-0.1m0 0.1v-0.1"/>
	<path id="Layer" fill-rule="evenodd" class="s5" d="m9 8.9v-0.1m0 0.1v-0.1"/>
	<path id="Layer" fill-rule="evenodd" class="s5" d="m8.9 8.9v-0.1"/>
	<path id="Layer" fill-rule="evenodd" class="s5" d="m10.3 9v-0.3m-0.1 0.3v-0.3m-0.1 0.3v-0.3"/>
	<path id="Layer" class="s12" d="m10 8.6q-0.2 0-0.3 0.1-0.2 0-0.3 0-0.2 0-0.4 0-0.1 0.1-0.3 0.1 0.1 0 0-0.1c0-0.1-0.1-0.1-0.1-0.1q0.2-0.1 0.4-0.1 0.1 0 0.3-0.1 0.2 0 0.3 0 0.2 0 0.4 0c0.5 0 1 0.1 1.4 0.2 0 0-0.1 0-0.1 0.1q-0.1 0.1 0 0.1c-0.4-0.1-0.8-0.2-1.3-0.2z"/>
	<path id="Layer" class="s12" d="m10 8.4q-0.2 0-0.4 0-0.1 0-0.3 0-0.2 0.1-0.3 0.1-0.2 0-0.4 0.1 0 0 0 0 0-0.1 0-0.1 0 0 0 0 0 0 0 0 0 0 0 0c0.3-0.1 0.8-0.2 1.4-0.2 0.5 0 1 0.1 1.4 0.2q0 0 0 0.1 0 0 0 0c-0.4-0.1-0.9-0.2-1.4-0.2"/>
	<path id="Layer" fill-rule="evenodd" class="s3" d="m10 9q-0.2 0-0.3 0-0.1 0-0.3 0-0.1-0.1-0.3-0.1-0.1 0-0.3 0 0.5-0.2 1.2-0.2 0.1 0 0.3 0 0.1 0 0.3 0.1 0.1 0 0.3 0 0.1 0 0.2 0.1-0.4 0.1-1.1 0.1z"/>
	<path id="Layer" class="s13" d="m9.6 8.5q0 0 0.1 0 0 0 0 0 0 0.1 0 0.1-0.1 0-0.1 0 0 0 0 0 0 0 0-0.1 0 0 0 0"/>
	<path id="Layer" class="s11" d="m10 8.6h-0.1q-0.1 0-0.1-0.1 0 0 0.1 0h0.2q0 0 0 0 0.1 0 0.1 0 0 0 0 0 0 0 0 0 0 0.1-0.1 0.1z"/>
	<path id="Layer" class="s14" d="m9.3 8.6h-0.1q0 0 0 0 0 0 0 0 0 0 0-0.1 0 0 0 0 0 0 0 0h0.1 0.1q0 0 0 0 0 0 0.1 0 0 0 0 0 0 0 0 0 0 0.1-0.1 0.1h-0.1"/>
	<path id="Layer" class="s13" d="m8.9 8.6q0.1 0 0.1 0 0 0 0 0 0 0 0 0 0 0 0 0 0 0 0 0 0 0 0 0.1 0 0 0-0.1 0 0 0 0 0 0 0 0 0 0 0 0"/>
	<path id="Layer" class="s11" d="m8.7 8.7v-0.1h0.1l-0.1 0.1z"/>
	<path id="Layer" class="s14" d="m10.7 8.6h0.1q0 0 0 0 0 0 0 0 0 0 0-0.1 0 0 0 0 0 0 0 0h-0.1-0.1q-0.1 0-0.1 0 0 0.1 0.1 0.1z"/>
	<path id="Layer" class="s13" d="m10.3 8.5q0 0 0 0 0.1 0 0.1 0 0 0.1-0.1 0.1 0 0 0 0 0 0 0 0 0 0 0 0 0-0.1 0-0.1zm0.7 0.1q0 0 0 0 0 0 0 0 0 0 0 0 0 0 0 0 0 0 0 0 0 0 0 0.1 0 0 0-0.1 0 0 0 0 0 0 0 0 0 0 0 0z"/>
	<path id="Layer" class="s11" d="m11.3 8.7v-0.1h-0.2l0.2 0.1"/>
	<path id="Layer" fill-rule="evenodd" class="s5" d="m8.8 8.9q0.5-0.2 1.2-0.2c0.5 0 0.9 0.1 1.2 0.2"/>
	<path id="Layer" class="s4" d="m9 7.7h0.1v-0.1q0-0.1 0-0.1-0.1 0-0.1-0.1 0 0 0 0 0-0.1 0-0.1c0-0.2 0.2-0.3 0.5-0.3q0.2 0 0.3 0.1v-0.1q0 0 0-0.1-0.1 0-0.1 0-0.1 0-0.1 0-0.1 0-0.1 0c-0.3 0-0.6 0.2-0.6 0.4q0 0 0 0.1 0 0 0 0 0.1 0.1 0.1 0.1 0 0.1 0 0.1v0.1"/>
	<path id="Layer" fill-rule="evenodd" class="s5" d="m9 7.7h0.1v-0.1q0-0.1 0-0.1-0.1 0-0.1-0.1 0 0 0 0 0-0.1 0-0.1c0-0.2 0.2-0.3 0.5-0.3q0.2 0 0.3 0.1v-0.1q0 0 0-0.1-0.1 0-0.1 0-0.1 0-0.1 0-0.1 0-0.1 0c-0.3 0-0.6 0.2-0.6 0.4q0 0 0 0.1 0 0 0 0 0.1 0.1 0.1 0.1 0 0.1 0 0.1v0.1"/>
	<path id="Layer" class="s4" d="m9 7.7q0-0.1-0.1-0.1 0 0 0-0.1 0 0 0-0.1-0.1 0-0.1 0 0-0.3 0.3-0.4-0.1 0-0.1 0.1 0 0 0 0-0.1 0.1-0.1 0.1 0 0 0 0.1 0 0 0 0.1 0 0 0 0 0.1 0.1 0.1 0.1 0 0.1 0 0.1v0.1"/>
	<path id="Layer" fill-rule="evenodd" class="s5" d="m9 7.7q0-0.1-0.1-0.1 0 0 0-0.1 0 0 0-0.1-0.1 0-0.1 0 0-0.3 0.3-0.4-0.1 0-0.1 0.1 0 0 0 0-0.1 0.1-0.1 0.1 0 0 0 0.1 0 0 0 0.1 0 0 0 0 0.1 0.1 0.1 0.1 0 0.1 0 0.1v0.1"/>
	<path id="Layer" class="s4" d="m8.1 7.8q0 0-0.1-0.1 0 0 0 0 0 0 0-0.1 0 0 0 0 0-0.1 0-0.2c0.1-0.2 0.4-0.3 0.7-0.3q0.1 0 0.2 0 0 0 0 0.1 0 0-0.1 0 0 0 0 0 0 0-0.1 0 0 0 0 0c-0.3 0-0.5 0.1-0.6 0.2q0 0 0 0.1 0 0 0 0 0 0 0 0 0 0 0 0.1 0 0 0 0 0 0.1 0 0.1 0 0 0 0 0 0.1 0.1 0.1l-0.1 0.2-0.1-0.1 0.1-0.1"/>
	<path id="Layer" fill-rule="evenodd" class="s5" d="m8.1 7.8q0 0-0.1-0.1 0 0 0 0 0 0 0-0.1 0 0 0 0 0-0.1 0-0.2c0.1-0.2 0.4-0.3 0.7-0.3q0.1 0 0.2 0 0 0 0 0.1 0 0-0.1 0 0 0 0 0 0 0-0.1 0 0 0 0 0c-0.3 0-0.5 0.1-0.6 0.2q0 0 0 0.1 0 0 0 0 0 0 0 0 0 0 0 0.1 0 0 0 0 0 0.1 0 0.1 0 0 0 0 0 0.1 0.1 0.1l-0.1 0.2-0.1-0.1 0.1-0.1z"/>
	<path id="Layer" class="s4" d="m8.2 7.2q0 0-0.1 0.1 0 0 0 0 0 0 0 0-0.1 0.1-0.1 0.1 0 0 0 0 0 0 0 0.1 0 0 0 0 0 0 0 0.1 0 0.1 0.1 0.2l-0.1 0.1q0 0 0-0.1 0 0-0.1 0 0-0.1 0-0.1 0 0 0-0.1 0-0.2 0.3-0.4z"/>
	<path id="Layer" fill-rule="evenodd" class="s5" d="m8.2 7.2q0 0-0.1 0.1 0 0 0 0 0 0 0 0-0.1 0.1-0.1 0.1 0 0 0 0 0 0 0 0.1 0 0 0 0 0 0 0 0.1 0 0.1 0.1 0.2l-0.1 0.1q0 0 0-0.1 0 0-0.1 0 0-0.1 0-0.1 0 0 0-0.1 0-0.2 0.3-0.4z"/>
	<path id="Layer" class="s4" d="m10 6.9q0.1 0 0.1 0.1 0.1 0 0.1 0.1v0.1q0 0.2 0 0.3l-0.2 0.2-0.2-0.2q0-0.1 0-0.3v-0.1q0-0.1 0-0.1 0.1-0.1 0.2-0.1"/>
	<path id="Layer" fill-rule="evenodd" class="s5" d="m10 6.9q0.1 0 0.1 0.1 0.1 0 0.1 0.1v0.1q0 0.2 0 0.3l-0.2 0.2-0.2-0.2q0-0.1 0-0.3v-0.1q0-0.1 0-0.1 0.1-0.1 0.2-0.1z"/>
	<path id="Layer" class="s4" d="m10 6.9q0 0 0 0 0 0 0 0 0 0 0.1 0 0 0.1 0 0.1 0 0 0 0 0 0 0 0.1 0 0 0 0 0 0 0 0v0.1q0 0.2 0 0.3l-0.1 0.1-0.2-0.1q0.1-0.1 0.1-0.3v-0.1q0 0 0-0.1 0-0.1 0.1-0.1"/>
	<path id="Layer" fill-rule="evenodd" class="s5" d="m10 6.9q0 0 0 0 0 0 0 0 0 0 0.1 0 0 0.1 0 0.1 0 0 0 0 0 0 0 0.1 0 0 0 0 0 0 0 0v0.1q0 0.2 0 0.3l-0.1 0.1-0.2-0.1q0.1-0.1 0.1-0.3v-0.1q0 0 0-0.1 0-0.1 0.1-0.1z"/>
	<path id="Layer" class="s4" d="m11 7.7h-0.1l-0.1-0.1q0.1-0.1 0.1-0.1 0 0 0.1-0.1 0 0 0 0 0-0.1 0-0.1c0-0.2-0.2-0.3-0.5-0.3q0 0-0.1 0 0 0-0.1 0 0 0-0.1 0 0 0-0.1 0.1 0-0.1 0-0.1 0 0 0 0 0 0 0 0 0 0 0 0 0.1 0 0.1-0.1 0.1 0 0.1 0 0.1 0 0.1 0 0.1 0 0.1 0c0.3 0 0.5 0.2 0.6 0.4q0 0 0 0.1 0 0-0.1 0 0 0.1 0 0.1 0 0.1-0.1 0.1z"/>
	<path id="Layer" fill-rule="evenodd" class="s5" d="m11 7.7h-0.1l-0.1-0.1q0.1-0.1 0.1-0.1 0 0 0.1-0.1 0 0 0 0 0-0.1 0-0.1c0-0.2-0.2-0.3-0.5-0.3q0 0-0.1 0 0 0-0.1 0 0 0-0.1 0 0 0-0.1 0.1 0-0.1 0-0.1 0 0 0 0 0 0 0 0 0 0 0 0 0.1 0 0.1-0.1 0.1 0 0.1 0 0.1 0 0.1 0 0.1 0 0.1 0c0.3 0 0.5 0.2 0.6 0.4q0 0 0 0.1 0 0-0.1 0 0 0.1 0 0.1 0 0.1-0.1 0.1z"/>
	<path id="Layer" class="s4" d="m11 7.7q0.1-0.2 0.1-0.3 0-0.3-0.2-0.4 0.1 0 0.1 0.1 0 0 0 0 0 0.1 0.1 0.1 0 0.1 0 0.1 0 0.2-0.2 0.3l0.1 0.1"/>
	<path id="Layer" fill-rule="evenodd" class="s5" d="m11 7.7q0.1-0.2 0.1-0.3 0-0.3-0.2-0.4 0.1 0 0.1 0.1 0 0 0 0 0 0.1 0.1 0.1 0 0.1 0 0.1 0 0.2-0.2 0.3l0.1 0.1"/>
	<path id="Layer" class="s4" d="m11.9 7.8q0 0 0.1-0.1 0 0 0-0.1 0 0 0-0.1 0-0.1 0-0.1c-0.1-0.2-0.4-0.3-0.7-0.3q0 0-0.1 0 0 0 0 0-0.1 0-0.1 0 0 0-0.1 0 0.1 0 0.1 0.1 0 0 0 0 0.1 0 0.1 0 0 0 0 0 0.1 0 0.1 0c0.3 0 0.5 0.1 0.6 0.2q0 0.1 0 0.2 0 0 0 0 0 0.1 0 0.1 0 0 0 0-0.1 0.1-0.1 0.1l0.1 0.2 0.1-0.1-0.1-0.1"/>
	<path id="Layer" fill-rule="evenodd" class="s5" d="m11.9 7.8q0 0 0.1-0.1 0 0 0-0.1 0 0 0-0.1 0-0.1 0-0.1c-0.1-0.2-0.4-0.3-0.7-0.3q0 0-0.1 0 0 0 0 0-0.1 0-0.1 0 0 0-0.1 0 0.1 0 0.1 0.1 0 0 0 0 0.1 0 0.1 0 0 0 0 0 0.1 0 0.1 0c0.3 0 0.5 0.1 0.6 0.2q0 0.1 0 0.2 0 0 0 0 0 0.1 0 0.1 0 0 0 0-0.1 0.1-0.1 0.1l0.1 0.2 0.1-0.1-0.1-0.1z"/>
	<path id="Layer" class="s4" d="m11.8 7.2q0 0 0 0.1 0.1 0 0.1 0 0 0 0 0 0 0.1 0.1 0.1 0 0 0 0 0 0 0 0.1 0 0 0 0 0 0 0 0.1 0 0.1-0.1 0.2l0.1 0.1q0 0 0-0.1 0 0 0 0 0-0.1 0.1-0.1 0 0 0-0.1 0-0.2-0.3-0.4"/>
	<path id="Layer" fill-rule="evenodd" class="s5" d="m11.8 7.2q0 0 0 0.1 0.1 0 0.1 0 0 0 0 0 0 0.1 0.1 0.1 0 0 0 0 0 0 0 0.1 0 0 0 0 0 0 0 0.1 0 0.1-0.1 0.2l0.1 0.1q0 0 0-0.1 0 0 0 0 0-0.1 0.1-0.1 0 0 0-0.1 0-0.2-0.3-0.4z"/>
	<path id="Layer" class="s6" d="m9.9 7.6q0-0.1 0.1-0.1 0.1 0 0.1 0.1 0 0 0 0 0 0-0.1 0 0 0 0 0 0 0 0 0 0 0 0 0-0.1 0-0.1 0 0 0 0 0 0 0 0 0"/>
	<path id="Layer" fill-rule="evenodd" class="s5" d="m9.9 7.6q0-0.1 0.1-0.1 0.1 0 0.1 0.1 0 0 0 0 0 0-0.1 0 0 0 0 0 0 0 0 0 0 0 0 0-0.1 0-0.1 0 0 0 0 0 0 0 0 0z"/>
	<path id="Layer" class="s13" d="m9.9 7.4q0 0 0 0 0 0 0 0 0 0 0.1-0.1 0 0 0 0 0 0 0 0 0 0.1 0 0.1 0.1 0 0.1 0 0 0 0 0 0 0 0 0 0 0.1-0.1 0.1 0 0 0 0 0 0 0 0 0 0 0 0-0.1 0-0.1 0 0 0 0-0.1 0 0 0 0m0-0.1q0-0.1 0.1-0.1 0 0 0.1 0.1-0.1 0-0.1 0-0.1 0-0.1 0m0-0.2q0 0 0.1 0 0 0 0 0 0 0 0 0 0 0 0 0 0 0 0 0 0 0.1 0 0.1 0 0 0 0 0 0 0 0 0 0 0-0.1-0.1 0-0.1 0m0.1-0.1q0 0 0 0 0 0 0 0 0 0 0 0 0 0 0 0z"/>
	<path id="Layer" class="s12" d="m10 8q0 0 0 0.1 0.1 0 0.1 0.1 0 0 0 0 0.1 0 0.1 0 0.1 0.1 0.1 0 0 0 0 0 0.1 0 0.1 0 0-0.1 0-0.1c0 0 0 0 0 0 0.1 0 0.1 0 0.1 0 0 0.1 0.1 0.2 0.2 0.2q0 0 0 0 0.1 0 0.1-0.1 0 0 0 0 0.1-0.1 0-0.1l0.1-0.1v0.1q0 0 0 0 0 0 0 0 0 0 0 0.1 0 0 0 0 0 0 0 0 0.1 0.1 0.1 0.1 0 0 0 0 0.1 0.1 0.1 0.1 0 0 0.1-0.1 0 0 0 0 0 0 0 0 0.1 0 0.1 0v-0.1 0.1q0 0.1 0.1 0.1c0 0 0.1 0 0.2-0.1q0 0 0 0 0 0 0 0 0 0 0.1-0.1 0 0 0 0v0.1c0 0-0.1 0.1-0.2 0.1q0 0.1-0.1 0.1-0.1 0-0.1-0.1-0.1 0-0.1 0 0 0 0 0 0 0 0 0-0.1 0-0.1 0 0 0-0.1 0 0 0 0 0-0.1 0-0.1-0.1 0 0 0 0-0.1 0-0.1 0-0.1 0.1-0.2 0.1 0 0-0.1-0.1 0 0-0.1 0 0 0 0 0 0 0-0.1 0 0 0 0 0 0 0-0.1 0 0 0 0 0-0.1 0-0.1 0 0 0-0.1 0 0-0.1 0-0.1 0 0-0.1 0.1 0 0 0 0 0 0-0.1 0 0 0 0 0-0.1 0-0.1 0 0 0 0 0-0.1 0-0.1 0 0 0 0 0-0.1 0-0.1 0-0.1 0.1-0.1 0.1-0.1 0-0.2-0.1 0 0-0.1 0 0 0 0 0 0 0.1-0.1 0.1 0 0 0 0-0.1 0-0.1 0 0 0-0.1 0 0 0 0 0 0 0 0 0 0 0-0.1 0 0 0.1-0.1 0.1-0.1 0-0.2-0.1c0 0-0.1-0.1-0.1-0.1v-0.1q0 0 0.1 0.1c0.1 0.1 0.2 0.1 0.2 0.1q0.1 0 0.1-0.1v-0.1 0.1q0 0 0.1 0 0 0 0 0 0 0 0 0 0.1 0.1 0.1 0.1c0.1 0 0.2-0.1 0.2-0.2q0-0.1 0-0.1v-0.1 0.1q0 0 0.1 0.1 0 0 0 0 0 0.1 0.1 0.1 0 0 0 0c0.1 0 0.2-0.1 0.2-0.2 0 0 0 0 0 0 0.1 0 0.1 0 0.1 0q0 0 0 0.1 0 0 0 0 0.1 0 0.1 0 0 0.1 0.1 0 0 0.1 0 0 0.1 0 0.1 0 0-0.1 0.1-0.1 0-0.1-0.1-0.1z"/>
	<path id="Layer" fill-rule="evenodd" class="s13" d="m11.3 8.2q0.1 0 0 0 0 0 0 0-0.1 0.1 0 0.1 0 0 0-0.1zm-0.8-0.1q0-0.1 0-0.1-0.1 0-0.1 0.1 0 0 0 0 0.1 0 0.1 0zm-0.9 0q0-0.1-0.1-0.1 0 0 0 0.1 0 0 0 0 0.1 0 0.1 0zm-1 0.1q0.1 0.1 0.1 0.1 0 0 0-0.1 0 0 0 0-0.1 0-0.1 0z"/>
	<path id="Layer" class="s12" d="m9 7.7q0 0 0 0 0.1 0 0.1 0 0 0 0 0.1 0 0 0 0 0 0 0 0 0.1-0.1 0.1-0.1v0.1q0 0 0 0.1 0 0 0 0-0.1 0-0.1 0 0 0 0 0 0 0.1 0 0.1 0 0 0 0 0 0 0-0.1 0 0 0 0 0 0 0 0 0 0 0 0.1-0.1 0-0.1 0 0 0 0 0 0 0 0 0 0 0 0-0.1l-0.1-0.1q0.1 0 0.1 0 0 0 0 0 0 0 0-0.1 0 0 0 0 0 0 0 0"/>
	<path id="Layer" fill-rule="evenodd" class="s12" d="m9 8.1q0 0 0 0 0 0 0 0 0-0.1 0-0.1 0 0 0 0 0 0 0 0 0 0 0 0 0 0 0 0 0 0 0 0h-0.1q0-0.1-0.1-0.1v0.1q0 0 0 0 0 0 0 0 0 0-0.1 0.1 0 0 0 0 0 0 0 0 0.1 0 0.1 0 0 0 0 0 0 0 0.1 0l-0.1 0.1h0.1q0 0 0.1-0.1 0 0 0 0zm0.1 0q0.1 0 0.1 0 0.1 0 0.1 0h0.1q0 0 0 0 0 0-0.1 0 0 0 0 0 0-0.1 0-0.1 0.1 0 0.1 0 0 0 0 0 0 0 0 0 0 0 0.1 0-0.1-0.1-0.1-0.1 0 0 0 0 0 0-0.1 0 0 0 0 0h-0.1q-0.1 0.1-0.1 0.1 0 0 0 0 0 0 0 0 0.1 0 0.1 0 0 0 0 0 0 0 0 0 0 0 0 0 0 0 0 0 0 0-0.1 0.1z"/>
	<path id="Layer" class="s11" d="m9 8q0-0.1 0.1-0.1 0.1 0 0.1 0.1 0 0.1-0.1 0.1 0 0 0 0-0.1 0-0.1 0 0 0 0 0 0-0.1 0-0.1z"/>
	<path id="Layer" class="s12" d="m10 7.5q0 0 0 0.1 0 0 0 0 0.1 0 0.1 0 0 0.1 0 0.1 0 0 0 0 0.1 0 0.1 0h-0.1q0 0 0 0.1 0 0 0 0 0 0 0 0.1 0 0 0 0 0 0 0 0 0 0-0.1 0 0 0 0 0 0 0 0 0 0 0 0 0 0 0-0.1 0 0 0 0-0.1 0-0.1 0-0.1h-0.1q0 0 0.1 0 0 0 0 0 0 0 0-0.1 0 0 0 0 0.1 0 0.1 0 0-0.1 0-0.1"/>
	<path id="Layer" fill-rule="evenodd" class="s12" d="m9.9 8l-0.2 0.1v-0.1q0 0 0 0 0 0-0.1 0 0 0 0 0 0 0 0-0.1 0 0 0.1 0v-0.1q0.1 0 0.2 0 0 0.1 0 0.1 0 0 0 0 0 0 0 0.1 0 0 0 0 0 0 0 0 0 0 0 0zm0.2-0.1q0.1 0 0.1 0 0 0 0 0 0 0 0 0-0.1 0-0.1 0 0-0.1 0-0.1 0 0 0.1 0 0.1 0 0.1 0h0.1q0 0 0 0 0 0 0 0 0 0-0.1 0 0 0 0 0 0.1 0 0.1 0 0 0 0 0 0 0.1 0.1 0.1 0 0 0 0 0 0 0 0-0.1 0-0.1 0 0 0.1 0 0.1 0 0-0.1 0h0.1-0.1-0.1q0 0 0 0 0 0 0 0 0 0 0 0-0.1 0-0.1-0.1zm1-0.3q0 0.1 0 0.1 0 0 0 0 0 0 0 0.1 0 0 0 0h0.1-0.1v0.1q0 0-0.1 0 0 0 0 0 0 0 0 0 0 0 0 0 0 0 0 0 0 0 0 0 0 0 0 0-0.1 0-0.1 0v-0.1-0.1q0 0 0 0h0.1q0 0 0 0 0 0 0 0 0 0 0-0.1 0 0 0.1 0 0 0 0 0z"/>
	<path id="Layer" fill-rule="evenodd" class="s12" d="m11 8.1q0 0 0-0.1 0 0 0 0 0 0 0 0 0 0 0 0 0 0 0 0 0.1-0.1 0.1-0.1h0.1v0.1q0 0 0 0 0 0 0 0 0 0 0.1 0.1 0 0 0 0 0 0-0.1 0 0 0 0 0 0 0 0 0 0 0-0.1 0v0.1l-0.1-0.1q0 0 0 0 0 0 0 0 0 0 0 0 0 0 0 0zm-0.2 0q-0.1 0-0.1 0h-0.1q0 0 0 0 0 0 0 0 0 0 0 0 0 0 0 0l0.1-0.1q-0.1 0-0.2 0 0.1-0.1 0.1-0.1 0 0 0 0 0 0 0 0 0.1 0 0.1 0 0 0 0 0 0.1 0 0.1 0 0.1 0.1 0.1 0.1-0.1 0-0.1 0 0 0 0 0 0 0 0 0 0 0 0 0 0 0 0 0.1 0 0 0 0z"/>
	<path id="Layer" fill-rule="evenodd" class="s11" d="m10.8 8q0-0.1 0.1-0.1 0.1 0 0.1 0.1 0 0.1-0.1 0.1 0 0 0 0 0 0-0.1 0 0 0 0 0 0-0.1 0-0.1zm1 0.3q-0.1 0-0.1 0-0.1 0 0-0.1 0.1 0 0.1 0 0 0 0 0.1z"/>
	<path id="Layer" fill-rule="evenodd" class="s12" d="m11.7 8.3q-0.1 0-0.1 0 0 0 0 0 0 0 0 0c0 0-0.1 0-0.1 0l-0.1-0.1h0.1q0 0 0 0-0.1 0-0.1 0 0-0.1 0-0.1 0 0 0 0 0 0 0 0 0 0 0.1 0 0 0 0 0 0 0 0 0v-0.1l0.1 0.1q0 0 0 0 0 0 0 0 0.1 0 0.1 0 0 0 0 0 0 0.1 0 0.1c0 0 0-0.1 0-0.2 0 0 0.1 0 0.1 0q0.1 0 0.1 0 0 0 0.1 0 0 0 0 0 0 0 0 0 0 0.1 0 0.1c0 0-0.1 0-0.1 0-0.1 0-0.1 0.1-0.1 0.1q0 0-0.1 0 0 0 0 0.1 0 0 0 0zm-3.4 0q0-0.1 0-0.1 0 0 0 0 0 0 0 0 0 0 0 0-0.1 0-0.1 0 0 0 0 0 0 0 0 0 0 0 0 0 0 0 0 0c0 0 0-0.1-0.1-0.1-0.1 0-0.1 0-0.1 0q0 0 0-0.1 0 0 0 0 0 0 0 0 0.1 0 0.1 0 0 0 0.1 0c0 0 0 0 0.1 0 0 0.1 0 0.2 0 0.2q0 0 0-0.1 0 0 0.1 0v-0.1q0 0 0 0 0 0 0 0.1 0 0 0 0 0 0 0 0 0.1 0 0.1 0 0 0 0 0 0 0 0.1 0 0 0 0 0 0 0 0 0 0 0 0 0.1-0.1 0-0.1 0 0 0 0 0h0.1l-0.1 0.1c0 0-0.1 0-0.1 0q0 0 0 0 0 0 0 0 0 0-0.1 0 0 0 0 0z"/>
	<path id="Layer" class="s11" d="m8.2 8.2q0 0 0.1 0 0 0.1 0 0.1 0 0-0.1 0 0-0.1 0-0.1m1.7-0.3q0 0 0.1 0 0.1 0 0.1 0 0 0.1-0.1 0.1 0 0 0 0-0.1 0-0.1 0 0 0 0 0 0 0 0-0.1z"/>
	<path id="Layer" class="s15" d="m9.8 6.7c0-0.1 0.1-0.2 0.2-0.2 0.1 0 0.2 0.1 0.2 0.2q0 0 0 0.1-0.1 0-0.1 0 0 0 0 0-0.1 0.1-0.1 0.1 0 0-0.1-0.1 0 0 0 0-0.1 0-0.1 0 0-0.1 0-0.1z"/>
	<path id="Layer" class="s12" d="m9.9 6.2v0.1h-0.1v0.1h0.1v0.3h-0.1q0 0 0 0.1h0.3q0.1 0 0.1-0.1 0 0 0 0 0 0 0 0 0 0 0 0h-0.2v-0.3h0.1v-0.1h-0.1v-0.1h-0.1z"/>
	<path id="Layer" class="s9" d="m10 13.8q-0.2 0-0.4 0-0.2-0.1-0.3-0.1-0.2-0.1-0.4-0.1-0.2-0.1-0.4-0.2-0.1 0-0.2-0.1-0.1-0.1-0.2-0.2 0-0.1-0.1-0.3 0-0.1 0-0.2v-1.4h4v1.4c0 0.3-0.2 0.7-0.5 0.8q-0.2 0.1-0.4 0.2-0.2 0-0.3 0.1-0.2 0-0.4 0-0.2 0.1-0.4 0.1"/>
	<path id="Layer" fill-rule="evenodd" class="s5" d="m10 13.8q-0.2 0-0.4 0-0.2-0.1-0.3-0.1-0.2-0.1-0.4-0.1-0.2-0.1-0.4-0.2-0.1 0-0.2-0.1-0.1-0.1-0.2-0.2 0-0.1-0.1-0.3 0-0.1 0-0.2v-1.4h4v1.4c0 0.3-0.2 0.7-0.5 0.8q-0.2 0.1-0.4 0.2-0.2 0-0.3 0.1-0.2 0-0.4 0-0.2 0.1-0.4 0.1z"/>
	<path id="Layer" class="s9" d="m10 9h2v2.3h-2z"/>
	<path id="Layer" fill-rule="evenodd" class="s5" d="m10 9h2v2.3h-2z"/>
	<path id="Layer" class="s2" d="m10 12.6q0 0.2-0.1 0.4-0.1 0.1-0.2 0.3-0.1 0.1-0.3 0.2-0.2 0-0.4 0c-0.6 0-1-0.4-1-0.9v-1.3h2v1.3"/>
	<path id="Layer" class="s12" d="m8.4 13.4q0.1 0 0.3 0.1v-2.3h-0.3v2.2z"/>
	<path id="Layer" class="s16" d="m8 12.6q0 0.1 0 0.1 0 0.1 0.1 0.2 0 0.1 0 0.2 0.1 0 0.1 0.1v-2h-0.2v1.4z"/>
	<path id="Layer" class="s17" d="m8.9 13.5q0.1 0 0.2 0v-2.3h-0.2z"/>
	<path id="Layer" class="s12" d="m9.3 13.5q0.1 0 0.1 0 0-0.1 0-0.1 0.1 0 0.1 0 0 0 0.1 0v-2.2h-0.3v2.3z"/>
	<path id="Layer" class="s2" d="m8 9h2v2.3h-2z"/>
	<path id="Layer" fill-rule="evenodd" class="s5" d="m8 9h2v2.3h-2z"/>
	<path id="Layer" class="s12" d="m9.8 13.2c0.1-0.1 0.2-0.3 0.2-0.5v-1.5h-0.2v2z"/>
	<path id="Layer" fill-rule="evenodd" class="s5" d="m10 12.6q0 0.2-0.1 0.4-0.1 0.1-0.2 0.3-0.1 0.1-0.3 0.2-0.2 0-0.4 0c-0.6 0-1-0.4-1-0.9v-1.3h2v1.3"/>
	<path id="Layer" class="s2" d="m12 11.3v1.3q0 0.2-0.1 0.4 0 0.1-0.2 0.3-0.1 0.1-0.3 0.2-0.2 0-0.4 0c-0.5 0-1-0.4-1-0.9v-1.4z"/>
	<path id="Layer" fill-rule="evenodd" class="s5" d="m12 11.3v1.3q0 0.2-0.1 0.4 0 0.1-0.2 0.3-0.1 0.1-0.3 0.2-0.2 0-0.4 0c-0.5 0-1-0.4-1-0.9v-1.4z"/>
	<path id="Layer" fill-rule="evenodd" class="s4" d="m10.6 12.3h0.1 0.6 0.1 0.2q0 0 0.1 0 0 0 0 0 0 0 0 0 0 0 0 0 0 0 0 0h0.1q0 0 0 0 0 0 0 0-0.1 0.1-0.1 0.1 0 0 0 0v0.1h0.1v0.2h-0.1q0 0.1-0.1 0.1h0.1q0 0.1 0 0.1 0 0 0 0 0 0 0 0.1 0 0-0.1 0 0 0-0.1 0 0 0 0 0 0 0.1 0 0.1-0.1 0-0.1 0 0 0 0 0 0 0 0 0l0.1 0.1q-0.1 0-0.1 0 0 0 0 0 0 0-0.1 0 0 0.1 0 0.1l-0.1-0.1q0 0 0 0 0 0 0 0-0.1 0-0.1 0 0 0.1 0 0.1 0 0 0 0 0 0-0.1 0 0 0 0 0 0 0 0 0-0.1 0-0.1 0 0 0 0 0 0 0 0-0.1 0 0-0.1 0 0 0 0 0 0 0 0 0-0.1 0-0.1 0v-0.1q0.1 0.1 0.2 0.1 0 0 0 0 0 0 0-0.1 0 0 0 0 0.1 0 0.1 0v-0.3-0.1-0.3l-0.2 0.2v-0.1 0.1l-0.1 0.1h-0.1l-0.1 0.2q0 0 0 0 0 0 0 0 0 0 0 0 0 0.1 0 0.1 0 0 0 0 0.1 0 0.1 0 0 0 0 0.1 0 0 0 0 0 0 0 0 0 0 0-0.1 0.1 0 0.1 0 0 0 0 0.1 0 0 0.1 0 0 0 0 0v0.1q0-0.1-0.1-0.1 0 0 0 0 0 0-0.1 0 0 0 0 0 0 0 0 0-0.1 0-0.1 0 0 0 0-0.1 0 0 0 0-0.1 0-0.1 0 0 0 0 0 0 0 0 0 0 0 0 0-0.1 0-0.1 0 0-0.1 0-0.1 0 0 0 0 0 0 0-0.1 0 0 0 0 0 0 0-0.1 0 0 0 0 0 0 0 0 0 0 0 0 0-0.1 0-0.1h0.1q0 0.1 0 0.1 0 0 0 0 0 0 0 0.1 0 0 0 0 0 0 0 0 0 0 0 0 0 0 0.1 0 0 0 0 0l0.1-0.1v-0.1l0.1 0.1 0.1-0.1h-0.1l0.2-0.3q0 0 0 0 0 0 0 0 0 0 0 0 0 0 0 0h-0.1v0.1h-0.2v-0.1h-0.2q0 0 0 0 0 0 0 0.1 0 0 0 0 0 0 0 0v0.1 0.1c0 0 0 0.1 0 0.1v-0.1-0.1h-0.1v0.1q0 0 0 0 0 0 0 0.1 0 0 0 0h-0.1v-0.2h0.1v-0.1q0 0 0 0-0.1-0.1-0.1-0.1 0 0 0 0 0 0 0 0h0.1q0 0 0 0 0 0 0 0 0.1 0 0.1 0zm0.4 0.8q0 0 0 0 0 0 0 0 0 0 0 0.1 0.1 0 0.1 0 0 0 0 0 0 0 0 0 0.1 0 0.1-0.1 0 0 0 0v0.1q0.1 0 0.1 0 0 0 0-0.1 0 0 0 0 0.1-0.1 0.1-0.1 0 0 0 0 0 0 0 0 0 0 0-0.1 0 0 0 0 0 0 0 0 0 0 0 0l-0.1-0.2v-0.1h-0.1l-0.2-0.2v0.3h0.1v0.2h-0.1zm0.1-0.8q0 0 0 0 0 0 0 0 0 0 0 0-0.1 0-0.1 0l0.2 0.2h0.1l0.1 0.1 0.1 0.2q0 0 0 0 0 0 0 0 0 0 0 0 0 0 0 0 0 0 0.1-0.1 0 0 0 0 0 0 0 0l-0.1-0.1c0 0 0-0.1 0 0v-0.1h0.1v-0.1q-0.1-0.1-0.1-0.1h-0.1v0.1h-0.2v-0.1zm0.5 0.4q0-0.1 0-0.1h0.1v-0.1h-0.1v0.1 0.1q0 0 0 0zm-1.3 0.2q0 0 0 0 0 0 0 0 0 0 0.1 0 0 0 0 0 0 0 0 0 0 0 0 0 0 0 0 0 0 0 0 0 0 0 0 0 0 0 0 0 0 0 0 0 0 0 0-0.1 0 0 0 0 0 0 0 0.1 0 0 0 0-0.1 0-0.1 0zm0-0.2q0 0 0 0 0 0 0 0zm0.2 0.4q0 0 0 0 0 0 0 0zm0.1 0q0 0 0 0 0 0.1 0.1 0.1 0 0 0 0-0.1 0-0.1 0 0 0 0 0 0 0-0.1 0 0 0 0 0v-0.1q0 0 0.1 0zm0-0.5h-0.1l0.1-0.1h0.1zm1 0.2q0 0 0 0 0 0 0 0zm0 0q0 0 0 0 0 0 0 0-0.1 0-0.1 0 0 0 0 0 0 0 0 0 0 0 0 0 0 0.1 0 0.1 0.1 0 0.1 0 0 0 0 0 0-0.1 0-0.1 0 0 0 0 0 0 0 0 0 0 0 0zm-0.2 0.2q0 0 0 0-0.1 0-0.1 0 0 0 0 0.1-0.1 0-0.1 0v-0.1q0 0 0 0 0 0 0.1 0 0 0 0 0 0-0.1 0-0.1l0.1 0.1zm-0.1-0.4v0.1l-0.1-0.2 0.1 0.1zm-0.3 0.5q0 0.1 0 0.1 0 0 0-0.1 0 0 0 0 0 0 0 0zm-0.1-0.5v0.2h0.1v-0.2z"/>
	<path id="Layer" fill-rule="evenodd" class="s4" d="m10.2 12.3q0 0 0 0m0.1-0.1v-0.2h-0.1v-0.2h0.1v-0.2q-0.1 0-0.1-0.1 0 0 0 0 0 0 0.1 0 0-0.1 0-0.1 0 0 0 0 0 0 0.1 0 0 0 0 0 0 0.1 0 0.1 0 0 0 0h0.2v-0.1h0.2v0.1h-0.2v0.1h-0.2l0.2 0.2h0.1l0.1 0.1v0.1l0.2 0.2v-0.3-0.1-0.2q0 0-0.1 0 0 0 0 0 0 0 0 0 0 0 0 0h-0.1-0.2 0.1v-0.1h0.2q0 0 0 0 0 0 0 0 0-0.1 0.1-0.1 0 0 0 0 0.1 0 0.1 0.1h0.2v0.1h-0.1-0.1q0 0 0 0 0 0 0 0 0 0 0 0-0.1 0-0.1 0v0.1h0.1v0.2h-0.1v0.3l0.2-0.2h0.1l-0.2 0.2h0.1 0.1v0.1h-0.6v-0.1h-0.1v0.1h-0.2q0-0.1 0-0.1 0 0 0 0-0.1 0-0.1 0 0 0 0 0 0 0 0 0 0 0 0 0 0 0 0 0 0 0 0 0.1h-0.1q0-0.1 0.1-0.1zm0.9 0h0.2-0.1zm-0.3 0l-0.2-0.2-0.1-0.1-0.3-0.3v0.3 0.1 0.2q0.1 0 0.1 0h0.1 0.2zm0.4-0.2l-0.1-0.1 0.1-0.1h0.1l-0.1 0.2v-0.1zm0.2 0.3h0.1q0.1 0 0.1 0 0 0 0 0 0-0.1 0-0.1 0 0 0 0v-0.1h-0.1v-0.2h0.1v-0.2q0 0 0 0 0 0 0 0 0 0 0 0 0 0 0 0l-0.2 0.2v0.1l-0.1 0.1h-0.1l0.2-0.2v0.1l-0.1-0.1 0.3-0.3q0 0 0 0 0 0 0 0 0 0 0 0 0 0 0 0h-0.2v0.1h-0.2v-0.1h0.1 0.1 0.2q0-0.1 0-0.1 0 0 0 0 0 0 0 0 0 0 0.1 0 0.1 0 0.1 0.1 0 0.1-0.1 0.1v0.2h-0.1v0.1h0.1v-0.1h0.1v0.2h-0.1v0.1q0 0 0 0 0 0.1 0 0.1 0 0 0.1 0 0 0 0 0h-0.1q0 0 0 0-0.1 0-0.1 0 0 0 0 0 0 0 0 0 0 0 0 0zm-1-0.4h0.1v0.2h-0.1zm0.4 0.2h-0.1l-0.1-0.1v-0.1zm-0.4-0.5q0 0.1 0 0.1 0.1 0 0.1-0.1 0 0-0.1 0 0 0 0 0zm1.4 0q0 0 0 0-0.1 0-0.1 0 0 0.1 0.1 0.1 0 0 0-0.1zm-0.7 0q0 0 0 0-0.1 0-0.1 0 0 0.1 0.1 0.1 0 0 0-0.1zm0.2 0zm0-0.1h0.2v0.1h-0.2zm-0.3 0.3v0.2-0.2z"/>
	<path id="Layer" fill-rule="evenodd" class="s18" d="m11.1 13.2q0 0 0 0 0.1 0 0.1 0 0 0 0 0 0-0.1 0.1-0.1v0.1q0 0-0.1 0 0 0 0 0 0 0 0 0-0.1 0-0.1 0 0 0.1 0 0.1 0 0 0 0 0 0-0.1 0 0 0 0 0 0 0 0 0-0.1 0-0.1 0 0 0 0 0 0 0 0-0.1 0 0-0.1 0 0 0 0 0 0 0 0 0-0.1 0-0.1 0v-0.1q0.1 0.1 0.2 0.1 0 0 0 0 0-0.1 0-0.1 0 0 0 0 0.1 0 0.1 0v-0.3 0.3q0 0 0.1 0 0 0 0 0 0 0 0 0.1 0 0 0 0zm-0.3 0q-0.1 0-0.1 0 0 0 0 0 0 0 0 0-0.1 0-0.1-0.1 0 0 0 0l-0.1 0.1q0.1 0 0.1 0 0 0 0 0 0 0 0.1 0 0 0.1 0 0.1l0.1-0.1q0 0 0 0zm0.1-0.9q0 0 0 0 0 0 0 0 0 0 0 0 0 0 0 0h-0.2v-0.1h0.2q0 0 0 0l-0.2-0.2 0.3 0.2q0 0 0 0 0 0 0 0 0 0 0 0 0 0 0 0v-0.3 0.3l0.2-0.3 0.1 0.1-0.2 0.2h0.2v0.1h-0.2l0.2 0.3h-0.1l-0.2-0.2v0.3-0.3l-0.2 0.2h-0.1zm-0.5-0.7v0.2h-0.1v-0.2q-0.1-0.1-0.1-0.1 0-0.1 0-0.1 0 0 0.1 0 0 0 0 0 0 0 0 0 0 0 0.1 0 0 0 0 0 0 0 0 0 0 0 0 0h0.2v0.1h-0.2l0.3 0.3h-0.1l-0.2-0.2zm0.2 1.4q0 0 0 0 0 0 0 0v-0.1q0.1 0 0.1 0 0 0.1 0 0.1 0 0 0.1 0 0 0 0 0v0.1q0 0-0.1 0 0-0.1 0-0.1 0 0-0.1 0 0 0 0 0zm0 0.1q0-0.1 0-0.1 0 0 0 0-0.1 0-0.1 0 0 0 0 0 0-0.1 0-0.1-0.1 0-0.1 0-0.1 0-0.1 0 0 0 0-0.1 0 0 0 0 0 0 0 0 0-0.1 0-0.1 0 0 0 0 0-0.1 0-0.1 0 0 0 0h0.1q0 0 0 0 0 0 0 0 0 0.1 0 0.1 0 0 0 0 0 0 0 0 0 0 0 0 0 0 0.1 0 0 0 0 0l0.1-0.2 0.1 0.1-0.2 0.2q0 0 0 0 0 0 0 0 0 0.1 0 0.1 0 0 0 0 0 0 0 0 0.1 0 0.1 0.1 0 0 0 0 0 0 0 0 0 0 0 0zm-0.3-0.4v-0.1-0.1-0.1-0.1q0 0 0 0 0 0 0 0 0 0 0 0 0 0 0-0.1 0 0 0-0.1v-0.2h0.1v0.2q0 0.1 0.1 0.1h0.1v0.1h-0.1q0 0 0 0-0.1 0-0.1 0 0 0 0 0 0 0 0 0v0.1l0.1 0.1q0 0 0 0 0 0 0 0 0 0.1 0 0.1 0 0 0 0l-0.1 0.1v-0.2h-0.1q0 0.1 0 0.1 0 0 0 0.1 0 0 0 0zm0.1 0.1q0 0 0 0.1 0 0 0 0 0 0 0 0 0 0 0 0 0 0 0 0 0.1 0 0.1 0 0 0 0 0 0 0 0 0 0 0 0-0.1 0 0 0 0 0 0 0 0-0.1 0-0.1 0 0 0 0 0zm-0.1-0.1q0 0 0 0zm0.3 0.4q0 0 0 0 0 0 0 0z"/>
	<path id="Layer" fill-rule="evenodd" class="s18" d="m10.8 12.5v0.1l-0.1 0.1h-0.1zm-0.2 0.1l0.1-0.2 0.1 0.1zm-0.3-0.4q0 0 0 0 0-0.1 0-0.1 0.1 0 0.1 0.1 0 0-0.1 0zm1.1 0.8q0-0.1 0-0.1 0 0 0 0 0.1 0 0.1 0 0 0 0-0.1 0 0 0 0 0 0 0 0 0 0 0 0l-0.2-0.2 0.1-0.1 0.1 0.2q0 0 0 0 0 0 0.1 0 0 0 0 0 0 0 0 0 0 0 0 0 0-0.1 0-0.1 0 0 0 0 0 0 0 0 0 0 0-0.1h0.1v0.1q0 0.1-0.1 0.1 0.1 0.1 0.1 0.1 0 0 0 0 0 0 0 0.1 0 0-0.1 0 0 0-0.1 0 0 0 0 0 0 0.1 0 0.1-0.1 0-0.1 0 0 0 0 0h-0.1q0.1 0 0.1 0zm0.3-0.5v-0.1h-0.1v0.1 0.1q0 0 0 0h-0.1c0 0 0.1-0.2 0.1-0.1v-0.1-0.1q0 0 0 0 0 0 0-0.1 0 0 0 0 0 0 0 0h-0.2v-0.1h0.2q0 0 0 0v-0.2h0.1v0.2q0 0 0 0 0 0 0.1 0 0 0 0 0 0 0.1 0 0.1 0 0 0 0 0 0 0 0-0.1 0-0.1 0.1 0 0 0 0v0.1h0.1v0.2h-0.1q0 0 0-0.1zm-0.1 0.3q0 0 0 0 0 0 0 0zm0 0q0 0 0 0 0 0 0 0-0.1 0-0.1 0 0 0 0 0 0 0 0 0 0 0 0 0 0 0 0 0 0.1 0.1 0.1 0 0 0 0 0 0 0 0 0 0 0 0 0 0 0 0 0 0 0 0 0zm0.1-1.3v0.3h-0.1v-0.3q0 0 0 0 0 0 0 0 0 0 0 0 0 0 0 0l-0.2 0.3h-0.1l0.3-0.3q0 0 0 0 0 0 0 0 0 0 0 0 0 0 0 0h-0.2v-0.1h0.2q0 0 0 0 0 0 0 0 0-0.1 0-0.1 0.1 0 0.1 0 0.1 0 0.1 0.1 0 0.1-0.1 0.1zm-0.7 0v0.2-0.2q0 0-0.1 0 0 0 0 0 0 0 0 0 0 0 0 0h-0.2v-0.1h0.2q0 0 0 0 0 0 0 0 0-0.1 0.1-0.1 0 0 0 0 0.1 0 0.1 0.1h0.2v0.1h-0.2q0 0 0 0 0 0 0 0 0 0 0 0-0.1 0-0.1 0zm0.4 1.4q0 0.1 0 0.1-0.1 0-0.1 0 0 0 0 0-0.1 0-0.1 0.1v-0.1q0 0 0 0 0.1 0 0.1 0 0-0.1 0-0.1 0 0 0.1 0zm0 0.1q0 0 0 0.1-0.1 0-0.1 0 0 0 0 0 0 0-0.1 0 0 0 0 0 0.1-0.1 0.1-0.1 0 0 0 0 0.1 0 0.1 0zm-1.2-1.2v-0.2zm0.1-0.2h0.1v0.2h-0.1zm1.2 0v0.2h0.1v-0.2z"/>
	<path id="Layer" fill-rule="evenodd" class="s18" d="m11.7 11.8h0.1v0.2h-0.1zm-0.4 0.9v0.1l-0.1-0.2zm-0.1-0.2l0.1-0.1 0.1 0.2h-0.1zm-0.6-0.6l0.1-0.1 0.1 0.2zm0.1 0.2l-0.1 0.1-0.1-0.2zm0.5-0.1l0.1-0.2 0.1 0.1zm0.2-0.2v0.1l-0.1 0.1h-0.1l0.2-0.2zm-0.9 0.4v-0.1h0.2v0.1zm0.3 0.1h-0.1-0.1-0.1zm-0.5-0.8q0 0 0.1 0 0 0 0 0 0 0 0 0-0.1 0-0.1 0zm0.5 0v0.1h-0.2v-0.1zm-0.2 0v-0.1h0.2v0.1zm1.1 0.8q0 0 0-0.1 0 0 0 0 0.1 0 0.1 0 0 0.1-0.1 0.1zm-0.4-0.1v-0.1h0.2v0.1zm0.2 0.1h-0.2zm-0.5 0.9q0-0.1 0-0.1 0.1 0 0.1 0.1 0 0-0.1 0 0 0 0 0zm0.1-0.6v0.1 0.1 0.1zm-0.1 0.2h-0.1v-0.2h0.1zm0.7-1.4q0 0 0 0 0 0 0 0 0 0 0.1 0-0.1 0-0.1 0zm-0.7 0q0 0 0 0 0 0 0 0 0.1 0 0.1 0 0 0-0.1 0zm0.5 0v0.1h-0.2l-0.1-0.1zm-0.2 0v-0.1h0.2v0.1zm-0.2 0.4h-0.1v-0.2h0.1zm0.1-0.2v0.2z"/>
	<path id="Layer" class="s7" d="m10.9 12.3q0 0 0-0.1 0 0 0 0 0 0 0.1 0 0 0 0 0 0.1 0 0.1 0.1 0 0 0 0 0 0 0 0.1 0 0-0.1 0 0 0 0 0 0 0 0 0-0.1 0-0.1 0 0-0.1 0-0.1 0 0 0 0z"/>
	<path id="Layer" class="s19" d="m11 9.6v-0.1c0 0 0 0-0.1 0q0 0 0 0 0 0 0 0 0 0 0 0-0.1 0-0.1 0 0-0.1 0-0.1-0.1 0-0.1 0 0 0 0 0.1 0.1 0 0.1 0 0 0 0 0 0 0 0 0 0 0.1 0 0.1c0 0 0.1 0 0.2 0z"/>
	<path id="Layer" fill-rule="evenodd" class="s5" d="m11 9.6v-0.1c0 0 0 0-0.1 0q0 0 0 0 0 0 0 0 0 0 0 0-0.1 0-0.1 0 0-0.1 0-0.1-0.1 0-0.1 0 0 0 0 0.1 0.1 0 0.1 0 0 0 0 0 0 0 0 0 0 0.1 0 0.1c0 0 0.1 0 0.2 0z"/>
	<path id="Layer" class="s20" d="m11.3 9.5q0 0.1 0 0.1 0 0.1 0 0.1v-0.1 0.1q0 0 0 0 0 0.1 0.1 0.1c0 0 0 0 0 0q0 0-0.1 0c0 0 0 0 0 0q0 0.1 0 0.1 0 0 0 0l-0.1-0.1c0 0 0 0.1 0 0.1v0.1q0 0 0 0v-0.1c0 0 0 0.1 0 0.1q0 0 0.1 0.2c0 0 0.1 0.1 0.2 0.1 0.1-0.1 0.1-0.2 0-0.3 0-0.1 0-0.2 0-0.2 0 0 0-0.1 0-0.1q0 0 0-0.1 0 0 0 0 0 0 0 0 0 0 0-0.1 0 0 0.1-0.1v-0.1 0.1 0.1c0 0 0-0.1 0.1-0.1q0 0 0-0.1h0.1c0 0 0 0.1-0.1 0.1v0.1q0 0 0 0 0 0 0 0.1c0 0 0 0-0.1 0 0 0.1 0 0.1 0 0.1-0.1 0 0 0.2 0 0.2 0 0 0 0.2 0 0.2 0 0.1 0 0.2 0 0.2-0.1 0.1-0.1 0.1-0.2 0.1q0 0 0 0.1c0 0.1 0 0.1 0 0.1q0.1 0 0.1 0 0 0.1 0 0.1c0 0 0 0 0 0.1 0 0-0.1 0-0.1 0.1q0 0 0 0c0 0 0.1 0 0 0.1q0 0 0-0.1v0.1q0 0 0-0.1h-0.1q0 0 0 0 0 0 0 0.1 0 0 0-0.1 0 0 0 0 0 0 0 0 0 0 0 0 0-0.1 0 0 0 0-0.1-0.1 0 0 0 0 0 0 0.1 0c0 0 0 0 0 0q0 0 0 0 0.1-0.1 0-0.1 0 0 0 0v-0.1 0.1c-0.1 0-0.1-0.1-0.1-0.1v0.1q0 0 0 0c0 0 0 0 0 0q0 0 0 0l-0.1-0.1c0 0 0-0.1 0-0.1h0.1-0.1q0 0-0.1 0 0 0 0 0.1 0.1 0.1 0.1 0.1 0 0 0 0 0 0 0 0-0.1 0-0.1 0 0 0 0 0 0 0-0.1 0 0 0-0.1 0 0 0 0 0 0 0.1 0 0.1-0.1 0-0.1-0.1 0 0 0 0 0.1 0 0 0 0 0 0 0 0 0 0 0c0-0.1-0.1-0.1 0-0.1q0 0 0 0 0 0 0 0 0 0 0 0v-0.1q0 0 0.1 0c0 0 0 0 0 0.1q0 0 0.1 0 0 0 0 0v-0.1q0 0 0 0v0.1-0.1-0.1 0.1q-0.1 0-0.1 0v-0.1c0.1 0 0.1-0.1 0.1-0.1h0.1 0.1c0 0-0.1-0.1-0.1-0.1-0.1 0-0.1 0-0.1-0.1q0 0 0 0 0 0-0.1 0 0 0 0 0 0 0 0 0 0 0 0 0 0 0 0 0l-0.1 0.1v-0.1c0 0 0 0 0 0.1v-0.1q0 0-0.1 0.1c0 0-0.1 0-0.1 0q0 0 0 0 0 0.1 0 0.1 0-0.1 0-0.1 0 0 0 0-0.1 0-0.1 0c0 0 0.1 0 0.1 0q0 0-0.1 0 0 0 0 0 0 0 0-0.1 0 0 0 0c0 0 0.1 0 0.1 0q0 0-0.1 0 0 0 0 0v-0.1q0 0 0.1 0 0 0 0 0.1c0 0 0.1 0 0.1-0.1h0.1v-0.1h-0.1q0 0 0 0 0 0 0 0 0 0 0 0 0 0-0.1 0c0 0 0-0.1 0-0.1q0 0 0 0h0.1-0.1q0 0-0.1 0 0 0 0.1 0c0 0 0-0.1 0-0.1h-0.1q0 0 0 0 0 0 0 0-0.1 0-0.1 0v-0.1q0 0 0 0h0.1q0 0 0 0-0.1 0-0.1-0.1h0.1q0 0 0 0c0 0 0 0 0 0q0.1 0 0 0 0 0 0.1-0.1 0 0.1 0 0.1 0 0 0 0 0 0 0 0 0 0 0 0 0 0 0 0 0 0.1 0 0.1 0 0 0 0 0 0 0 0 0 0 0 0 0 0 0 0 0 0 0.1 0 0 0.1 0 0.1c0 0 0.1 0 0.1 0q0.1 0 0.1 0c0 0 0.1 0 0.1 0q0 0 0 0c0 0 0-0.1 0-0.1q0 0 0 0c0.1 0 0.1 0 0.1 0q0-0.1 0-0.1-0.1 0-0.1 0 0-0.1 0-0.1 0 0 0.1 0 0 0 0 0 0 0 0.1-0.1 0 0 0.1 0.1c0.1 0 0.1 0.1 0.1 0.1"/>
	<path id="Layer" class="s21" d="m10.9 9.5v-0.1c0 0 0 0 0 0q0 0 0 0 0 0 0 0"/>
	<path id="Layer" fill-rule="evenodd" class="s5" d="m10.9 9.5v-0.1c0 0 0 0 0 0q0 0 0 0 0 0 0 0z"/>
	<path id="Layer" class="s21" d="m11.1 9.4q0 0 0 0 0.1 0 0.1 0-0.1 0-0.1 0 0 0 0 0z"/>
	<path id="Layer" fill-rule="evenodd" class="s5" d="m11.1 9.4q0 0 0 0 0.1 0 0.1 0-0.1 0-0.1 0 0 0 0 0z"/>
	<path id="Layer" fill-rule="evenodd" class="s5" d="m11.3 9.6q0 0 0 0 0 0 0 0 0 0 0 0 0 0 0 0"/>
	<path id="Layer" class="s19" d="m10.5 9.4q0 0.1 0 0.1 0 0 0-0.1c0 0 0 0 0 0q0 0 0 0 0 0 0 0z"/>
	<path id="Layer" fill-rule="evenodd" class="s5" d="m10.5 9.4q0 0.1 0 0.1 0 0 0-0.1c0 0 0 0 0 0q0 0 0 0 0 0 0 0z"/>
	<path id="Layer" class="s19" d="m10.4 9.5c0 0 0 0-0.1 0q0 0 0 0 0 0 0 0h0.1z"/>
	<path id="Layer" fill-rule="evenodd" class="s5" d="m10.4 9.5c0 0 0 0-0.1 0q0 0 0 0 0 0 0 0h0.1z"/>
	<path id="Layer" class="s19" d="m10.3 9.6q0 0 0 0c0 0.1 0 0.1 0 0.1q0 0 0 0h0.1l-0.1-0.1q0 0 0 0z"/>
	<path id="Layer" fill-rule="evenodd" class="s5" d="m10.3 9.6q0 0 0 0c0 0.1 0 0.1 0 0.1q0 0 0 0h0.1l-0.1-0.1q0 0 0 0z"/>
	<path id="Layer" class="s21" d="m10.9 9.6z"/>
	<path id="Layer" fill-rule="evenodd" class="s5" d="m10.9 9.6z"/>
	<path id="Layer" class="s21" d="m10.9 9.6h0.1-0.1"/>
	<path id="Layer" fill-rule="evenodd" class="s5" d="m10.9 9.6h0.1-0.1"/>
	<path id="Layer" class="s21" d="m10.9 9.5h0.1-0.1z"/>
	<path id="Layer" fill-rule="evenodd" class="s5" d="m10.9 9.5h0.1-0.1z"/>
	<path id="Layer" class="s21" d="m11 9.5z"/>
	<path id="Layer" fill-rule="evenodd" class="s5" d="m11 9.5z"/>
	<path id="Layer" fill-rule="evenodd" class="s5" d="m11.2 9.9h-0.1q0 0.1 0 0.1 0 0 0 0c0 0 0 0 0 0q0-0.1 0-0.1h-0.1q0 0.1 0 0.1 0 0 0 0 0 0 0 0v-0.1q0 0 0 0h-0.1q0 0 0 0 0 0 0 0 0 0 0 0 0 0 0 0l-0.1 0.1q0-0.1 0-0.1 0 0 0-0.1c0 0 0.1 0 0.1 0q-0.1 0-0.1 0-0.1 0-0.1 0 0 0 0 0 0-0.1 0.1-0.1m-0.1 0.3q0-0.1 0-0.1h0.1zm0.2 0.1l0.1-0.1q0 0 0 0 0 0 0 0 0 0 0 0 0 0 0 0z"/>
	<path id="Layer" class="s19" d="m10.4 10q0 0 0 0c0 0-0.1 0-0.1 0h0.1q0 0.1 0 0.1v-0.1z"/>
	<path id="Layer" fill-rule="evenodd" class="s5" d="m10.4 10q0 0 0 0c0 0-0.1 0-0.1 0h0.1q0 0.1 0 0.1v-0.1z"/>
	<path id="Layer" class="s19" d="m10.4 10.1q0 0 0 0-0.1 0.1-0.1 0.1 0 0 0.1 0 0-0.1 0-0.1z"/>
	<path id="Layer" fill-rule="evenodd" class="s5" d="m10.4 10.1q0 0 0 0-0.1 0.1-0.1 0.1 0 0 0.1 0 0-0.1 0-0.1z"/>
	<path id="Layer" class="s19" d="m10.5 10.2q-0.1 0.1 0 0.1 0 0 0 0 0 0 0 0 0 0 0-0.1"/>
	<path id="Layer" fill-rule="evenodd" class="s5" d="m10.5 10.2q-0.1 0.1 0 0.1 0 0 0 0 0 0 0 0 0 0 0-0.1zm0.7 0.3c0 0 0-0.1 0-0.1 0-0.1 0-0.1 0-0.1z"/>
	<path id="Layer" class="s19" d="m10.8 10.5q-0.1 0-0.1 0c0 0-0.1 0-0.1 0 0 0 0.1 0 0.1 0v0.1z"/>
	<path id="Layer" fill-rule="evenodd" class="s5" d="m10.8 10.5q-0.1 0-0.1 0c0 0-0.1 0-0.1 0 0 0 0.1 0 0.1 0v0.1z"/>
	<path id="Layer" class="s19" d="m10.7 10.6c0 0-0.1 0-0.1 0.1q0 0 0 0c0 0 0 0 0 0q0.1 0 0.1 0 0 0 0 0 0 0 0 0 0-0.1 0-0.1 0 0 0 0"/>
	<path id="Layer" fill-rule="evenodd" class="s5" d="m10.7 10.6c0 0-0.1 0-0.1 0.1q0 0 0 0c0 0 0 0 0 0q0.1 0 0.1 0 0 0 0 0 0 0 0 0 0-0.1 0-0.1 0 0 0 0z"/>
	<path id="Layer" class="s19" d="m10.7 10.8q0 0 0 0 0.1 0 0.1 0 0 0 0 0 0 0 0 0z"/>
	<path id="Layer" fill-rule="evenodd" class="s5" d="m10.7 10.8q0 0 0 0 0.1 0 0.1 0 0 0 0 0 0 0 0 0z"/>
	<path id="Layer" class="s19" d="m11.2 10.8q0 0 0 0c0 0 0 0.1 0 0.1q0 0 0-0.1v0.1-0.1q0 0 0 0 0 0 0 0 0 0 0 0 0 0 0 0z"/>
	<path id="Layer" fill-rule="evenodd" class="s5" d="m11.2 10.8q0 0 0 0c0 0 0 0.1 0 0.1q0 0 0-0.1v0.1-0.1q0 0 0 0 0 0 0 0 0 0 0 0 0 0 0 0z"/>
	<path id="Layer" class="s19" d="m11.3 10.9q-0.1 0-0.1 0.1 0 0 0 0 0 0 0 0 0.1 0 0.1 0 0 0 0 0 0 0 0 0 0 0 0 0v-0.1z"/>
	<path id="Layer" fill-rule="evenodd" class="s5" d="m11.3 10.9q-0.1 0-0.1 0.1 0 0 0 0 0 0 0 0 0.1 0 0.1 0 0 0 0 0 0 0 0 0 0 0 0 0v-0.1z"/>
	<path id="Layer" class="s19" d="m11.4 11c0 0 0 0 0 0q0 0 0 0c0 0 0 0 0 0q0 0 0 0v-0.1z"/>
	<path id="Layer" fill-rule="evenodd" class="s5" d="m11.4 11c0 0 0 0 0 0q0 0 0 0c0 0 0 0 0 0q0 0 0 0v-0.1z"/>
	<path id="Layer" class="s22" d="m10.1 13.2q0.1 0 0.1 0.1c0 0.1-0.1 0.2-0.2 0.2-0.1 0-0.2-0.1-0.2-0.2 0 0 0-0.1 0.1-0.1q0 0 0 0v-0.1l0.1 0.1v-0.1q0 0 0 0l0.1 0.1q0-0.1 0-0.1v0.1z"/>
	<path id="Layer" fill-rule="evenodd" class="s14" d="m9.8 13.6q-0.1 0-0.1 0 0 0 0 0 0 0-0.1 0 0 0 0-0.1h-0.1c0.1 0 0.2 0 0.3 0 0 0 0.2 0.1 0.2 0.1 0 0-0.1 0.1-0.2 0zm0.2 0c0 0 0.1-0.1 0.3-0.1 0.1 0 0.2 0 0.2 0q0 0-0.1 0.1c0 0 0 0-0.1 0-0.1 0-0.2 0-0.2 0z"/>
	<path id="Layer" class="s11" d="m10 13.5q0 0 0-0.1 0 0 0-0.1 0 0 0 0 0-0.1 0-0.1 0 0 0 0 0.1 0 0.1 0.1 0 0 0 0 0 0 0 0 0 0.1 0 0.1 0 0 0 0 0 0-0.1 0.1 0 0 0 0z"/>
	<path id="Layer" class="s14" d="m10 13.7c0 0 0-0.1 0-0.1v-0.1q0 0 0 0.1v0.1"/>
	<path id="Layer" class="s6" d="m12 7.9q0 0 0 0 0.1 0 0.1 0 0 0.1-0.1 0.1 0 0 0 0 0 0 0 0 0 0 0 0 0 0 0-0.1"/>
	<path id="Layer" fill-rule="evenodd" class="s5" d="m12 7.9q0 0 0 0 0.1 0 0.1 0 0 0.1-0.1 0.1 0 0 0 0 0 0 0 0 0 0 0 0 0 0 0-0.1z"/>
	<path id="Layer" class="s6" d="m12 7.8q0.1 0 0.1 0 0 0 0 0 0 0 0 0 0 0 0 0 0 0 0 0 0 0.1 0 0.1 0 0 0 0 0 0 0 0 0 0 0 0-0.1-0.1-0.1-0.1z"/>
	<path id="Layer" fill-rule="evenodd" class="s5" d="m12 7.8q0.1 0 0.1 0 0 0 0 0 0 0 0 0 0 0 0 0 0 0 0 0 0 0.1 0 0.1 0 0 0 0 0 0 0 0 0 0 0 0-0.1-0.1-0.1-0.1z"/>
	<path id="Layer" class="s6" d="m12.1 7.7q0 0 0 0 0 0 0 0 0.1 0 0.1 0 0 0 0 0 0 0 0 0 0 0.1-0.1 0.1 0 0 0 0 0 0 0-0.1 0 0 0 0 0 0 0 0z"/>
	<path id="Layer" fill-rule="evenodd" class="s5" d="m12.1 7.7q0 0 0 0 0 0 0 0 0.1 0 0.1 0 0 0 0 0 0 0 0 0 0 0.1-0.1 0.1 0 0 0 0 0 0 0-0.1 0 0 0 0 0 0 0 0z"/>
	<path id="Layer" class="s6" d="m12.1 7.6q0-0.1 0-0.1 0 0 0.1 0 0 0.1 0 0.1 0 0 0 0 0 0 0 0 0 0-0.1 0 0 0 0 0z"/>
	<path id="Layer" fill-rule="evenodd" class="s5" d="m12.1 7.6q0-0.1 0-0.1 0 0 0.1 0 0 0.1 0 0.1 0 0 0 0 0 0 0 0 0 0-0.1 0 0 0 0 0z"/>
	<path id="Layer" class="s6" d="m12.1 7.5q0-0.1 0-0.1 0 0 0 0 0 0 0 0 0 0 0 0 0 0 0 0.1 0 0 0 0 0 0 0 0 0 0 0 0 0 0 0 0 0 0 0 0z"/>
	<path id="Layer" fill-rule="evenodd" class="s5" d="m12.1 7.5q0-0.1 0-0.1 0 0 0 0 0 0 0 0 0 0 0 0 0 0 0 0.1 0 0 0 0 0 0 0 0 0 0 0 0 0 0 0 0 0 0 0 0z"/>
	<path id="Layer" class="s6" d="m12 7.3q0 0 0 0 0 0 0.1 0 0 0 0 0 0 0 0 0 0 0 0 0 0 0.1-0.1 0.1 0 0 0 0 0 0 0 0 0 0 0 0 0-0.1 0-0.1"/>
	<path id="Layer" fill-rule="evenodd" class="s5" d="m12 7.3q0 0 0 0 0 0 0.1 0 0 0 0 0 0 0 0 0 0 0 0 0 0 0.1-0.1 0.1 0 0 0 0 0 0 0 0 0 0 0 0 0-0.1 0-0.1z"/>
	<path id="Layer" class="s6" d="m11.9 7.2q0 0 0 0 0.1 0 0.1 0 0 0 0 0 0 0 0 0 0 0 0 0 0 0.1-0.1 0.1 0 0 0 0 0 0 0 0 0 0 0 0 0 0 0-0.1z"/>
	<path id="Layer" fill-rule="evenodd" class="s5" d="m11.9 7.2q0 0 0 0 0.1 0 0.1 0 0 0 0 0 0 0 0 0 0 0 0 0 0 0.1-0.1 0.1 0 0 0 0 0 0 0 0 0 0 0 0 0 0 0-0.1z"/>
	<path id="Layer" class="s6" d="m11.8 7.2q0-0.1 0-0.1 0.1 0 0.1 0.1 0 0-0.1 0 0 0 0 0 0 0 0 0 0 0 0 0 0 0 0 0"/>
	<path id="Layer" fill-rule="evenodd" class="s5" d="m11.8 7.2q0-0.1 0-0.1 0.1 0 0.1 0.1 0 0-0.1 0 0 0 0 0 0 0 0 0 0 0 0 0 0 0 0 0z"/>
	<path id="Layer" class="s6" d="m11.7 7.1q0 0 0 0 0.1 0 0.1 0 0 0-0.1 0 0 0 0 0 0 0 0 0 0 0 0 0 0 0 0 0z"/>
	<path id="Layer" fill-rule="evenodd" class="s5" d="m11.7 7.1q0 0 0 0 0.1 0 0.1 0 0 0-0.1 0 0 0 0 0 0 0 0 0 0 0 0 0 0 0 0 0z"/>
	<path id="Layer" class="s6" d="m11.5 7q0 0 0.1 0 0 0 0 0 0 0 0 0 0 0 0 0 0 0 0 0 0 0.1 0 0.1 0 0 0 0 0 0 0 0 0 0-0.1 0 0 0 0-0.1z"/>
	<path id="Layer" fill-rule="evenodd" class="s5" d="m11.5 7q0 0 0.1 0 0 0 0 0 0 0 0 0 0 0 0 0 0 0 0 0 0 0.1 0 0.1 0 0 0 0 0 0 0 0 0 0-0.1 0 0 0 0-0.1z"/>
	<path id="Layer" class="s6" d="m11.4 7q0 0 0 0 0.1 0 0.1 0 0 0.1-0.1 0.1 0 0 0 0 0 0 0 0 0-0.1 0-0.1 0 0 0 0"/>
	<path id="Layer" fill-rule="evenodd" class="s5" d="m11.4 7q0 0 0 0 0.1 0 0.1 0 0 0.1-0.1 0.1 0 0 0 0 0 0 0 0 0-0.1 0-0.1 0 0 0 0z"/>
	<path id="Layer" class="s6" d="m11.3 7q0 0 0 0 0 0 0 0 0 0 0 0 0 0 0 0 0.1 0 0.1 0-0.1 0.1-0.1 0.1 0 0 0 0 0-0.1 0-0.1 0 0 0 0 0 0 0 0"/>
	<path id="Layer" fill-rule="evenodd" class="s5" d="m11.3 7q0 0 0 0 0 0 0 0 0 0 0 0 0 0 0 0 0.1 0 0.1 0-0.1 0.1-0.1 0.1 0 0 0 0 0-0.1 0-0.1 0 0 0 0 0 0 0 0z"/>
	<path id="Layer" class="s6" d="m11.1 7q0 0 0.1 0 0 0 0 0 0 0.1 0 0.1 0 0 0 0-0.1 0-0.1-0.1 0 0 0 0 0 0 0 0z"/>
	<path id="Layer" fill-rule="evenodd" class="s5" d="m11.1 7q0 0 0.1 0 0 0 0 0 0 0.1 0 0.1 0 0 0 0-0.1 0-0.1-0.1 0 0 0 0 0 0 0 0z"/>
	<path id="Layer" class="s6" d="m11 7q0 0 0 0 0.1 0 0.1 0 0 0.1-0.1 0.1 0 0 0 0 0 0 0-0.1 0 0 0 0 0 0 0 0z"/>
	<path id="Layer" fill-rule="evenodd" class="s5" d="m11 7q0 0 0 0 0.1 0 0.1 0 0 0.1-0.1 0.1 0 0 0 0 0 0 0-0.1 0 0 0 0 0 0 0 0z"/>
	<path id="Layer" class="s13" d="m11.1 7.1q0 0 0 0 0 0 0 0 0 0.1 0 0.1 0 0 0 0 0 0 0 0 0 0 0 0 0-0.1 0-0.1zm0 0.2q0-0.1 0-0.1 0.1 0 0.1 0.1 0 0-0.1 0 0 0 0 0 0 0 0 0 0 0 0 0 0 0 0 0zm0 0.1q0 0 0 0 0-0.1 0.1 0 0 0 0 0 0 0 0 0 0 0 0 0 0 0-0.1 0 0 0 0 0 0 0 0 0 0 0 0 0 0 0 0 0zm0 0.1q0 0 0 0 0 0 0 0 0 0 0 0 0 0 0 0 0 0 0 0 0 0 0 0 0 0 0 0 0 0 0 0 0 0 0 0 0 0 0 0m-0.1 0.1q0 0 0 0 0.1 0 0.1 0 0 0.1-0.1 0.1 0 0 0 0 0-0.1 0-0.1 0 0 0 0 0 0 0 0z"/>
	<path id="Layer" class="s6" d="m10.9 6.9q0 0 0 0 0.1 0 0.1 0 0 0.1-0.1 0.1 0 0 0 0 0 0 0 0 0 0 0 0 0-0.1 0-0.1"/>
	<path id="Layer" fill-rule="evenodd" class="s5" d="m10.9 6.9q0 0 0 0 0.1 0 0.1 0 0 0.1-0.1 0.1 0 0 0 0 0 0 0 0 0 0 0 0 0-0.1 0-0.1z"/>
	<path id="Layer" class="s6" d="m10.8 6.9q0-0.1 0-0.1 0.1 0 0.1 0.1 0 0-0.1 0 0 0 0 0 0 0 0 0 0 0 0 0 0 0 0 0z"/>
	<path id="Layer" fill-rule="evenodd" class="s5" d="m10.8 6.9q0-0.1 0-0.1 0.1 0 0.1 0.1 0 0-0.1 0 0 0 0 0 0 0 0 0 0 0 0 0 0 0 0 0z"/>
	<path id="Layer" class="s6" d="m10.6 6.8q0 0 0.1 0 0 0 0 0 0 0.1 0 0.1 0 0 0 0 0 0 0 0-0.1 0-0.1-0.1 0 0 0 0"/>
	<path id="Layer" fill-rule="evenodd" class="s5" d="m10.6 6.8q0 0 0.1 0 0 0 0 0 0 0.1 0 0.1 0 0 0 0 0 0 0 0-0.1 0-0.1-0.1 0 0 0 0z"/>
	<path id="Layer" class="s6" d="m10.5 6.8q0 0 0 0 0.1 0 0.1 0 0 0-0.1 0 0 0 0 0 0 0 0 0 0 0 0 0 0 0 0 0"/>
	<path id="Layer" fill-rule="evenodd" class="s5" d="m10.5 6.8q0 0 0 0 0.1 0 0.1 0 0 0-0.1 0 0 0 0 0 0 0 0 0 0 0 0 0 0 0 0 0z"/>
	<path id="Layer" class="s6" d="m10.4 6.8q0 0 0 0 0 0 0.1 0-0.1 0-0.1 0.1 0 0 0-0.1 0 0 0 0 0 0 0 0 0 0 0 0z"/>
	<path id="Layer" fill-rule="evenodd" class="s5" d="m10.4 6.8q0 0 0 0 0 0 0.1 0-0.1 0-0.1 0.1 0 0 0-0.1 0 0 0 0 0 0 0 0 0 0 0 0z"/>
	<path id="Layer" class="s6" d="m10.2 6.8q0 0 0.1 0 0 0 0 0 0 0 0 0 0 0 0 0 0 0 0 0 0 0.1 0 0.1 0 0 0 0-0.1 0-0.1 0 0 0 0 0 0-0.1 0-0.1z"/>
	<path id="Layer" fill-rule="evenodd" class="s5" d="m10.2 6.8q0 0 0.1 0 0 0 0 0 0 0 0 0 0 0 0 0 0 0 0 0 0 0.1 0 0.1 0 0 0 0-0.1 0-0.1 0 0 0 0 0 0-0.1 0-0.1z"/>
	<path id="Layer" class="s6" d="m10.1 6.9q0-0.1 0-0.1 0.1 0 0.1 0.1 0 0-0.1 0 0 0 0 0 0 0 0 0 0 0 0 0 0 0 0 0z"/>
	<path id="Layer" fill-rule="evenodd" class="s5" d="m10.1 6.9q0-0.1 0-0.1 0.1 0 0.1 0.1 0 0-0.1 0 0 0 0 0 0 0 0 0 0 0 0 0 0 0 0 0z"/>
	<path id="Layer" class="s6" d="m7.9 7.9q0 0 0 0 0.1 0 0.1 0 0 0 0 0 0 0 0 0 0 0 0 0 0 0.1-0.1 0.1 0 0 0 0 0 0 0 0 0 0 0 0 0 0 0-0.1"/>
	<path id="Layer" fill-rule="evenodd" class="s5" d="m7.9 7.9q0 0 0 0 0.1 0 0.1 0 0 0 0 0 0 0 0 0 0 0 0 0 0 0.1-0.1 0.1 0 0 0 0 0 0 0 0 0 0 0 0 0 0 0-0.1z"/>
	<path id="Layer" class="s6" d="m7.8 7.8q0 0 0.1 0 0 0 0 0 0 0.1 0 0.1 0 0 0 0 0 0 0 0 0 0-0.1 0 0-0.1 0-0.1z"/>
	<path id="Layer" fill-rule="evenodd" class="s5" d="m7.8 7.8q0 0 0.1 0 0 0 0 0 0 0.1 0 0.1 0 0 0 0 0 0 0 0 0 0-0.1 0 0-0.1 0-0.1z"/>
	<path id="Layer" class="s6" d="m7.8 7.7q0 0 0 0 0.1 0 0.1 0 0 0 0 0 0 0 0 0 0 0 0 0 0 0.1-0.1 0.1 0 0 0 0 0 0 0-0.1 0 0 0 0 0 0 0 0z"/>
	<path id="Layer" fill-rule="evenodd" class="s5" d="m7.8 7.7q0 0 0 0 0.1 0 0.1 0 0 0 0 0 0 0 0 0 0 0 0 0 0 0.1-0.1 0.1 0 0 0 0 0 0 0-0.1 0 0 0 0 0 0 0 0z"/>
	<path id="Layer" class="s6" d="m7.8 7.6q0-0.1 0-0.1 0.1 0 0.1 0.1 0 0-0.1 0 0 0 0 0"/>
	<path id="Layer" fill-rule="evenodd" class="s5" d="m7.8 7.6q0-0.1 0-0.1 0.1 0 0.1 0.1 0 0-0.1 0 0 0 0 0z"/>
	<path id="Layer" class="s6" d="m7.8 7.5q0-0.1 0.1-0.1 0 0 0 0.1 0 0 0 0 0 0 0 0 0 0-0.1 0 0 0 0 0 0 0 0 0z"/>
	<path id="Layer" fill-rule="evenodd" class="s5" d="m7.8 7.5q0-0.1 0.1-0.1 0 0 0 0.1 0 0 0 0 0 0 0 0 0 0-0.1 0 0 0 0 0 0 0 0 0z"/>
	<path id="Layer" class="s6" d="m7.9 7.3q0 0 0 0 0 0 0.1 0 0 0 0 0 0 0 0 0 0 0 0 0 0 0.1-0.1 0.1 0 0 0 0 0 0 0 0 0 0 0 0 0-0.1 0-0.1"/>
	<path id="Layer" fill-rule="evenodd" class="s5" d="m7.9 7.3q0 0 0 0 0 0 0.1 0 0 0 0 0 0 0 0 0 0 0 0 0 0 0.1-0.1 0.1 0 0 0 0 0 0 0 0 0 0 0 0 0-0.1 0-0.1z"/>
	<path id="Layer" class="s6" d="m8 7.3q0 0 0-0.1 0 0 0 0 0.1 0 0.1 0 0 0.1-0.1 0.1z"/>
	<path id="Layer" fill-rule="evenodd" class="s5" d="m8 7.3q0 0 0-0.1 0 0 0 0 0.1 0 0.1 0 0 0.1-0.1 0.1z"/>
	<path id="Layer" class="s6" d="m8.1 7.2q0-0.1 0-0.1 0.1 0 0.1 0.1 0 0-0.1 0 0 0 0 0 0 0 0 0 0 0 0 0 0 0 0 0"/>
	<path id="Layer" fill-rule="evenodd" class="s5" d="m8.1 7.2q0-0.1 0-0.1 0.1 0 0.1 0.1 0 0-0.1 0 0 0 0 0 0 0 0 0 0 0 0 0 0 0 0 0z"/>
	<path id="Layer" class="s6" d="m8.2 7.1q0 0 0.1 0 0 0 0 0 0 0 0 0 0 0 0 0 0 0 0 0 0 0 0 0 0 0-0.1 0 0 0 0 0 0 0 0 0 0 0 0 0z"/>
	<path id="Layer" fill-rule="evenodd" class="s5" d="m8.2 7.1q0 0 0.1 0 0 0 0 0 0 0 0 0 0 0 0 0 0 0 0 0 0 0 0 0 0 0-0.1 0 0 0 0 0 0 0 0 0 0 0 0 0z"/>
	<path id="Layer" class="s6" d="m8.3 7q0.1 0 0.1 0 0 0 0 0 0 0.1 0 0.1 0 0 0 0 0 0 0 0 0 0 0 0-0.1 0-0.1-0.1z"/>
	<path id="Layer" fill-rule="evenodd" class="s5" d="m8.3 7q0.1 0 0.1 0 0 0 0 0 0 0.1 0 0.1 0 0 0 0 0 0 0 0 0 0 0 0-0.1 0-0.1-0.1z"/>
	<path id="Layer" class="s6" d="m8.5 7q0 0 0 0 0 0 0.1 0 0 0 0 0 0 0 0 0 0 0 0 0 0 0.1-0.1 0.1 0 0 0 0 0 0 0 0 0-0.1 0-0.1 0 0 0 0z"/>
	<path id="Layer" fill-rule="evenodd" class="s5" d="m8.5 7q0 0 0 0 0 0 0.1 0 0 0 0 0 0 0 0 0 0 0 0 0 0 0.1-0.1 0.1 0 0 0 0 0 0 0 0 0-0.1 0-0.1 0 0 0 0z"/>
	<path id="Layer" class="s6" d="m8.6 7q0 0 0.1 0 0 0 0 0 0 0.1 0 0.1 0 0 0 0 0 0-0.1-0.1 0 0 0 0 0 0 0 0z"/>
	<path id="Layer" fill-rule="evenodd" class="s5" d="m8.6 7q0 0 0.1 0 0 0 0 0 0 0.1 0 0.1 0 0 0 0 0 0-0.1-0.1 0 0 0 0 0 0 0 0z"/>
	<path id="Layer" class="s6" d="m8.8 7q0 0 0 0 0 0 0 0 0 0 0 0 0 0 0 0 0 0 0 0 0 0.1 0 0.1 0 0 0 0 0 0 0-0.1 0 0 0 0 0 0 0 0z"/>
	<path id="Layer" fill-rule="evenodd" class="s5" d="m8.8 7q0 0 0 0 0 0 0 0 0 0 0 0 0 0 0 0 0 0 0 0 0 0.1 0 0.1 0 0 0 0 0 0 0-0.1 0 0 0 0 0 0 0 0z"/>
	<path id="Layer" class="s6" d="m8.9 7q0 0 0 0 0.1 0 0.1 0 0 0.1-0.1 0.1 0 0 0 0 0 0 0-0.1 0 0 0 0 0 0 0 0z"/>
	<path id="Layer" fill-rule="evenodd" class="s5" d="m8.9 7q0 0 0 0 0.1 0 0.1 0 0 0.1-0.1 0.1 0 0 0 0 0 0 0-0.1 0 0 0 0 0 0 0 0z"/>
	<path id="Layer" class="s13" d="m8.8 7.1q0 0 0.1 0 0 0 0 0 0 0.1 0 0.1 0 0 0 0 0 0-0.1 0 0 0 0 0 0-0.1 0-0.1m0 0.2q0 0 0 0 0-0.1 0-0.1 0.1 0 0.1 0.1 0 0-0.1 0zm0 0.1q0 0 0 0 0.1 0 0.1 0 0 0-0.1 0 0 0 0 0 0 0 0 0 0 0 0 0 0 0 0 0zm0 0.1q0 0 0.1 0 0 0 0 0 0 0 0 0 0 0 0 0 0 0 0 0 0 0 0 0 0 0 0 0 0 0 0 0-0.1 0-0.1 0 0 0 0 0m0.1 0.1q0 0 0.1 0 0 0 0 0 0 0.1 0 0.1-0.1 0-0.1-0.1 0 0 0 0 0 0 0 0 0 0 0 0z"/>
	<path id="Layer" class="s6" d="m9 6.9q0 0 0 0 0.1 0 0.1 0 0 0.1-0.1 0.1 0 0 0 0 0 0 0 0 0 0 0 0 0-0.1 0-0.1"/>
	<path id="Layer" fill-rule="evenodd" class="s5" d="m9 6.9q0 0 0 0 0.1 0 0.1 0 0 0.1-0.1 0.1 0 0 0 0 0 0 0 0 0 0 0 0 0-0.1 0-0.1z"/>
	<path id="Layer" class="s6" d="m9.1 6.9q0-0.1 0.1-0.1 0 0 0 0.1 0 0 0 0 0 0 0 0-0.1 0-0.1 0 0 0 0 0 0 0 0 0z"/>
	<path id="Layer" fill-rule="evenodd" class="s5" d="m9.1 6.9q0-0.1 0.1-0.1 0 0 0 0.1 0 0 0 0 0 0 0 0-0.1 0-0.1 0 0 0 0 0 0 0 0 0z"/>
	<path id="Layer" class="s6" d="m9.3 6.8q0 0 0 0 0 0 0 0 0 0.1 0 0.1 0 0 0 0 0 0 0 0 0 0 0-0.1 0 0 0 0"/>
	<path id="Layer" fill-rule="evenodd" class="s5" d="m9.3 6.8q0 0 0 0 0 0 0 0 0 0.1 0 0.1 0 0 0 0 0 0 0 0 0 0 0-0.1 0 0 0 0z"/>
	<path id="Layer" class="s6" d="m9.4 6.8q0 0 0 0 0 0 0 0 0.1 0 0.1 0 0 0 0 0 0 0 0 0 0 0-0.1 0 0 0 0 0 0 0 0 0 0 0 0 0 0 0 0 0z"/>
	<path id="Layer" fill-rule="evenodd" class="s5" d="m9.4 6.8q0 0 0 0 0 0 0 0 0.1 0 0.1 0 0 0 0 0 0 0 0 0 0 0-0.1 0 0 0 0 0 0 0 0 0 0 0 0 0 0 0 0 0z"/>
	<path id="Layer" class="s6" d="m9.5 6.8q0 0 0.1 0 0 0 0 0 0 0 0 0 0 0 0 0 0 0 0 0 0 0 0 0.1 0 0 0 0-0.1-0.1-0.1-0.1 0 0 0 0 0 0 0 0z"/>
	<path id="Layer" fill-rule="evenodd" class="s5" d="m9.5 6.8q0 0 0.1 0 0 0 0 0 0 0 0 0 0 0 0 0 0 0 0 0 0 0 0 0.1 0 0 0 0-0.1-0.1-0.1-0.1 0 0 0 0 0 0 0 0z"/>
	<path id="Layer" class="s6" d="m9.7 6.8q0 0 0 0 0 0 0 0 0 0 0 0 0 0 0.1 0 0 0 0 0 0 0.1-0.1 0.1 0 0 0 0 0 0 0 0 0 0 0 0 0-0.1 0-0.1"/>
	<path id="Layer" fill-rule="evenodd" class="s5" d="m9.7 6.8q0 0 0 0 0 0 0 0 0 0 0 0 0 0 0.1 0 0 0 0 0 0 0.1-0.1 0.1 0 0 0 0 0 0 0 0 0 0 0 0 0-0.1 0-0.1z"/>
	<path id="Layer" class="s6" d="m9.8 6.9q0-0.1 0-0.1 0.1 0 0.1 0.1 0 0-0.1 0 0 0 0 0 0 0 0 0 0 0 0 0 0 0 0 0z"/>
	<path id="Layer" fill-rule="evenodd" class="s5" d="m9.8 6.9q0-0.1 0-0.1 0.1 0 0.1 0.1 0 0-0.1 0 0 0 0 0 0 0 0 0 0 0 0 0 0 0 0 0z"/>
	<path id="Layer" fill-rule="evenodd" class="s12" d="m8.7 9.5h-0.1v0.1 0.1h-0.1v0.3h0.1v0.6h-0.2v0.3h1.2v-0.3h-0.2v-0.6h0.1v-0.3h-0.1v-0.1-0.1h-0.1-0.1-0.1v0.1h0.1v0.1h-0.1v-0.3-0.1h-0.1-0.1v0.1 0.3h-0.1v-0.1h0.1v-0.1h-0.1-0.1zm-0.3 1.4h1.2m-1.2 0h1.2m-1.2-0.1h1.2m-1.2-0.1h1.2m-1.2-0.1h1.2m-1 0h0.8m-0.8-0.1h0.8m-0.8-0.1h0.8m-0.8-0.1h0.8m-0.8 0h0.8m-0.8-0.1h0.8m-0.8-0.1h0.8m-0.9-0.1h1m-1 0h1m-1-0.1h1m-1-0.1h1m-0.9 0h0.7m-0.4-0.1h0.2m-0.2-0.1h0.2m-0.2-0.1h0.2m-0.2 0h0.2m-0.2-0.1h0.2m-0.5 0.3h0.2m-0.2-0.1h0.2m-0.2 1.3m0-0.1v-0.1m-0.1 0.1v0.1m0.1 0v-0.1m0.1 0.1m0-0.1v-0.1m0-0.1m0-0.1v-0.1m-0.1 0.3v-0.1m-0.1 0.1v-0.1m0.3 0v0.1m0.1-0.1m-0.3-0.1v0.1m0.2-0.1v0.1m0.1-0.1v0.1m0-0.1v-0.1m0-0.1v0.1m0-0.2v0.1m0-0.2v0.1m0-0.1m-0.1-0.1v0.1m-0.2-0.1v0.1m0-0.1v0.1m0.1-0.1v0.1m0.2-0.1v0.1m0-0.2v0.1m-0.1-0.1v0.1m-0.2-0.1v0.1m0-0.2v0.1m0.2-0.1v0.1m-0.1-0.2v0.1m0.6-0.1h-0.1m0.2-0.1h-0.3m0.3 1.3m0-0.1v-0.1m0.1 0.1v0.1m-0.2 0v-0.1m0 0.1m0-0.1v-0.1m0-0.1m0-0.1v-0.1m0.1 0.3v-0.1m0.1 0.1v-0.1m-0.3 0v0.1m-0.1-0.1m0.2-0.1v0.1m-0.1-0.1v0.1m-0.1-0.1v0.1m0-0.1v-0.1m0-0.1v0.1m0-0.2v0.1m0-0.2v0.1m0-0.1m0.1-0.1v0.1m0.2-0.1v0.1m0-0.1v0.1m-0.1-0.1v0.1m-0.2-0.1v0.1m0-0.2v0.1m0.1-0.1v0.1m0.1-0.1v0.1m0.1-0.2v0.1m-0.3-0.1v0.1m0.2-0.2v0.1m-0.3 0.7v-0.1m0-0.2v-0.1m0 0.2m0-0.3m0-0.1v-0.1m0-0.1v-0.1m0-0.1m-0.4 0.2h0.2m0.1-0.3h0.2m0.1 0.3h0.1"/>
	<path id="Layer" class="s12" d="m9.2 10.9v-0.2c0 0 0-0.1-0.2-0.1-0.2 0-0.2 0.1-0.2 0.1v0.2z"/>
	<path id="Layer" fill-rule="evenodd" class="s12" d="m8.9 10.8l-0.1-0.1q0 0 0-0.1l0.1 0.1q0 0 0 0.1zm0.2-0.1l0.1-0.1q0 0.1 0 0.1l-0.1 0.1q0-0.1 0-0.1zm-0.1 0l-0.1-0.1q0.1 0 0.1 0 0 0 0 0 0 0 0 0 0 0 0.1 0 0 0 0 0l-0.1 0.1zm-0.1-0.3h-0.2v-0.2q0-0.1 0.1-0.1 0.1 0 0.1 0.1zm0.3-0.2q0-0.1 0.1-0.1 0.1 0 0.1 0.1v0.2h-0.2zm-0.2-0.3v-0.2h0.2l-0.1 0.2zm0.3 0v-0.2h0.2v0.2zm-0.6 0v-0.2h0.2v0.2z"/>
	<path id="Layer" fill-rule="evenodd" class="s23" d="m8.9 10.9v-0.1q0 0 0-0.1 0 0 0 0 0 0 0.1 0 0 0 0 0c0.1 0 0.1 0 0.1 0.1v0.1zm-0.2-0.5v-0.2q0 0 0.1-0.1 0.1 0.1 0.1 0.1v0.2zm0.5 0v-0.2q0 0 0.1-0.1 0 0.1 0 0.1v0.2z"/>
	<path id="Layer" class="s2" d="m10 12c-0.4 0-0.6-0.4-0.6-0.8 0-0.4 0.2-0.7 0.6-0.7 0.4 0 0.7 0.3 0.7 0.7 0 0.4-0.3 0.8-0.7 0.8z"/>
	<path id="Layer" fill-rule="evenodd" class="s5" d="m10 12c-0.4 0-0.6-0.4-0.6-0.8 0-0.4 0.2-0.7 0.6-0.7 0.4 0 0.7 0.3 0.7 0.7 0 0.4-0.3 0.8-0.7 0.8z"/>
	<path id="Layer" class="s8" d="m10 11.8c-0.2 0-0.5-0.3-0.5-0.6 0-0.3 0.3-0.5 0.5-0.5 0.3 0 0.5 0.2 0.5 0.5 0 0.3-0.2 0.6-0.5 0.6z"/>
	<path id="Layer" fill-rule="evenodd" class="s5" d="m10 11.8c-0.2 0-0.5-0.3-0.5-0.6 0-0.3 0.3-0.5 0.5-0.5 0.3 0 0.5 0.2 0.5 0.5 0 0.3-0.2 0.6-0.5 0.6z"/>
	<path id="Layer" class="s4" d="m9.8 10.9c0 0-0.1 0-0.1 0.1q0 0.1 0.1 0.1 0 0-0.1 0 0 0 0 0 0 0 0-0.1 0 0 0 0 0 0 0 0.1 0 0 0 0 0 0-0.1 0 0 0 0 0h0.1v0.1q0 0 0 0 0 0 0 0v0.1h0.1 0.1l-0.1-0.1h0.1-0.1q0 0 0 0 0 0 0 0 0 0 0 0 0 0 0 0 0 0 0.1 0 0 0 0 0v-0.1q0 0 0-0.1-0.1 0-0.1 0.1 0 0 0-0.1c0-0.1 0-0.1 0-0.1"/>
	<path id="Layer" fill-rule="evenodd" class="s3" d="m9.8 10.9c0 0-0.1 0-0.1 0.1q0 0.1 0.1 0.1 0 0-0.1 0 0 0 0 0 0 0 0-0.1 0 0 0 0 0 0 0 0.1 0 0 0 0 0 0-0.1 0 0 0 0 0h0.1v0.1q0 0 0 0 0 0 0 0v0.1h0.1 0.1l-0.1-0.1h0.1-0.1q0 0 0 0 0 0 0 0 0 0 0 0 0 0 0 0 0 0 0.1 0 0 0 0 0v-0.1q0 0 0-0.1-0.1 0-0.1 0.1 0 0 0-0.1c0-0.1 0-0.1 0-0.1z"/>
	<path id="Layer" class="s4" d="m9.7 11.2h0.2-0.2z"/>
	<path id="Layer" fill-rule="evenodd" class="s5" d="m9.7 11.2h0.2-0.2z"/>
	<path id="Layer" class="s4" d="m10.2 10.9c0 0 0 0 0 0.1q0 0.1 0 0.1 0-0.1-0.1-0.1 0 0.1 0 0.1v0.1q0 0 0 0 0 0 0.1 0 0 0 0 0 0 0 0 0 0 0 0 0 0 0 0 0 0 0 0 0 0 0 0 0 0 0 0 0h-0.1 0.1l-0.1 0.1h0.1 0.1v-0.1q0 0 0 0 0 0 0 0 0 0 0 0 0 0 0 0 0 0 0 0 0 0 0 0l0.1-0.1q0 0-0.1-0.1 0 0-0.1 0.1 0.1 0 0.1-0.1c0-0.1-0.1-0.1-0.1-0.1"/>
	<path id="Layer" fill-rule="evenodd" class="s3" d="m10.2 10.9c0 0 0 0 0 0.1q0 0.1 0 0.1 0-0.1-0.1-0.1 0 0.1 0 0.1v0.1q0 0 0 0 0 0 0.1 0 0 0 0 0 0 0 0 0 0 0 0 0 0 0 0 0 0 0 0 0 0 0 0 0 0 0 0 0h-0.1 0.1l-0.1 0.1h0.1 0.1v-0.1q0 0 0 0 0 0 0 0 0 0 0 0 0 0 0 0 0 0 0 0 0 0 0 0l0.1-0.1q0 0-0.1-0.1 0 0-0.1 0.1 0.1 0 0.1-0.1c0-0.1-0.1-0.1-0.1-0.1z"/>
	<path id="Layer" class="s4" d="m10.1 11.2h0.2-0.2z"/>
	<path id="Layer" fill-rule="evenodd" class="s5" d="m10.1 11.2h0.2-0.2z"/>
	<path id="Layer" class="s4" d="m10 11.2c0 0-0.1 0.1-0.1 0.2q0.1 0 0.1 0.1 0-0.1 0-0.1 0 0-0.1 0 0 0 0 0 0 0 0 0 0 0 0 0 0 0 0 0 0 0 0 0 0 0.1 0 0.1 0 0 0 0 0.1 0 0.1 0.1 0 0 0 0 0 0 0 0 0 0 0 0 0 0 0 0h-0.1 0.1l-0.1 0.1h0.1 0.1l-0.1-0.1h0.1-0.1q0 0 0 0 0 0 0 0 0 0 0 0 0 0 0 0 0-0.1 0.1-0.1 0 0 0 0 0 0 0.1 0-0.1-0.1-0.1-0.1 0 0 0 0 0 0 0 0-0.1 0-0.1 0 0 0 0 0.1c0 0 0.1-0.1 0.1-0.2 0 0-0.1-0.1-0.1-0.1"/>
	<path id="Layer" fill-rule="evenodd" class="s3" d="m10 11.2c0 0-0.1 0.1-0.1 0.2q0.1 0 0.1 0.1 0-0.1 0-0.1 0 0-0.1 0 0 0 0 0 0 0 0 0 0 0 0 0 0 0 0 0 0 0 0 0 0 0.1 0 0.1 0 0 0 0 0.1 0 0.1 0.1 0 0 0 0 0 0 0 0 0 0 0 0 0 0 0 0h-0.1 0.1l-0.1 0.1h0.1 0.1l-0.1-0.1h0.1-0.1q0 0 0 0 0 0 0 0 0 0 0 0 0 0 0 0 0-0.1 0.1-0.1 0 0 0 0 0 0 0.1 0-0.1-0.1-0.1-0.1 0 0 0 0 0 0 0 0-0.1 0-0.1 0 0 0 0 0.1c0 0 0.1-0.1 0.1-0.2 0 0-0.1-0.1-0.1-0.1z"/>
	<path id="Layer" class="s4" d="m9.9 11.6h0.2-0.2z"/>
	<path id="Layer" fill-rule="evenodd" class="s5" d="m9.9 11.6h0.2-0.2z"/>
	<path id="Layer" class="s4" d="m11.3 9.3q0 0 0 0 0 0 0 0 0 0 0 0 0 0 0 0 0 0-0.1 0 0 0 0 0 0 0 0 0 0 0 0 0 0 0 0 0 0 0 0 0 0 0 0 0 0 0 0 0 0 0 0 0 0 0 0 0 0 0 0 0 0 0 0 0 0 0 0 0 0 0 0 0 0 0 0 0c-0.1 0-0.1-0.1-0.1-0.1v0.1q0 0 0 0 0 0 0 0 0 0 0 0 0 0 0 0 0.1 0 0.1 0.1 0 0 0.1 0 0 0 0 0 0 0 0 0.1 0 0 0 0h0.1q0 0 0 0v-0.1c0 0 0 0.1 0 0q0 0 0 0 0 0 0 0 0 0 0 0 0 0 0 0 0 0 0 0-0.1 0-0.1 0 0 0 0 0 0 0 0 0 0 0 0 0 0 0 0 0 0 0 0 0 0 0 0 0 0 0 0 0 0 0 0 0 0 0 0 0 0 0 0-0.1 0 0 0 0 0 0 0 0 0 0 0 0 0 0 0 0 0 0 0 0 0 0 0 0z"/>
	<path id="Layer" fill-rule="evenodd" class="s5" d="m11.3 9.3q0 0 0 0 0 0 0 0 0 0 0 0 0 0 0 0 0 0-0.1 0 0 0 0 0 0 0 0 0 0 0 0 0 0 0 0 0 0 0 0 0 0 0 0 0 0 0 0 0 0 0 0 0 0 0 0 0 0 0 0 0 0 0 0 0 0 0 0 0 0 0 0 0 0 0 0 0c-0.1 0-0.1-0.1-0.1-0.1v0.1q0 0 0 0 0 0 0 0 0 0 0 0 0 0 0 0 0.1 0 0.1 0.1 0 0 0.1 0 0 0 0 0 0 0 0 0.1 0 0 0 0h0.1q0 0 0 0v-0.1c0 0 0 0.1 0 0q0 0 0 0 0 0 0 0 0 0 0 0 0 0 0 0 0 0 0 0-0.1 0-0.1 0 0 0 0 0 0 0 0 0 0 0 0 0 0 0 0 0 0 0 0 0 0 0 0 0 0 0 0 0 0 0 0 0 0 0 0 0 0 0 0-0.1 0 0 0 0 0 0 0 0 0 0 0 0 0 0 0 0 0 0 0 0 0 0 0 0z"/>
	<path id="Layer" class="s21" d="m11.2 9.3q0 0 0 0"/>
	<path id="Layer" fill-rule="evenodd" class="s5" d="m11.2 9.3q0 0 0 0z"/>
	<path id="Layer" class="s21" d="m11.3 9.4h-0.1 0.1q0 0 0 0z"/>
	<path id="Layer" fill-rule="evenodd" class="s5" d="m11.3 9.4h-0.1 0.1q0 0 0 0z"/>
	<path id="Layer" class="s21" d="m11.2 9.3q0 0 0 0z"/>
	<path id="Layer" fill-rule="evenodd" class="s5" d="m11.2 9.3q0 0 0 0z"/>
	<path id="Layer" class="s21" d="m11.1 9.3h0.1-0.1z"/>
	<path id="Layer" fill-rule="evenodd" class="s5" d="m11.1 9.3h0.1-0.1z"/>
	<path id="Layer" class="s21" d="m11.3 9.4z"/>
	<path id="Layer" fill-rule="evenodd" class="s5" d="m11.3 9.4z"/>
	<path id="Layer" class="s21" d="m11.3 9.4q0 0 0 0z"/>
	<path id="Layer" fill-rule="evenodd" class="s5" d="m11.3 9.4q0 0 0 0z"/>
	<path id="Layer" class="s21" d="m11.4 9.5v-0.1h-0.1v0.1h0.1"/>
	<path id="Layer" fill-rule="evenodd" class="s5" d="m11.4 9.5v-0.1h-0.1v0.1h0.1z"/>
	<path id="Layer" class="s4" d="m11.2 9.2v0.1l0.1-0.1z"/>
	<path id="Layer" fill-rule="evenodd" class="s5" d="m11.2 9.2v0.1l0.1-0.1z"/>
	<path id="Layer" class="s4" d="m11.2 9.2v0.1-0.1z"/>
	<path id="Layer" fill-rule="evenodd" class="s5" d="m11.2 9.2v0.1-0.1z"/>
	<path id="Layer" class="s4" d="m11.3 9.3h-0.1 0.1z"/>
	<path id="Layer" fill-rule="evenodd" class="s5" d="m11.3 9.3h-0.1 0.1z"/>
	<path id="Layer" class="s4" d="m11.2 9.3q0-0.1 0-0.1 0 0 0 0 0 0 0 0 0 0 0 0 0 0 0 0 0 0.1 0 0.1 0 0 0 0 0 0 0 0 0 0 0 0 0 0 0 0 0 0 0 0 0 0 0 0 0 0 0 0 0 0 0 0 0 0 0 0 0 0 0-0.1"/>
	<path id="Layer" fill-rule="evenodd" class="s5" d="m11.2 9.3q0-0.1 0-0.1 0 0 0 0 0 0 0 0 0 0 0 0 0 0 0 0 0 0.1 0 0.1 0 0 0 0 0 0 0 0 0 0 0 0 0 0 0 0 0 0 0 0 0 0 0 0 0 0 0 0 0 0 0 0 0 0 0 0 0 0 0-0.1z"/>
	<path id="Layer" class="s4" d="m11.1 9.2q0 0 0 0 0 0 0 0 0 0 0 0 0 0 0 0 0 0 0 0 0 0 0 0z"/>
	<path id="Layer" fill-rule="evenodd" class="s5" d="m11.1 9.2q0 0 0 0 0 0 0 0 0 0 0 0 0 0 0 0 0 0 0 0 0 0 0 0z"/>
	<path id="Layer" class="s4" d="m11.2 9.2h-0.1 0.1z"/>
	<path id="Layer" fill-rule="evenodd" class="s5" d="m11.2 9.2h-0.1 0.1z"/>
	<path id="Layer" class="s4" d="m11.1 9.2q0 0 0 0 0 0 0 0 0 0 0 0"/>
	<path id="Layer" fill-rule="evenodd" class="s5" d="m11.1 9.2q0 0 0 0 0 0 0 0 0 0 0 0z"/>
	<path id="Layer" class="s4" d="m11.3 9.3z"/>
	<path id="Layer" fill-rule="evenodd" class="s5" d="m11.3 9.3z"/>
	<path id="Layer" class="s4" d="m11.3 9.3z"/>
	<path id="Layer" fill-rule="evenodd" class="s5" d="m11.3 9.3z"/>
	<path id="Layer" class="s4" d="m11.3 9.3z"/>
	<path id="Layer" fill-rule="evenodd" class="s5" d="m11.3 9.3z"/>
	<path id="Layer" class="s4" d="m11.3 9.3q0 0 0 0 0 0 0 0 0 0 0 0 0 0 0 0 0 0 0 0 0 0 0 0 0 0 0 0 0 0 0 0 0 0 0 0 0 0 0 0 0 0 0 0 0 0 0 0 0 0 0 0"/>
	<path id="Layer" fill-rule="evenodd" class="s5" d="m11.3 9.3q0 0 0 0 0 0 0 0 0 0 0 0 0 0 0 0 0 0 0 0 0 0 0 0 0 0 0 0 0 0 0 0 0 0 0 0 0 0 0 0 0 0 0 0 0 0 0 0 0 0 0 0z"/>
	<path id="Layer" class="s4" d="m11.4 9.3v0.1-0.1z"/>
	<path id="Layer" fill-rule="evenodd" class="s5" d="m11.4 9.3v0.1-0.1z"/>
	<path id="Layer" class="s4" d="m11.4 9.4"/>
	<path id="Layer" fill-rule="evenodd" class="s5" d="m11.4 9.4"/>
	<path id="Layer" class="s4" d="m11.3 9.3v0.1h0.1v-0.1z"/>
	<path id="Layer" fill-rule="evenodd" class="s5" d="m11.3 9.3v0.1h0.1v-0.1z"/>
	<path id="Layer" class="s4" d="m11.4 9.4q0 0 0 0 0 0 0 0 0 0 0 0 0 0 0 0 0 0 0 0 0 0 0 0 0 0 0 0 0 0 0 0 0 0 0 0 0 0 0 0 0 0 0 0 0 0 0 0 0 0 0 0 0 0 0 0 0 0 0 0 0 0 0 0"/>
	<path id="Layer" fill-rule="evenodd" class="s5" d="m11.4 9.4q0 0 0 0 0 0 0 0 0 0 0 0 0 0 0 0 0 0 0 0 0 0 0 0 0 0 0 0 0 0 0 0 0 0 0 0 0 0 0 0 0 0 0 0 0 0 0 0 0 0 0 0 0 0 0 0 0 0 0 0 0 0 0 0z"/>
	<path id="Layer" class="s4" d="m11.4 9.5h0.1q0 0 0 0 0 0 0 0 0 0 0 0 0 0 0 0 0 0 0-0.1 0 0-0.1 0z"/>
	<path id="Layer" fill-rule="evenodd" class="s5" d="m11.4 9.5h0.1q0 0 0 0 0 0 0 0 0 0 0 0 0 0 0 0 0 0 0-0.1 0 0-0.1 0z"/>
	<path id="Layer" class="s4" d="m11.4 9.4v0.1-0.1"/>
	<path id="Layer" fill-rule="evenodd" class="s5" d="m11.4 9.4v0.1-0.1"/>
	<path id="Layer" class="s4" d="m11.4 9.5q0.1 0 0-0.1 0 0.1 0 0.1"/>
	<path id="Layer" fill-rule="evenodd" class="s5" d="m11.4 9.5q0.1 0 0-0.1 0 0.1 0 0.1zm1.6-1v-0.1h-0.1v0.1h0.1-0.1v0.1h0.1v-0.1z"/>
	<path id="Layer" fill-rule="evenodd" class="s24" d="m7 9m0 0m0 0m0 0"/>
	<path id="Layer" fill-rule="evenodd" class="s5" d="m7 9m-0.1 0m0 0m0 0m0 0m0 0m0 0m0 0m0 0m0 0m0 0m-0.1 0m0 0m0 0m0 0m0 0m0 0"/>
	<path id="Layer" fill-rule="evenodd" class="s5" d="m6.8 9"/>
	<path id="Layer" fill-rule="evenodd" class="s24" d="m7.1 9m-0.1 0m0 0m6 0m0 0m0 0m-0.1 0"/>
	<path id="Layer" fill-rule="evenodd" class="s5" d="m12.9 9m0 0m0 0m0 0m0 0m0 0m0 0m0 0m0 0m-0.1 0m0 0m0 0m0 0m0 0m0 0m0 0m0 0"/>
	<path id="Layer" fill-rule="evenodd" class="s5" d="m12.8 9"/>
	<path id="Layer" fill-rule="evenodd" class="s24" d="m13 9m0 0m0 0"/>
</svg>