<svg version="1.2" xmlns="http://www.w3.org/2000/svg" viewBox="0 0 20 20" width="20" height="20">
	<title>us-svg</title>
	<style>
		.s0 { fill: #f5f5f5 } 
		.s1 { fill: #ff4b55 } 
		.s2 { fill: #41479b } 
	</style>
	<path id="Layer" class="s0" d="m0 0h20v20h-20z"/>
	<g id="Layer">
		<path id="Layer" class="s1" d="m0 0h20v1.5h-20z"/>
		<path id="Layer" class="s1" d="m0 6.2h20v1.5h-20z"/>
		<path id="Layer" class="s1" d="m0 3.1h20v1.5h-20z"/>
		<path id="Layer" class="s1" d="m0 9.2h20v1.6h-20z"/>
		<path id="Layer" class="s1" d="m0 15.4h20v1.5h-20z"/>
		<path id="Layer" class="s1" d="m0 18.5h20v1.5h-20z"/>
		<path id="Layer" class="s1" d="m0 12.3h20v1.5h-20z"/>
	</g>
	<path id="Layer" class="s2" d="m0 0h10.8v10.8h-10.8z"/>
	<g id="Layer">
		<path id="Layer" class="s0" d="m1.4 0.8l0.1 0.3h0.2c0.1 0 0.1 0 0 0l-0.2 0.2 0.1 0.2c0 0.1 0 0.1 0 0.1l-0.3-0.2-0.2 0.2c0 0 0 0 0-0.1l0.1-0.2-0.3-0.2c0 0 0 0 0.1 0h0.2l0.1-0.3c0 0 0.1 0 0.1 0z"/>
		<path id="Layer" class="s0" d="m1.4 2.9l0.1 0.2h0.2c0.1 0 0.1 0.1 0 0.1l-0.2 0.2 0.1 0.2c0 0 0 0.1 0 0l-0.3-0.1-0.2 0.1c0 0.1 0 0 0 0l0.1-0.2-0.3-0.2c0 0 0-0.1 0.1-0.1h0.2l0.1-0.2c0 0 0.1 0 0.1 0z"/>
		<path id="Layer" class="s0" d="m1.4 5.2l0.1 0.2h0.2c0.1 0 0.1 0.1 0 0.1l-0.2 0.2 0.1 0.2c0 0 0 0.1 0 0l-0.3-0.1-0.2 0.1c0 0.1 0 0 0 0l0.1-0.2-0.3-0.2c0 0 0-0.1 0.1-0.1h0.2l0.1-0.2c0 0 0.1 0 0.1 0z"/>
		<path id="Layer" class="s0" d="m1.4 7.3l0.1 0.2 0.2 0.1c0.1 0 0.1 0 0 0l-0.2 0.2 0.1 0.2c0 0.1 0 0.1 0 0.1l-0.3-0.2-0.2 0.2c0 0 0 0 0-0.1l0.1-0.2-0.3-0.2c0 0 0 0 0.1 0l0.2-0.1 0.1-0.2c0 0 0.1 0 0.1 0z"/>
		<path id="Layer" class="s0" d="m1.4 9.2l0.1 0.3h0.2c0.1 0 0.1 0 0 0l-0.2 0.2 0.1 0.2c0 0.1 0 0.1 0 0.1l-0.3-0.2-0.2 0.2c0 0 0 0 0-0.1l0.1-0.2-0.3-0.2c0 0 0 0 0.1 0h0.2l0.1-0.3c0 0 0.1 0 0.1 0z"/>
		<path id="Layer" class="s0" d="m2.4 1.8l0.1 0.2h0.2c0.1 0 0.1 0.1 0.1 0.1l-0.3 0.2 0.1 0.2c0 0 0 0.1 0 0.1l-0.2-0.2-0.3 0.2c0 0 0-0.1 0-0.1l0.1-0.2-0.2-0.2c-0.1 0-0.1-0.1 0-0.1h0.2l0.1-0.2c0 0 0.1 0 0.1 0z"/>
		<path id="Layer" class="s0" d="m2.4 4.1l0.1 0.2h0.2c0.1 0 0.1 0.1 0.1 0.1l-0.3 0.2 0.1 0.2c0 0 0 0.1 0 0.1l-0.2-0.2-0.3 0.2c0 0 0-0.1 0-0.1l0.1-0.2-0.2-0.2c-0.1 0-0.1-0.1 0-0.1h0.2l0.1-0.2c0 0 0.1 0 0.1 0z"/>
		<path id="Layer" class="s0" d="m2.4 6.3l0.1 0.2h0.2c0.1 0 0.1 0.1 0.1 0.1l-0.3 0.2 0.1 0.2c0 0 0 0.1 0 0l-0.2-0.1-0.3 0.1c0 0.1 0 0 0 0l0.1-0.2-0.2-0.2c-0.1 0-0.1-0.1 0-0.1h0.2l0.1-0.2c0-0.1 0.1-0.1 0.1 0z"/>
		<path id="Layer" class="s0" d="m2.4 8.2l0.1 0.3h0.2c0.1 0 0.1 0 0.1 0.1l-0.3 0.1 0.1 0.3c0 0 0 0 0 0l-0.2-0.2-0.3 0.2c0 0 0 0 0 0l0.1-0.3-0.2-0.1c-0.1-0.1-0.1-0.1 0-0.1h0.2l0.1-0.3c0 0 0.1 0 0.1 0z"/>
		<path id="Layer" class="s0" d="m3.4 0.8l0.1 0.3h0.2c0.1 0 0.1 0 0.1 0l-0.3 0.2 0.1 0.2c0 0.1 0 0.1 0 0.1l-0.2-0.2-0.3 0.2c0 0 0 0 0-0.1l0.1-0.2-0.2-0.2c-0.1 0-0.1 0 0 0h0.2l0.1-0.3c0 0 0.1 0 0.1 0z"/>
		<path id="Layer" class="s0" d="m3.4 2.9l0.1 0.2h0.2c0.1 0 0.1 0.1 0.1 0.1l-0.3 0.2 0.1 0.2c0 0 0 0.1 0 0l-0.2-0.1-0.3 0.1c0 0.1 0 0 0 0l0.1-0.2-0.2-0.2c-0.1 0-0.1-0.1 0-0.1h0.2l0.1-0.2c0 0 0.1 0 0.1 0z"/>
		<path id="Layer" class="s0" d="m3.4 5.2l0.1 0.2h0.2c0.1 0 0.1 0.1 0.1 0.1l-0.3 0.2 0.1 0.2c0 0 0 0.1 0 0l-0.2-0.1-0.3 0.1c0 0.1 0 0 0 0l0.1-0.2-0.2-0.2c-0.1 0-0.1-0.1 0-0.1h0.2l0.1-0.2c0 0 0.1 0 0.1 0z"/>
		<path id="Layer" class="s0" d="m3.4 7.3l0.1 0.2 0.2 0.1c0.1 0 0.1 0 0.1 0l-0.3 0.2 0.1 0.2c0 0.1 0 0.1 0 0.1l-0.2-0.2-0.3 0.2c0 0 0 0 0-0.1l0.1-0.2-0.2-0.2c-0.1 0-0.1 0 0 0l0.2-0.1 0.1-0.2c0 0 0.1 0 0.1 0z"/>
		<path id="Layer" class="s0" d="m3.4 9.2l0.1 0.3h0.2c0.1 0 0.1 0 0.1 0l-0.3 0.2 0.1 0.2c0 0.1 0 0.1 0 0.1l-0.2-0.2-0.3 0.2c0 0 0 0 0-0.1l0.1-0.2-0.2-0.2c-0.1 0-0.1 0 0 0h0.2l0.1-0.3c0 0 0.1 0 0.1 0z"/>
		<path id="Layer" class="s0" d="m4.4 1.8l0.1 0.2h0.2c0.1 0 0.1 0.1 0.1 0.1l-0.2 0.2v0.2c0 0 0 0.1 0 0.1l-0.2-0.2-0.2 0.2c-0.1 0-0.1-0.1-0.1-0.1l0.1-0.2-0.2-0.2c-0.1 0 0-0.1 0-0.1h0.3v-0.2c0 0 0.1 0 0.1 0z"/>
		<path id="Layer" class="s0" d="m4.4 4.1l0.1 0.2h0.2c0.1 0 0.1 0.1 0.1 0.1l-0.2 0.2v0.2c0 0 0 0.1 0 0.1l-0.2-0.2-0.2 0.2c-0.1 0-0.1-0.1-0.1-0.1l0.1-0.2-0.2-0.2c-0.1 0 0-0.1 0-0.1h0.3v-0.2c0 0 0.1 0 0.1 0z"/>
		<path id="Layer" class="s0" d="m4.4 6.3l0.1 0.2h0.2c0.1 0 0.1 0.1 0.1 0.1l-0.2 0.2v0.2c0 0 0 0.1 0 0l-0.2-0.1-0.2 0.1c-0.1 0.1-0.1 0-0.1 0l0.1-0.2-0.2-0.2c-0.1 0 0-0.1 0-0.1h0.3v-0.2c0-0.1 0.1-0.1 0.1 0z"/>
		<path id="Layer" class="s0" d="m4.4 8.2l0.1 0.3h0.2c0.1 0 0.1 0 0.1 0.1l-0.2 0.1v0.3c0 0 0 0 0 0l-0.2-0.2-0.2 0.2c-0.1 0-0.1 0-0.1 0l0.1-0.3-0.2-0.1c-0.1-0.1 0-0.1 0-0.1h0.3v-0.3c0 0 0.1 0 0.1 0z"/>
		<path id="Layer" class="s0" d="m5.4 0.8l0.1 0.3h0.3c0 0 0 0 0 0l-0.2 0.2v0.2c0.1 0.1 0 0.1 0 0.1l-0.2-0.2-0.2 0.2c-0.1 0-0.1 0-0.1-0.1l0.1-0.2-0.2-0.2c0 0 0 0 0 0h0.3v-0.3c0.1 0 0.1 0 0.1 0z"/>
		<path id="Layer" class="s0" d="m5.4 2.9l0.1 0.2h0.3c0 0 0 0.1 0 0.1l-0.2 0.2v0.2c0.1 0 0 0.1 0 0l-0.2-0.1-0.2 0.1c-0.1 0.1-0.1 0-0.1 0l0.1-0.2-0.2-0.2c0 0 0-0.1 0-0.1h0.3v-0.2c0.1 0 0.1 0 0.1 0z"/>
		<path id="Layer" class="s0" d="m5.4 5.2l0.1 0.2h0.3c0 0 0 0.1 0 0.1l-0.2 0.2v0.2c0.1 0 0 0.1 0 0l-0.2-0.1-0.2 0.1c-0.1 0.1-0.1 0-0.1 0l0.1-0.2-0.2-0.2c0 0 0-0.1 0-0.1h0.3v-0.2c0.1 0 0.1 0 0.1 0z"/>
		<path id="Layer" class="s0" d="m5.4 7.3l0.1 0.2 0.3 0.1c0 0 0 0 0 0l-0.2 0.2v0.2c0.1 0.1 0 0.1 0 0.1l-0.2-0.2-0.2 0.2c-0.1 0-0.1 0-0.1-0.1l0.1-0.2-0.2-0.2c0 0 0 0 0 0l0.3-0.1v-0.2c0.1 0 0.1 0 0.1 0z"/>
		<path id="Layer" class="s0" d="m5.4 9.2l0.1 0.3h0.3c0 0 0 0 0 0l-0.2 0.2v0.2c0.1 0.1 0 0.1 0 0.1l-0.2-0.2-0.2 0.2c-0.1 0-0.1 0-0.1-0.1l0.1-0.2-0.2-0.2c0 0 0 0 0 0h0.3v-0.3c0.1 0 0.1 0 0.1 0z"/>
		<path id="Layer" class="s0" d="m6.4 1.8l0.1 0.2h0.3c0 0 0 0.1 0 0.1l-0.2 0.2 0.1 0.2c0 0-0.1 0.1-0.1 0.1l-0.2-0.2-0.2 0.2c-0.1 0-0.1-0.1-0.1-0.1l0.1-0.2-0.2-0.2c0 0 0-0.1 0-0.1h0.3l0.1-0.2c0 0 0 0 0 0z"/>
		<path id="Layer" class="s0" d="m6.4 4.1l0.1 0.2h0.3c0 0 0 0.1 0 0.1l-0.2 0.2 0.1 0.2c0 0-0.1 0.1-0.1 0.1l-0.2-0.2-0.2 0.2c-0.1 0-0.1-0.1-0.1-0.1l0.1-0.2-0.2-0.2c0 0 0-0.1 0-0.1h0.3l0.1-0.2c0 0 0 0 0 0z"/>
		<path id="Layer" class="s0" d="m6.4 6.3l0.1 0.2h0.3c0 0 0 0.1 0 0.1l-0.2 0.2 0.1 0.2c0 0-0.1 0.1-0.1 0l-0.2-0.1-0.2 0.1c-0.1 0.1-0.1 0-0.1 0l0.1-0.2-0.2-0.2c0 0 0-0.1 0-0.1h0.3l0.1-0.2c0-0.1 0-0.1 0 0z"/>
		<path id="Layer" class="s0" d="m6.4 8.2l0.1 0.3h0.3c0 0 0 0 0 0.1l-0.2 0.1 0.1 0.3c0 0-0.1 0-0.1 0l-0.2-0.2-0.2 0.2c-0.1 0-0.1 0-0.1 0l0.1-0.3-0.2-0.1c0-0.1 0-0.1 0-0.1h0.3l0.1-0.3c0 0 0 0 0 0z"/>
		<path id="Layer" class="s0" d="m7.4 0.8l0.1 0.3h0.3c0 0 0 0 0 0l-0.2 0.2 0.1 0.2c0 0.1-0.1 0.1-0.1 0.1l-0.2-0.2-0.2 0.2c0 0-0.1 0-0.1-0.1l0.1-0.2-0.2-0.2c0 0 0 0 0 0h0.3l0.1-0.3c0 0 0 0 0 0z"/>
		<path id="Layer" class="s0" d="m7.4 2.9l0.1 0.2h0.3c0 0 0 0.1 0 0.1l-0.2 0.2 0.1 0.2c0 0-0.1 0.1-0.1 0l-0.2-0.1-0.2 0.1c0 0.1-0.1 0-0.1 0l0.1-0.2-0.2-0.2c0 0 0-0.1 0-0.1h0.3l0.1-0.2c0 0 0 0 0 0z"/>
		<path id="Layer" class="s0" d="m7.4 5.2l0.1 0.2h0.3c0 0 0 0.1 0 0.1l-0.2 0.2 0.1 0.2c0 0-0.1 0.1-0.1 0l-0.2-0.1-0.2 0.1c0 0.1-0.1 0-0.1 0l0.1-0.2-0.2-0.2c0 0 0-0.1 0-0.1h0.3l0.1-0.2c0 0 0 0 0 0z"/>
		<path id="Layer" class="s0" d="m7.4 7.3l0.1 0.2 0.3 0.1c0 0 0 0 0 0l-0.2 0.2 0.1 0.2c0 0.1-0.1 0.1-0.1 0.1l-0.2-0.2-0.2 0.2c0 0-0.1 0-0.1-0.1l0.1-0.2-0.2-0.2c0 0 0 0 0 0l0.3-0.1 0.1-0.2c0 0 0 0 0 0z"/>
		<path id="Layer" class="s0" d="m7.4 9.2l0.1 0.3h0.3c0 0 0 0 0 0l-0.2 0.2 0.1 0.2c0 0.1-0.1 0.1-0.1 0.1l-0.2-0.2-0.2 0.2c0 0-0.1 0-0.1-0.1l0.1-0.2-0.2-0.2c0 0 0 0 0 0h0.3l0.1-0.3c0 0 0 0 0 0z"/>
		<path id="Layer" class="s0" d="m8.4 1.8l0.1 0.2h0.3c0 0 0 0.1 0 0.1l-0.2 0.2 0.1 0.2c0 0-0.1 0.1-0.1 0.1l-0.2-0.2-0.2 0.2c0 0-0.1-0.1-0.1-0.1l0.1-0.2-0.2-0.2c0 0 0-0.1 0-0.1h0.3l0.1-0.2c0 0 0 0 0 0z"/>
		<path id="Layer" class="s0" d="m8.4 4.1l0.1 0.2h0.3c0 0 0 0.1 0 0.1l-0.2 0.2 0.1 0.2c0 0-0.1 0.1-0.1 0.1l-0.2-0.2-0.2 0.2c0 0-0.1-0.1-0.1-0.1l0.1-0.2-0.2-0.2c0 0 0-0.1 0-0.1h0.3l0.1-0.2c0 0 0 0 0 0z"/>
		<path id="Layer" class="s0" d="m8.4 6.3l0.1 0.2h0.3c0 0 0 0.1 0 0.1l-0.2 0.2 0.1 0.2c0 0-0.1 0.1-0.1 0l-0.2-0.1-0.2 0.1c0 0.1-0.1 0-0.1 0l0.1-0.2-0.2-0.2c0 0 0-0.1 0-0.1h0.3l0.1-0.2c0-0.1 0-0.1 0 0z"/>
		<path id="Layer" class="s0" d="m8.4 8.2l0.1 0.3h0.3c0 0 0 0 0 0.1l-0.2 0.1 0.1 0.3c0 0-0.1 0-0.1 0l-0.2-0.2-0.2 0.2c0 0-0.1 0-0.1 0l0.1-0.3-0.2-0.1c0-0.1 0-0.1 0-0.1h0.3l0.1-0.3c0 0 0 0 0 0z"/>
		<path id="Layer" class="s0" d="m9.5 0.8v0.3h0.3c0 0 0 0 0 0l-0.2 0.2 0.1 0.2c0 0.1 0 0.1-0.1 0.1l-0.2-0.2-0.2 0.2c0 0-0.1 0-0.1-0.1l0.1-0.2-0.2-0.2c0 0 0 0 0 0h0.3l0.1-0.3c0 0 0 0 0.1 0z"/>
		<path id="Layer" class="s0" d="m9.5 2.9v0.2h0.3c0 0 0 0.1 0 0.1l-0.2 0.2 0.1 0.2c0 0 0 0.1-0.1 0l-0.2-0.1-0.2 0.1c0 0.1-0.1 0-0.1 0l0.1-0.2-0.2-0.2c0 0 0-0.1 0-0.1h0.3l0.1-0.2c0 0 0 0 0.1 0z"/>
		<path id="Layer" class="s0" d="m9.5 5.2v0.2h0.3c0 0 0 0.1 0 0.1l-0.2 0.2 0.1 0.2c0 0 0 0.1-0.1 0l-0.2-0.1-0.2 0.1c0 0.1-0.1 0-0.1 0l0.1-0.2-0.2-0.2c0 0 0-0.1 0-0.1h0.3l0.1-0.2c0 0 0 0 0.1 0z"/>
		<path id="Layer" class="s0" d="m9.5 7.3v0.2l0.3 0.1c0 0 0 0 0 0l-0.2 0.2 0.1 0.2c0 0.1 0 0.1-0.1 0.1l-0.2-0.2-0.2 0.2c0 0-0.1 0-0.1-0.1l0.1-0.2-0.2-0.2c0 0 0 0 0 0l0.3-0.1 0.1-0.2c0 0 0 0 0.1 0z"/>
		<path id="Layer" class="s0" d="m9.5 9.2v0.3h0.3c0 0 0 0 0 0l-0.2 0.2 0.1 0.2c0 0.1 0 0.1-0.1 0.1l-0.2-0.2-0.2 0.2c0 0-0.1 0-0.1-0.1l0.1-0.2-0.2-0.2c0 0 0 0 0 0h0.3l0.1-0.3c0 0 0 0 0.1 0z"/>
	</g>
	<g id="Layer">
	</g>
	<g id="Layer">
	</g>
	<g id="Layer">
	</g>
	<g id="Layer">
	</g>
	<g id="Layer">
	</g>
	<g id="Layer">
	</g>
	<g id="Layer">
	</g>
	<g id="Layer">
	</g>
	<g id="Layer">
	</g>
	<g id="Layer">
	</g>
	<g id="Layer">
	</g>
	<g id="Layer">
	</g>
	<g id="Layer">
	</g>
	<g id="Layer">
	</g>
	<g id="Layer">
	</g>
</svg>